<svg width="250" height="250" viewBox="0 0 250 250" fill="none" xmlns="http://www.w3.org/2000/svg">
<g opacity="0.1">
<path d="M20.8173 55.9135C20.7692 56.0096 20.6731 56.1058 20.625 56.2019C20.625 56.3942 20.6731 56.5385 20.7212 56.7308C20.7692 56.8269 20.7692 56.9231 20.7692 57.0192C20.7692 56.6827 20.7692 56.3462 20.8173 55.9135Z" fill="#98D531"/>
<path d="M8.75 170.385C9.08654 169.327 9.08654 168.125 9.03846 166.971L8.75 159.712L7.98077 167.019C7.93269 167.596 7.88461 168.221 7.88461 168.798C8.125 169.519 8.41346 170.192 8.70192 170.913C8.65385 170.673 8.70192 170.529 8.75 170.385Z" fill="#98D531"/>
<path d="M50.2885 128.125C50.1923 128.558 50.1442 128.99 50.0481 129.423C50.0962 129.423 50.1442 129.423 50.2404 129.423H53.6058C53.9904 128.942 54.375 128.51 54.8077 128.077C54.7115 128.125 54.5673 128.125 54.4231 128.125H50.2885Z" fill="#98D531"/>
<path d="M58.3173 19.2308C58.2212 19.2788 58.125 19.3269 58.0769 19.375C58.125 19.6635 58.1731 19.9038 58.2692 20.1923L58.3173 19.2308Z" fill="#98D531"/>
<path d="M73.0769 11.25C71.9712 11.7788 70.8173 12.3077 69.7115 12.8365C68.5577 13.7981 67.2115 14.7596 65.7212 15.5288C67.2115 16.2981 68.75 17.1154 70.2404 17.9327C70.7692 15.9135 71.9712 13.3654 73.0769 11.25Z" fill="#98D531"/>
<path d="M238.75 175C238.75 174.904 238.702 174.808 238.702 174.712C238.654 174.038 239.038 173.51 239.519 173.51H240.192C240.385 173.077 240.529 172.644 240.721 172.212H239.327C238.798 172.212 238.317 171.635 238.317 170.913C238.317 170.721 238.317 170.529 238.365 170.337C238.702 169.279 238.702 168.077 238.654 166.923L237.404 134.038C237.356 132.885 237.067 131.827 236.779 130.721C236.779 130.625 236.731 130.529 236.731 130.481C236.683 129.904 237.019 129.423 237.452 129.423H240.481C240.913 129.423 241.298 129.904 241.298 130.481C241.298 130.577 241.298 130.673 241.298 130.721C241.154 131.827 240.962 132.885 241.058 133.99L243.029 165.865C245.865 157.596 247.885 148.942 248.99 140C247.308 140.385 245.673 140.721 244.423 140.962C246.058 139.712 247.692 138.846 249.231 138.221C249.567 134.808 249.808 131.394 249.904 127.933C249.471 127.548 249.087 127.163 248.75 126.827C249.183 126.875 249.567 126.923 249.952 126.971C249.952 126.346 250 125.673 250 125.048C250 105.529 245.529 87.0192 237.5 70.5288L238.462 85.8173C238.51 86.6346 238.606 87.5 238.894 88.2212C238.942 88.3173 238.99 88.4615 238.99 88.6058C239.038 89.0865 238.75 89.5192 238.365 89.5192H235.721C235.337 89.5192 235 89.0865 235 88.6058C235 88.4615 235 88.3173 235.048 88.2212C235.288 87.5 235.288 86.6346 235.24 85.7692L234.423 64.6635C229.712 56.1058 223.99 48.1731 217.5 41.0096L216.01 54.8077C215.913 55.4808 215.913 56.2019 216.106 56.7788C216.154 56.875 216.154 56.9712 216.154 57.1154C216.106 57.5481 215.769 57.8365 215.385 57.8365H212.74C212.356 57.8365 212.115 57.5 212.163 57.1154C212.163 57.0192 212.212 56.875 212.26 56.7788C212.596 56.1538 212.74 55.4808 212.837 54.8077L215.096 38.4615C212.788 36.0577 210.385 33.75 207.885 31.5385C207.788 31.6346 207.596 31.7308 207.452 31.7308H204.952C204.615 31.7308 204.327 31.4423 204.327 31.1058C204.327 31.0096 204.327 30.9135 204.375 30.8654C204.615 30.3846 204.663 29.8077 204.712 29.2308V28.7981C202.26 26.7788 199.76 24.8558 197.163 23.0288C196.587 23.9904 195.962 24.8558 195.24 25.5769C195.144 24.6635 195.433 23.4135 195.865 22.1154C195.24 21.6827 194.615 21.25 193.99 20.8654L193.221 29.2308C193.173 29.7596 193.125 30.3365 193.269 30.8654C193.269 30.9615 193.317 31.0096 193.269 31.1058C193.221 31.4423 193.029 31.7308 192.74 31.7308H190.962C190.721 31.7308 190.529 31.4423 190.577 31.1058C190.577 31.0096 190.625 30.9135 190.673 30.8654C190.913 30.3846 191.01 29.8077 191.058 29.2308L192.067 20.3365C190.337 21.3942 188.317 22.3077 186.106 22.7885C187.308 21.6346 189.038 20.2885 190.865 18.8942C179.952 11.9712 167.788 6.77885 154.808 3.60577C153.173 6.82692 149.327 10.4808 146.298 13.0769C146.298 13.2692 146.298 13.4135 146.298 13.6058L146.346 14.7596C150.144 12.7404 156.731 10.3846 163.558 12.5962C165.433 11.4423 167.26 10.4327 168.702 9.71154C162.308 20.1923 151.587 20.5769 151.587 20.3365C151.587 20.3365 157.115 16.5385 162.404 13.3173C157.644 14.7115 150.625 15.8654 146.442 16.4904L147.212 28.75C148.75 25.1442 150 22.4519 150 22.4519C150.144 22.4519 150.577 29.1827 147.596 35.7692L148.51 50C150.529 48.6058 152.019 47.6442 152.019 47.6442C152.067 47.6923 150.865 49.6635 148.654 51.9231L148.846 54.8558C148.846 54.8558 148.846 54.8558 148.846 54.9038C150.481 51.25 152.788 47.6442 152.788 47.6442C153.029 47.5962 151.731 54.6635 148.51 59.2308H148.798C149.087 59.2308 149.375 59.5673 149.375 60C149.375 60.0481 149.375 60.1442 149.375 60.1923C149.279 60.9615 149.135 61.7308 149.183 62.5L150.625 85.9615C150.673 86.7788 150.769 87.6442 151.058 88.3654C151.106 88.4615 151.154 88.6058 151.154 88.75C151.202 89.2308 150.913 89.6635 150.529 89.6635H147.885C147.5 89.6635 147.163 89.2308 147.163 88.75C147.163 88.6058 147.163 88.4615 147.212 88.3654C147.452 87.6442 147.452 86.7788 147.404 85.9135L146.538 62.5481C146.49 61.7308 146.298 60.9615 146.106 60.1923C146.106 60.1442 146.106 60.0481 146.058 60C146.058 59.5673 146.25 59.2308 146.587 59.2308H147.308C147.404 58.7981 147.5 58.3654 147.644 57.9327H146.538C146.25 57.9327 145.962 57.5962 145.962 57.2115C145.962 57.1154 145.962 56.9712 146.01 56.875C146.202 56.25 146.202 55.5769 146.202 54.9038L146.154 54.1346C143.99 55.8173 141.298 57.3077 138.173 57.9808C140.096 56.2019 143.269 53.7981 146.106 51.7788L145.625 39.375C144.663 40.7692 143.462 42.1154 142.019 43.3173C142.644 40.7212 143.846 37.3077 145.192 33.9904C145.192 33.9423 145.192 33.9423 145.192 33.8942C145.192 33.8462 145.192 33.7981 145.192 33.75C145.192 33.4135 145.337 33.1731 145.577 33.1731C145.769 32.7404 145.913 32.3077 146.106 31.875H145.577C145.337 31.875 145.096 31.5865 145.096 31.25C145.096 31.1538 145.096 31.0577 145.144 31.0096C145.288 30.5288 145.288 29.9519 145.288 29.375L144.808 16.9231C143.75 17.0673 143.077 17.1635 143.077 17.1635C143.077 17.1154 143.654 16.6346 144.76 15.9135L144.712 14.6635C143.221 15.8654 142.163 16.6346 142.163 16.6346C142.067 16.5865 142.933 14.9038 144.519 12.6923C144.471 12.5481 144.423 12.3558 144.423 12.2115C144.423 12.1635 144.423 12.1154 144.423 12.0673C144.423 11.7788 144.567 11.5865 144.76 11.5865H145.337C147.452 8.75 150.385 5.43269 153.558 3.41346C149.615 2.5 145.577 1.77885 141.49 1.25C144.327 9.08654 141.779 16.875 141.538 16.875C141.538 16.875 139.712 8.31731 138.317 0.913462C133.846 0.240385 129.423 0 125 0C112.885 0 101.202 1.73077 90.1442 4.95192C90.7692 4.90385 91.3462 4.90385 91.8269 4.90385C88.4135 6.73077 85.2404 7.30769 82.6923 7.35577C81.1538 7.93269 79.6154 8.50961 78.125 9.08654C80.2404 11.5865 83.4615 15.4327 85.3365 17.8846C83.0288 17.3558 81.25 16.3462 79.9519 15.1442L80.1442 29.1827C80.1442 29.7115 80.1923 30.2885 80.3846 30.8173C80.4327 30.9135 80.4327 30.9615 80.4327 31.0577C80.4327 31.3942 80.2404 31.6827 80 31.6827H78.2212C77.9808 31.6827 77.7885 31.3942 77.7885 31.0577C77.7885 30.9615 77.7885 30.8654 77.8365 30.8173C78.0288 30.3365 78.0288 29.7596 78.0769 29.1827L78.2692 13.6058C78.2692 13.4135 78.2692 13.2212 78.2212 13.0769C77.4519 11.9231 76.9711 10.7692 76.6346 9.75961C76.1058 10 75.5769 10.2404 75 10.4808C74.3269 12.8846 73.1731 16.1058 71.3942 18.6058C73.5577 19.8077 75.5769 21.0096 77.1635 22.0673C70.7212 22.3558 65.7692 19.7115 62.4038 17.0192C62.2596 17.0673 62.1154 17.1154 61.9711 17.1154C61.6346 17.3077 61.2981 17.5 60.9615 17.6923L60.3846 29.1827C60.3846 29.4231 60.3846 29.7115 60.3846 29.9519C60.4327 30.1923 60.4808 30.4327 60.5288 30.625C60.5288 30.6731 60.5288 30.7212 60.5769 30.7692C60.625 30.8654 60.625 30.9135 60.625 31.0096C61.25 33.9904 61.7788 36.8269 62.1635 39.0865C61.3462 38.1731 60.5769 37.1635 59.9519 36.2019L58.9904 54.7115C58.9423 55.3846 58.9423 56.1058 59.2308 56.6827C59.2788 56.7788 59.2788 56.875 59.2788 57.0192C59.2308 57.4519 58.8942 57.7404 58.5096 57.7404H55.6731C55.2885 57.7404 54.9519 57.4038 55 57.0192C55 56.9231 55.0481 56.7788 55.0962 56.6827C55.4327 56.0577 55.5288 55.3846 55.5769 54.7115L57.1635 35.625C57.2115 34.9519 57.0673 34.3269 56.9712 33.7019C56.9712 33.6538 56.9712 33.6058 56.9712 33.5577C56.9712 33.2212 57.2596 32.9327 57.5962 32.9327H58.125C57.9327 32.5 57.7404 32.0673 57.5481 31.6346C57.3077 31.5865 57.1154 31.3462 57.1154 31.0577C57.1154 30.9615 57.1635 30.8654 57.2115 30.8173C56.0096 27.5 55.5288 24.1827 55.3846 21.25C42.6923 29.8077 31.6346 40.625 22.7885 53.1731C21.875 56.0096 20.9135 58.2692 20.9135 58.2692C20.8654 58.2692 20.8173 57.8365 20.8173 57.1154C20.7692 57.4038 20.5769 57.6442 20.3365 57.7885C20.4808 58.3654 20.5288 58.7019 20.5288 58.7019C20.5288 58.7019 20.1923 58.4135 19.6154 57.8846C19.4231 58.2212 19.1827 58.5577 18.9904 58.8942C19.4712 58.9904 19.7596 59.0385 19.9038 59.1346C20.2885 59.1346 20.5288 59.4712 20.4808 59.9038C20.4808 59.9519 20.4808 60.0481 20.4327 60.0962C20.1442 60.8654 19.8558 61.6346 19.7596 62.4038L17.2115 85.8654C17.1154 86.6827 17.0673 87.5481 17.3077 88.2692C17.3558 88.3654 17.3558 88.5096 17.3558 88.6538C17.3077 89.1346 16.875 89.5673 16.3942 89.5673H13.1731C12.6923 89.5673 12.4038 89.1346 12.4519 88.6538C12.4519 88.5096 12.5 88.3654 12.5962 88.2692C13.0288 87.5481 13.1731 86.6827 13.3173 85.8173L16.4904 62.9808C13.4135 68.3654 10.7212 74.0385 8.41346 79.9038L8.79808 85.8654C8.84615 86.6827 8.94231 87.5481 9.23077 88.2692C9.27885 88.3654 9.32692 88.5096 9.32692 88.6538C9.375 89.1346 9.08654 89.5673 8.70192 89.5673H6.05769C5.72115 89.5673 5.43269 89.2308 5.33654 88.7981C1.875 100.24 0 112.404 0 125C0 135.865 1.39423 146.346 3.99038 156.394L7.11538 134.038C7.25962 132.885 7.11538 131.827 6.97115 130.721C6.97115 130.625 6.97115 130.529 6.97115 130.481C7.01923 130.144 7.16346 129.856 7.40385 129.663C7.54808 129.519 7.69231 129.423 7.88461 129.423H11.7308C12.2596 129.423 12.6442 129.904 12.5481 130.481C12.5481 130.577 12.5 130.673 12.5 130.721C12.1154 131.827 11.6827 132.885 11.5865 133.99L11.5385 134.471L13.5577 166.971C13.6538 168.125 13.75 169.327 14.1827 170.385C14.2308 170.529 14.2788 170.721 14.3269 170.962C14.375 171.683 13.9423 172.26 13.4135 172.26H9.71154C9.51923 172.26 9.32692 172.163 9.18269 172.019C9.375 172.548 9.61538 173.029 9.80769 173.558C9.85577 173.558 9.90385 173.558 9.90385 173.558H13.3654C13.8462 173.558 14.2788 174.087 14.3269 174.76C14.3269 174.856 14.3269 174.952 14.3269 175.048C14.1827 176.298 13.9423 177.548 14.0385 178.798L14.3269 183.077C21.5385 196.779 31.1538 208.942 42.6923 219.038C42.8846 218.269 42.9808 217.452 43.0769 216.683L46.1538 178.846C46.25 177.548 45.9615 176.298 45.7212 175C45.7212 174.904 45.7212 174.808 45.7212 174.712C45.7692 174.038 46.3461 173.51 46.9711 173.51H51.5385C52.2115 173.51 52.6923 174.038 52.6442 174.712C52.6442 174.808 52.5962 174.904 52.5962 175C52.2115 176.25 51.7788 177.5 51.7308 178.75L49.8077 216.635C49.7596 217.981 49.7596 219.375 50.2404 220.529C50.3365 220.721 50.3365 220.913 50.3365 221.154C50.2885 221.971 49.5673 222.644 48.7981 222.644H47.0673C68.4135 239.76 95.5288 250 125 250C154.519 250 181.635 239.76 202.981 222.692C202.212 222.596 201.635 221.971 201.635 221.25C201.635 221.01 201.683 220.817 201.779 220.625C202.404 219.423 202.548 218.029 202.548 216.683L203.221 178.894C203.221 177.74 202.933 176.587 202.596 175.481C202.212 176.587 201.827 177.692 201.683 178.798L197.548 216.683C197.404 218.029 197.308 219.423 197.74 220.577C197.788 220.769 197.837 220.962 197.788 221.202C197.692 222.019 197.019 222.692 196.25 222.692H191.058C190.337 222.692 189.808 222.019 189.904 221.202C189.952 220.962 190 220.769 190.096 220.577C190.769 219.375 191.058 217.981 191.25 216.635L196.635 178.846C196.827 177.548 196.635 176.298 196.49 175C196.49 174.904 196.49 174.808 196.49 174.712C196.587 174.038 197.115 173.51 197.74 173.51H201.971C202.356 173.51 202.644 173.702 202.788 173.99C203.029 173.702 203.413 173.51 203.798 173.51H208.75C209.471 173.51 210.048 174.038 210.048 174.712C210.048 174.808 210.048 174.904 210 175C209.663 176.25 209.279 177.5 209.327 178.75L209.952 216.635C209.952 216.635 209.952 216.635 209.952 216.683C222.163 205.337 232.163 191.587 239.087 176.202C238.942 175.817 238.846 175.433 238.75 175ZM16.9712 91.7308C16.9712 91.8269 16.9231 91.875 16.9231 91.9712C16.5865 92.9327 16.25 93.8462 16.1058 94.8077L12.9808 123.558C12.8846 124.567 12.8365 125.625 13.125 126.538C13.1731 126.683 13.1731 126.827 13.1731 127.019C13.0769 127.644 12.5962 128.125 12.0192 128.125H7.69231C7.21154 128.125 6.82692 127.644 6.77885 127.019C6.77885 126.827 6.77885 126.683 6.82692 126.538C7.11538 125.625 7.11538 124.567 7.06731 123.558L6.00962 94.9038C5.96154 93.8942 5.72115 92.9808 5.48077 92.0192C5.48077 91.9231 5.43269 91.875 5.43269 91.7788C5.38462 91.25 5.67308 90.8654 6.05769 90.8654H8.70192C9.08654 90.8654 9.42308 91.2981 9.42308 91.7788C9.42308 91.875 9.42308 91.9231 9.42308 92.0192C9.27885 92.9808 9.13461 93.8942 9.18269 94.8558L10.0962 109.471L12.1154 94.9038C12.2596 93.8942 12.1154 92.9808 12.0192 92.0192C12.0192 91.9231 12.0192 91.875 12.0192 91.7788C12.0673 91.25 12.5 90.8654 12.9808 90.8654H16.2019C16.6827 90.8173 17.0192 91.2019 16.9712 91.7308ZM77.4038 56.7308C77.6442 56.1058 77.6923 55.4327 77.6923 54.7596L77.9327 35.6731C77.9327 35 77.7885 34.375 77.6923 33.75C77.6923 33.7019 77.6923 33.6538 77.6923 33.6058C77.6923 33.2692 77.8846 32.9808 78.125 32.9808H79.8558C80.0962 32.9808 80.2885 33.2692 80.2885 33.6058C80.2885 33.6538 80.2885 33.7019 80.2885 33.75C80.1923 34.375 80.0481 35 80.0481 35.625L80.2885 54.7596C80.2885 55.4327 80.3365 56.1538 80.5769 56.7308C80.625 56.8269 80.625 56.9231 80.625 57.0673C80.625 57.5 80.3846 57.7885 80.0481 57.7885H77.8846C77.5962 57.7885 77.3077 57.4519 77.3077 57.0673C77.3558 56.9231 77.3558 56.8269 77.4038 56.7308ZM77.0673 88.2212C77.3558 87.5 77.4038 86.6346 77.4038 85.7692L77.6923 62.4038C77.6923 61.5865 77.5 60.8173 77.3558 60.0481C77.3558 60 77.3558 59.9038 77.3558 59.8558C77.3558 59.4231 77.5962 59.0865 77.9327 59.0865H80.0962C80.3846 59.0865 80.6731 59.4231 80.6731 59.8558C80.6731 59.9038 80.6731 60 80.6731 60.0481C80.5288 60.8173 80.3846 61.5865 80.3846 62.3558L80.6731 85.8173C80.6731 86.6346 80.7212 87.5 81.0096 88.2212C81.0577 88.3173 81.0577 88.4615 81.0577 88.6058C81.0577 89.0865 80.7692 89.5192 80.3846 89.5192H77.7404C77.3558 89.5192 77.0673 89.0865 77.0673 88.6058C76.9712 88.4615 77.0192 88.3173 77.0673 88.2212ZM76.6346 126.49C76.9711 125.577 77.0192 124.519 77.0673 123.51L77.4519 94.8558C77.4519 93.8462 77.2596 92.9327 77.0673 91.9712C77.0673 91.875 77.0673 91.8269 77.0673 91.7308C77.0673 91.2019 77.3558 90.8173 77.7404 90.8173H80.3846C80.7692 90.8173 81.0577 91.25 81.0577 91.7308C81.0577 91.8269 81.0577 91.875 81.0577 91.9712C80.8654 92.9327 80.6731 93.8462 80.6731 94.8077L81.0096 123.558C81.0096 124.567 81.0577 125.625 81.3942 126.538C81.4423 126.683 81.4904 126.827 81.4904 127.019C81.4904 127.644 81.1058 128.125 80.6731 128.125H77.4519C76.9712 128.125 76.6346 127.644 76.6346 127.019C76.5385 126.827 76.5385 126.635 76.6346 126.49ZM76.25 170.385C76.6346 169.327 76.7308 168.125 76.7308 166.971L77.1635 134.087C77.1635 132.933 76.9231 131.875 76.7308 130.769C76.7308 130.673 76.6827 130.577 76.6827 130.529C76.6827 129.952 77.0192 129.471 77.4519 129.471H80.4808C80.9135 129.471 81.25 129.952 81.25 130.529C81.25 130.625 81.25 130.721 81.25 130.769C81.0577 131.875 80.8173 132.933 80.8173 134.038L81.2019 167.019C81.2019 168.173 81.2981 169.375 81.6827 170.433C81.7308 170.577 81.7788 170.769 81.7788 171.01C81.7788 171.731 81.3462 172.308 80.8173 172.308H77.1154C76.5865 172.308 76.1538 171.731 76.1538 171.01C76.1538 170.721 76.2019 170.529 76.25 170.385ZM52.4038 88.2212C52.8365 87.5 52.9327 86.6346 53.0288 85.7692L55 62.4038C55.0481 61.5865 54.9038 60.8173 54.7596 60.0481C54.7596 60 54.7596 59.9038 54.7596 59.8558C54.8077 59.4231 55.1442 59.0865 55.5288 59.0865H58.3654C58.75 59.0865 59.0865 59.4231 59.0385 59.8558C59.0385 59.9038 59.0385 60 58.9904 60.0481C58.75 60.8173 58.4615 61.5865 58.4615 62.3558L57.2596 85.8173C57.2115 86.6346 57.2115 87.5 57.5481 88.2212C57.5961 88.3173 57.6442 88.4615 57.5962 88.6058C57.5481 89.0865 57.1154 89.5192 56.6346 89.5192H53.1731C52.6923 89.5192 52.3077 89.0865 52.3558 88.6058C52.3077 88.4615 52.3558 88.3173 52.4038 88.2212ZM47.1154 139.423C47.1154 139.423 36.0577 129.135 30.8173 123.75C43.4615 125.913 47.3558 139.279 47.1154 139.423ZM33.6538 45.625C30.2404 50.0962 21.6346 58.0769 21.6346 58.0769C21.4904 58.0288 25.1923 48.75 33.6538 45.625ZM26.7308 143.413C36.3942 136.106 46.4904 139.808 46.4423 140.048C46.3942 140.048 33.125 142.933 26.7308 143.413ZM54.5192 132.788C54.4231 133.173 54.375 133.558 54.3269 133.99L52.6442 166.971C52.5962 168.125 52.5962 169.327 53.0288 170.385C53.0769 170.529 53.125 170.721 53.125 170.962C53.0769 171.683 52.5 172.26 51.7788 172.26H46.9231C46.25 172.26 45.7211 171.683 45.7692 170.962C45.7692 170.769 45.8654 170.577 45.9135 170.385C46.4904 169.327 46.6827 168.125 46.7788 166.971L49.1827 138.173C48.8462 138.51 48.6058 138.702 48.6058 138.702C48.5577 138.702 48.7981 137.885 49.2788 136.635L49.5192 134.038C49.5673 133.462 49.5192 132.885 49.4231 132.308C48.5577 136.01 47.5962 138.846 47.5962 138.846C47.2596 138.942 46.3942 125.817 50.3846 119.135C50.3846 119.183 50.3846 119.183 50.3846 119.231L52.4038 94.8558C52.5 93.8462 52.2596 92.9327 52.0673 91.9712C52.0673 91.875 52.0673 91.8269 52.0673 91.7308C52.1154 91.2019 52.5481 90.8173 53.0288 90.8173H56.4904C56.9712 90.8173 57.3558 91.25 57.3077 91.7308C57.3077 91.8269 57.3077 91.875 57.2596 91.9712C56.9712 92.9327 56.6346 93.8462 56.5865 94.8077L55.1442 123.558C55.0961 124.567 55.0962 125.625 55.4808 126.538C55.5288 126.683 55.5769 126.827 55.5769 127.019C55.5769 127.115 55.5288 127.212 55.5288 127.308C57.5962 125.288 60.1923 123.51 63.4135 122.5C61.3942 125.433 57.6923 129.471 54.5192 132.788ZM81.1058 222.692H76.8269C76.2019 222.692 75.7212 222.019 75.7212 221.202C75.7212 220.962 75.7692 220.769 75.8173 220.577C76.25 219.375 76.3462 217.981 76.3462 216.635L76.8269 178.846C76.8269 177.548 76.5385 176.298 76.2981 175C76.2981 174.904 76.25 174.808 76.25 174.712C76.25 174.038 76.6346 173.51 77.1635 173.51H80.625C81.1058 173.51 81.5385 174.038 81.5385 174.712C81.5385 174.808 81.5385 174.904 81.4904 175C81.25 176.25 81.0096 177.5 81.0096 178.75L81.4423 216.635C81.4423 217.981 81.5385 219.375 81.9712 220.529C82.0192 220.721 82.0673 220.913 82.0673 221.154C82.2115 222.019 81.7308 222.692 81.1058 222.692ZM109.135 30.8173C109.375 30.3365 109.471 29.7596 109.519 29.1827L111.298 13.6058C111.346 13.0769 111.298 12.5481 111.25 12.0192C111.25 11.9712 111.25 11.9231 111.25 11.875C111.298 11.5865 111.49 11.3942 111.683 11.3942H113.125C113.317 11.3942 113.462 11.6346 113.462 11.875C113.462 11.9231 113.462 11.9712 113.462 11.9712C113.317 12.5 113.173 12.9808 113.125 13.5096L111.731 29.0865C111.683 29.6154 111.635 30.1923 111.779 30.7212C111.779 30.8173 111.827 30.8654 111.779 30.9615C111.731 31.2981 111.538 31.5865 111.25 31.5865H109.471C109.231 31.5865 109.038 31.2981 109.087 30.9615C109.038 30.9615 109.087 30.8654 109.135 30.8173ZM104.231 65.1442C104.231 65.1442 96.5865 58.5577 93.0288 55.0962C102.26 55.8173 104.375 65 104.231 65.1442ZM103.654 65.5769C103.654 65.5769 93.5577 68.4615 88.75 69.2308C96.3462 63.4615 103.702 65.4327 103.654 65.5769ZM98.4615 174.712C98.4615 174.808 98.4135 174.904 98.4135 175C98.0769 176.25 97.6442 177.5 97.5481 178.75L94.1827 216.635C94.0865 217.981 93.9904 219.375 94.3269 220.529C94.375 220.721 94.375 220.913 94.375 221.154C94.2788 221.971 93.75 222.644 93.125 222.644H88.8462C88.2212 222.644 87.8365 221.971 87.8846 221.154C87.8846 220.913 87.9808 220.721 88.0769 220.529C88.6538 219.327 88.8462 217.933 89.0385 216.587L93.3654 178.798C93.5096 177.5 93.3654 176.25 93.2211 174.952C93.2211 174.856 93.2211 174.76 93.2211 174.663C93.2692 173.99 93.75 173.462 94.2308 173.462H97.6923C98.1731 173.51 98.5096 174.038 98.4615 174.712ZM102.596 130.481C102.596 130.577 102.548 130.673 102.548 130.721C102.26 131.827 101.875 132.885 101.779 133.99L98.8462 166.971C98.75 168.125 98.7019 169.327 98.9904 170.385C99.0385 170.529 99.0385 170.721 99.0385 170.962C98.9904 171.683 98.4615 172.26 97.9327 172.26H94.2308C93.7019 172.26 93.3173 171.683 93.4135 170.962C93.4135 170.769 93.5096 170.577 93.5577 170.385C94.0385 169.327 94.2308 168.125 94.375 166.971L98.125 134.087C98.2692 132.933 98.125 131.875 98.0288 130.769C98.0288 130.673 98.0288 130.577 98.0288 130.529C98.0769 129.952 98.5096 129.471 98.9423 129.471H101.971C102.356 129.423 102.644 129.856 102.596 130.481ZM106.25 91.7308C106.25 91.8269 106.25 91.875 106.202 91.9712C105.913 92.9327 105.625 93.8462 105.529 94.8077L102.981 123.558C102.885 124.567 102.837 125.625 103.077 126.538C103.125 126.683 103.125 126.827 103.125 127.019C103.077 127.644 102.644 128.125 102.163 128.125H98.9423C98.4615 128.125 98.1731 127.644 98.2212 127.019C98.2212 126.827 98.2692 126.683 98.3654 126.538C98.7981 125.625 98.9423 124.567 99.0865 123.558L102.356 94.9038C102.452 93.8942 102.356 92.9808 102.26 92.0192C102.26 91.9231 102.26 91.875 102.26 91.7788C102.308 91.25 102.644 90.8654 103.029 90.8654H105.673C106.01 90.8173 106.298 91.2019 106.25 91.7308ZM108.702 61.3462C108.606 61.6827 108.558 62.0192 108.51 62.3558L106.394 85.8173C106.298 86.6346 106.298 87.5 106.49 88.2212C106.538 88.3173 106.538 88.4615 106.538 88.6058C106.49 89.0865 106.154 89.5192 105.769 89.5192H103.125C102.74 89.5192 102.5 89.0865 102.548 88.6058C102.548 88.4615 102.596 88.3173 102.644 88.2212C102.981 87.5 103.125 86.6346 103.221 85.7692L105.673 64.1827C105.433 64.375 105.337 64.5192 105.337 64.5192C105.288 64.5192 105.481 64.0865 105.769 63.4135L105.865 62.4038C105.913 61.9712 105.913 61.5865 105.865 61.2019C105.144 63.2212 104.519 64.7115 104.519 64.7115C104.279 64.8077 104.375 57.2115 106.923 52.0673L108.798 35.6731C108.894 35 108.798 34.375 108.75 33.75C108.75 33.7019 108.75 33.6538 108.75 33.6058C108.798 33.2692 109.038 32.9808 109.279 32.9808H111.01C111.25 32.9808 111.442 33.2692 111.394 33.6058C111.394 33.6538 111.394 33.7019 111.346 33.75C111.154 34.375 110.962 35 110.913 35.625L109.231 54.7596C109.183 55.4327 109.135 56.1538 109.279 56.7308C109.327 56.8269 109.327 56.9231 109.279 57.0673C109.231 57.5 108.942 57.7885 108.654 57.7885H106.923C106.779 58.2211 106.683 58.6538 106.538 59.0865H108.365C110.337 56.4904 113.269 53.5577 117.308 52.0673C115.337 54.7115 111.49 58.6058 108.702 61.3462ZM140.433 16.7308C140.433 16.7308 135.096 14.2788 129.856 11.5865C129.952 11.6827 130.048 11.8269 130.048 11.9712C130.048 12.0192 130.048 12.0673 130.048 12.0673C129.904 12.5962 129.76 13.0769 129.76 13.6058L130.048 29.1827C130.048 29.7115 130.096 30.2885 130.385 30.8173C130.433 30.9135 130.433 30.9615 130.433 31.0577C130.433 31.3942 130.144 31.6827 129.808 31.6827H127.308C126.971 31.6827 126.683 31.3942 126.683 31.0577C126.683 30.9615 126.683 30.8654 126.731 30.8173C126.971 30.3365 127.019 29.7596 127.067 29.1827L127.356 13.6058C127.356 13.0769 127.212 12.5481 127.067 12.0192C127.067 11.9712 127.067 11.9231 127.067 11.875C127.067 11.5865 127.308 11.3942 127.596 11.3942H129.615C129.663 11.3942 129.712 11.3942 129.76 11.4423C127.115 10.0962 124.471 8.65385 122.644 7.5C134.471 7.40385 140.625 16.5865 140.433 16.7308ZM125.673 91.9712C125.673 91.875 125.625 91.8269 125.625 91.7308C125.625 91.2019 126.058 90.8173 126.587 90.8173H130.337C130.865 90.8173 131.298 91.25 131.298 91.7308C131.298 91.8269 131.298 91.875 131.25 91.9712C131.01 92.9327 130.721 93.8462 130.721 94.8077L131.202 123.558C131.202 124.567 131.298 125.625 131.779 126.538C131.875 126.683 131.923 126.827 131.923 127.019C131.923 127.644 131.394 128.125 130.721 128.125H126.106C125.433 128.125 124.904 127.644 124.904 127.019C124.904 126.827 124.952 126.683 125.048 126.538C125.529 125.625 125.625 124.567 125.625 123.558L126.154 94.9038C126.25 93.8461 125.913 92.9327 125.673 91.9712ZM126.202 60C126.202 59.9519 126.154 59.8558 126.154 59.8077C126.154 59.375 126.49 59.0385 126.923 59.0385H129.952C130.385 59.0385 130.721 59.375 130.721 59.8077C130.721 59.8558 130.721 59.9519 130.721 60C130.529 60.7692 130.288 61.5385 130.288 62.3077L130.673 85.7692C130.673 86.5865 130.769 87.4519 131.154 88.1731C131.202 88.2692 131.25 88.4135 131.25 88.5577C131.25 89.0385 130.817 89.4712 130.288 89.4712H126.538C126.01 89.4712 125.577 89.0385 125.577 88.5577C125.577 88.4135 125.625 88.2692 125.673 88.1731C126.058 87.4519 126.154 86.5865 126.154 85.7212L126.587 62.3558C126.683 61.5865 126.394 60.8173 126.202 60ZM126.635 33.75C126.635 33.7019 126.635 33.6538 126.635 33.6058C126.635 33.2692 126.923 32.9808 127.26 32.9808H129.76C130.096 32.9808 130.385 33.2692 130.385 33.6058C130.385 33.6538 130.385 33.7019 130.385 33.75C130.24 34.375 130.048 35 130.048 35.625L130.385 54.7596C130.385 55.4327 130.433 56.1538 130.769 56.7308C130.817 56.8269 130.865 56.9231 130.865 57.0673C130.865 57.5 130.529 57.7885 130.096 57.7885H127.019C126.587 57.7885 126.25 57.4519 126.25 57.0673C126.25 56.9711 126.298 56.8269 126.346 56.7308C126.683 56.1058 126.731 55.4327 126.731 54.7596L127.067 35.6731C127.019 35 126.779 34.375 126.635 33.75ZM125.24 130.721C125.24 130.625 125.192 130.529 125.192 130.481C125.192 129.904 125.673 129.423 126.298 129.423H130.577C131.202 129.423 131.683 129.904 131.683 130.481C131.683 130.577 131.683 130.673 131.635 130.721C131.346 131.827 131.01 132.885 131.058 133.99L131.635 166.971C131.635 168.125 131.731 169.327 132.308 170.385C132.404 170.529 132.452 170.721 132.452 170.962C132.452 171.683 131.827 172.26 131.106 172.26H125.817C125.048 172.26 124.471 171.683 124.471 170.962C124.471 170.769 124.519 170.577 124.615 170.385C125.144 169.327 125.288 168.125 125.288 166.971L125.913 134.087C125.913 132.933 125.577 131.827 125.24 130.721ZM131.538 222.692H125.481C124.615 222.692 123.942 222.019 123.942 221.202C123.942 220.962 123.99 220.769 124.087 220.577C124.712 219.375 124.856 217.981 124.856 216.635L125.529 178.846C125.529 177.548 125.144 176.298 124.808 175C124.76 174.904 124.76 174.808 124.76 174.712C124.76 174.038 125.337 173.51 126.058 173.51H131.01C131.731 173.51 132.308 174.038 132.308 174.712C132.308 174.808 132.308 174.904 132.26 175C131.923 176.25 131.538 177.5 131.587 178.75L132.212 216.635C132.212 217.981 132.356 219.375 132.981 220.529C133.077 220.721 133.125 220.913 133.125 221.154C133.077 222.019 132.356 222.692 131.538 222.692ZM171.827 29.5673C159.327 32.3558 151.01 21.4423 151.154 21.2019C151.154 21.1538 165.048 26.5385 171.827 29.5673ZM150.913 21.875C151.202 21.6827 156.635 33.5096 155.288 41.25C151.49 36.5385 150.913 21.875 150.913 21.875ZM149.038 123.51L147.981 94.8558C147.933 93.8462 147.692 92.9327 147.452 91.9712C147.452 91.875 147.404 91.8269 147.404 91.7308C147.356 91.2019 147.644 90.8173 148.029 90.8173H150.673C151.058 90.8173 151.394 91.25 151.394 91.7308C151.394 91.8269 151.394 91.875 151.394 91.9712C151.25 92.9327 151.106 93.8462 151.154 94.8077L152.933 123.558C152.981 124.567 153.125 125.625 153.51 126.538C153.558 126.683 153.606 126.827 153.606 127.019C153.654 127.644 153.269 128.125 152.837 128.125H149.615C149.135 128.125 148.75 127.644 148.702 127.019C148.702 126.827 148.702 126.683 148.75 126.538C149.038 125.577 149.038 124.567 149.038 123.51ZM150.913 166.971L149.663 134.087C149.615 132.933 149.327 131.875 149.038 130.769C149.038 130.673 148.99 130.577 148.99 130.529C148.942 129.952 149.279 129.471 149.712 129.471H152.74C153.173 129.471 153.558 129.952 153.558 130.529C153.558 130.625 153.558 130.721 153.558 130.769C153.413 131.875 153.221 132.933 153.317 134.038L155.385 167.019C155.481 168.173 155.577 169.375 156.01 170.433C156.058 170.577 156.106 170.769 156.154 171.01C156.202 171.731 155.769 172.308 155.24 172.308H151.538C151.01 172.308 150.529 171.731 150.529 171.01C150.529 170.817 150.529 170.625 150.577 170.433C150.962 169.327 150.962 168.125 150.913 166.971ZM158.125 222.692H153.846C153.221 222.692 152.692 222.019 152.692 221.202C152.692 220.962 152.692 220.769 152.788 220.577C153.173 219.375 153.173 217.981 153.125 216.635L151.683 178.846C151.635 177.548 151.298 176.298 150.962 175C150.962 174.904 150.913 174.808 150.913 174.712C150.865 174.038 151.25 173.51 151.731 173.51H155.192C155.673 173.51 156.106 174.038 156.154 174.712C156.154 174.808 156.154 174.904 156.154 175C156.01 176.25 155.769 177.5 155.865 178.75L158.221 216.635C158.317 217.981 158.462 219.375 158.942 220.529C159.038 220.721 159.087 220.913 159.087 221.154C159.183 222.019 158.702 222.692 158.125 222.692ZM153.221 47.1635C153.221 47.1635 159.615 54.5673 162.5 58.4135C153.558 56.3942 153.029 47.2596 153.221 47.1635ZM153.846 46.7788C153.846 46.7788 164.183 45.4327 169.038 45.3846C160.625 49.8558 153.75 46.9231 153.846 46.7788ZM180.144 174.712C180.144 174.808 180.096 174.904 180.096 175C179.76 176.25 179.327 177.5 179.231 178.75L175.865 216.635C175.769 217.981 175.673 219.375 176.01 220.529C176.058 220.721 176.058 220.913 176.058 221.154C175.962 221.971 175.433 222.644 174.808 222.644H170.529C169.904 222.644 169.519 221.971 169.567 221.154C169.567 220.913 169.663 220.721 169.76 220.529C170.337 219.327 170.529 217.933 170.721 216.587L175.048 178.798C175.192 177.5 175.048 176.25 174.904 174.952C174.904 174.856 174.904 174.76 174.904 174.663C174.952 173.99 175.433 173.462 175.913 173.462H179.375C179.904 173.51 180.24 174.038 180.144 174.712ZM184.327 130.481C184.327 130.577 184.279 130.673 184.279 130.721C183.99 131.827 183.606 132.885 183.51 133.99L180.577 166.971C180.481 168.125 180.433 169.327 180.721 170.385C180.769 170.529 180.769 170.721 180.769 170.962C180.721 171.683 180.192 172.26 179.663 172.26H175.962C175.433 172.26 175.048 171.683 175.144 170.962C175.144 170.769 175.24 170.577 175.288 170.385C175.769 169.327 175.962 168.125 176.106 166.971L179.856 134.087C180 132.933 179.856 131.875 179.76 130.769C179.76 130.673 179.76 130.577 179.76 130.529C179.808 129.952 180.24 129.471 180.673 129.471H183.702C184.038 129.423 184.375 129.856 184.327 130.481ZM187.933 91.7308C187.933 91.8269 187.933 91.875 187.885 91.9712C187.596 92.9327 187.308 93.8462 187.212 94.8077L184.663 123.558C184.567 124.567 184.519 125.625 184.76 126.538C184.808 126.683 184.808 126.827 184.808 127.019C184.76 127.644 184.327 128.125 183.846 128.125H180.625C180.144 128.125 179.856 127.644 179.904 127.019C179.904 126.827 179.952 126.683 180.048 126.538C180.481 125.625 180.625 124.567 180.769 123.558L184.038 94.9038C184.135 93.8942 184.038 92.9808 183.942 92.0192C183.942 91.9231 183.942 91.875 183.942 91.7788C183.99 91.25 184.327 90.8654 184.712 90.8654H187.356C187.74 90.8173 187.981 91.2019 187.933 91.7308ZM190.769 59.8558C190.769 59.9038 190.769 60 190.721 60.0481C190.481 60.8173 190.24 61.5865 190.192 62.3558L188.077 85.8173C187.981 86.6346 187.981 87.5 188.173 88.2212C188.221 88.3173 188.221 88.4615 188.221 88.6058C188.173 89.0865 187.837 89.5192 187.452 89.5192H184.808C184.423 89.5192 184.183 89.0865 184.231 88.6058C184.231 88.4615 184.279 88.3173 184.327 88.2212C184.663 87.5 184.808 86.6346 184.904 85.7692L187.596 62.4038C187.692 61.5865 187.596 60.8173 187.5 60.0481C187.5 60 187.5 59.9038 187.5 59.8558C187.548 59.4231 187.837 59.0865 188.125 59.0865H190.288C190.625 59.0865 190.817 59.4231 190.769 59.8558ZM193.125 33.75C192.933 34.375 192.74 35 192.692 35.625L191.01 54.7596C190.962 55.4327 190.913 56.1538 191.058 56.7308C191.106 56.8269 191.106 56.9231 191.058 57.0673C191.01 57.5 190.721 57.7885 190.433 57.7885H188.269C187.981 57.7885 187.74 57.4519 187.788 57.0673C187.788 56.9711 187.837 56.8269 187.885 56.7308C188.173 56.1058 188.269 55.4327 188.365 54.7596L190.529 35.6731C190.625 35 190.529 34.375 190.481 33.75C190.481 33.7019 190.481 33.6538 190.481 33.6058C190.529 33.2692 190.769 32.9808 191.01 32.9808H192.74C192.981 32.9808 193.173 33.2692 193.125 33.6058C193.125 33.6538 193.125 33.7019 193.125 33.75ZM204.038 56.7308C204.375 56.1058 204.423 55.4327 204.423 54.7596L204.76 35.6731C204.76 35 204.567 34.375 204.375 33.75C204.375 33.7019 204.375 33.6538 204.375 33.6058C204.375 33.2692 204.663 32.9808 205 32.9808H207.5C207.837 32.9808 208.125 33.2692 208.125 33.6058C208.125 33.6538 208.125 33.7019 208.125 33.75C207.981 34.375 207.788 35 207.788 35.625L208.125 54.7596C208.125 55.4327 208.173 56.1538 208.51 56.7308C208.558 56.8269 208.606 56.9231 208.606 57.0673C208.606 57.5 208.269 57.7885 207.837 57.7885H204.76C204.327 57.7885 203.99 57.4519 203.99 57.0673C203.942 56.9231 203.99 56.8269 204.038 56.7308ZM208.894 172.212H203.606C203.317 172.212 203.077 172.115 202.885 172.019C202.692 172.163 202.452 172.212 202.26 172.212H197.74C197.115 172.212 196.635 171.635 196.731 170.913C196.779 170.721 196.827 170.529 196.923 170.337C197.548 169.279 197.74 168.077 197.933 166.923L202.5 134.038C202.644 132.885 202.5 131.827 202.356 130.721C202.356 130.625 202.356 130.529 202.356 130.481C202.404 129.904 202.933 129.423 203.462 129.423H208.413C209.038 129.423 209.519 129.904 209.519 130.481C209.519 130.577 209.519 130.673 209.471 130.721C209.183 131.827 208.846 132.885 208.894 133.99L209.471 166.971C209.471 168.125 209.567 169.327 210.144 170.385C210.24 170.529 210.288 170.721 210.288 170.962C210.24 171.635 209.663 172.212 208.894 172.212ZM212.356 91.7308C212.356 91.8269 212.308 91.875 212.308 91.9712C211.971 92.9327 211.635 93.8462 211.49 94.8077L208.942 118.173L209.038 123.558C209.038 124.567 209.135 125.625 209.615 126.538C209.712 126.683 209.76 126.827 209.76 127.019C209.76 127.644 209.231 128.125 208.558 128.125H203.462C202.885 128.125 202.5 127.644 202.596 127.019C202.596 126.827 202.692 126.683 202.74 126.538C203.077 125.962 203.269 125.288 203.413 124.663C203.462 124.279 203.462 123.942 203.462 123.558L203.99 94.9038C203.99 93.8942 203.702 92.9808 203.413 92.0192C203.413 91.9231 203.365 91.875 203.365 91.7788C203.365 91.25 203.798 90.8654 204.327 90.8654H208.077C208.125 90.8654 208.173 90.8654 208.221 90.9135C208.269 90.9135 208.317 90.8654 208.365 90.8654H211.587C212.067 90.8173 212.404 91.2019 212.356 91.7308ZM222.5 72.7404C218.317 71.7788 215.962 69.2788 214.663 66.875L212.596 85.8173C212.5 86.6346 212.452 87.5 212.692 88.2212C212.74 88.3173 212.74 88.4615 212.74 88.6058C212.692 89.0865 212.26 89.5192 211.779 89.5192H208.558C208.51 89.5192 208.413 89.4712 208.365 89.4712C208.269 89.4712 208.221 89.5192 208.125 89.5192H204.375C203.846 89.5192 203.413 89.0865 203.413 88.6058C203.413 88.4615 203.462 88.3173 203.51 88.2212C203.894 87.5 203.99 86.6346 203.99 85.7692L204.279 69.6154C202.5 70.7212 200.433 71.6827 198.125 72.1635C199.663 70.7212 202.019 68.9423 204.327 67.2115L204.423 62.4038C204.423 61.5865 204.183 60.8173 203.99 60.0481C203.99 60 203.942 59.9038 203.942 59.8558C203.942 59.4231 204.279 59.0865 204.712 59.0865H207.74C208.173 59.0865 208.51 59.4231 208.51 59.8558C208.51 59.9038 208.51 60 208.51 60.0481C208.317 60.8173 208.077 61.5865 208.077 62.3558L208.125 64.5192C210.337 62.9808 211.923 61.9231 211.923 61.9231C211.971 61.9712 210.625 64.1827 208.173 66.5865L208.221 70.3846C209.231 67.7885 210.769 65.0481 211.779 63.4135L211.923 62.4519C212.019 61.6346 211.923 60.8654 211.827 60.0962C211.827 60.0481 211.827 59.9519 211.827 59.9038C211.875 59.4712 212.212 59.1346 212.596 59.1346H215.192C215.577 59.1346 215.817 59.4712 215.769 59.9038C215.769 59.9519 215.769 60.0481 215.721 60.0962C215.625 60.3846 215.529 60.6731 215.433 60.9615C218.558 60.5769 225.337 59.8077 228.99 59.7596C222.885 63.0288 217.644 62.3558 215.24 61.6827C215.192 61.9231 215.144 62.1154 215.096 62.3558L214.952 63.6058C217.115 66.0577 220.529 70.1923 222.5 72.7404ZM236.827 123.51L235.769 94.8558C235.721 93.8462 235.481 92.9327 235.24 91.9712C235.24 91.875 235.192 91.8269 235.192 91.7308C235.144 91.2019 235.433 90.8173 235.817 90.8173H238.462C238.846 90.8173 239.183 91.25 239.183 91.7308C239.183 91.8269 239.183 91.875 239.183 91.9712C239.038 92.9327 238.894 93.8462 238.942 94.8077L240.721 123.558C240.769 124.567 240.913 125.625 241.298 126.538C241.346 126.683 241.394 126.827 241.394 127.019C241.442 127.644 241.058 128.125 240.625 128.125H237.404C236.923 128.125 236.538 127.644 236.49 127.019C236.49 126.827 236.49 126.683 236.538 126.538C236.875 125.577 236.875 124.567 236.827 123.51Z" fill="#98D531"/>
<path d="M208.51 85.7692C208.51 86.0096 208.51 86.25 208.558 86.4904C208.606 86.25 208.654 86.0096 208.702 85.7212L211.154 68.125C210.433 70 209.519 71.9712 208.317 73.6058L208.51 85.7692Z" fill="#98D531"/>
</g>
</svg>
