<svg width="490" height="530" viewBox="0 0 490 530" fill="none" xmlns="http://www.w3.org/2000/svg">
<g id="PIE CHART 1">
<path id="Vector" d="M245 490C369.264 490 470 389.264 470 265C470 140.736 369.264 40 245 40C120.736 40 20 140.736 20 265C20 389.264 120.736 490 245 490Z" fill="#699027"/>
<path id="Vector_2" fill-rule="evenodd" clip-rule="evenodd" d="M245 500C374.787 500 480 394.787 480 265C480 135.213 374.787 30 245 30V500Z" fill="#C64C26"/>
<g id="Group" filter="url(#filter0_i_13_2)">
<path id="Vector_3" fill-rule="evenodd" clip-rule="evenodd" d="M389.894 67.4175L245 265V20C299.213 20 349.313 37.6082 389.894 67.4175Z" fill="#85B02A"/>
</g>
<g id="Group_2" filter="url(#filter1_i_13_2)">
<path id="Vector_4" fill-rule="evenodd" clip-rule="evenodd" d="M106.02 454.518L245 265V500C193 500 144.945 483.11 106.02 454.518Z" fill="#31A379"/>
</g>
<g id="Group_3" filter="url(#filter2_i_13_2)">
<path id="Vector_5" fill-rule="evenodd" clip-rule="evenodd" d="M245 510V265L389.894 462.582C349.313 492.392 299.213 510 245 510Z" fill="#FB9C1C"/>
</g>
<g id="Group_4" filter="url(#filter3_i_13_2)">
<path id="Vector_6" d="M245 470C358.218 470 450 378.218 450 265C450 151.782 358.218 60 245 60C131.782 60 40 151.782 40 265C40 378.218 131.782 470 245 470Z" fill="white" fill-opacity="0.01"/>
</g>
<g id="center2" opacity="0.5" filter="url(#filter4_i_13_2)">
<path id="Vector_7" opacity="0.5" d="M245 365C300.228 365 345 320.228 345 265C345 209.772 300.228 165 245 165C189.772 165 145 209.772 145 265C145 320.228 189.772 365 245 365Z" fill="white"/>
</g>
<g id="center" opacity="0.9" filter="url(#filter5_i_13_2)">
<path id="Vector_8" opacity="0.9" d="M245 340C286.421 340 320 306.421 320 265C320 223.579 286.421 190 245 190C203.579 190 170 223.579 170 265C170 306.421 203.579 340 245 340Z" fill="white"/>
</g>
</g>
<defs>
<filter id="filter0_i_13_2" x="245" y="20" width="144.894" height="245" filterUnits="userSpaceOnUse" color-interpolation-filters="sRGB">
<feFlood flood-opacity="0" result="BackgroundImageFix"/>
<feBlend mode="normal" in="SourceGraphic" in2="BackgroundImageFix" result="shape"/>
<feColorMatrix in="SourceAlpha" type="matrix" values="0 0 0 0 0 0 0 0 0 0 0 0 0 0 0 0 0 0 127 0" result="hardAlpha"/>
<feOffset/>
<feGaussianBlur stdDeviation="10"/>
<feComposite in2="hardAlpha" operator="arithmetic" k2="-1" k3="1"/>
<feColorMatrix type="matrix" values="0 0 0 0 0 0 0 0 0 0 0 0 0 0 0 0 0 0 0.25 0"/>
<feBlend mode="normal" in2="shape" result="effect1_innerShadow_13_2"/>
</filter>
<filter id="filter1_i_13_2" x="106.02" y="265" width="138.98" height="235" filterUnits="userSpaceOnUse" color-interpolation-filters="sRGB">
<feFlood flood-opacity="0" result="BackgroundImageFix"/>
<feBlend mode="normal" in="SourceGraphic" in2="BackgroundImageFix" result="shape"/>
<feColorMatrix in="SourceAlpha" type="matrix" values="0 0 0 0 0 0 0 0 0 0 0 0 0 0 0 0 0 0 127 0" result="hardAlpha"/>
<feOffset/>
<feGaussianBlur stdDeviation="10"/>
<feComposite in2="hardAlpha" operator="arithmetic" k2="-1" k3="1"/>
<feColorMatrix type="matrix" values="0 0 0 0 0 0 0 0 0 0 0 0 0 0 0 0 0 0 0.25 0"/>
<feBlend mode="normal" in2="shape" result="effect1_innerShadow_13_2"/>
</filter>
<filter id="filter2_i_13_2" x="245" y="265" width="144.894" height="245" filterUnits="userSpaceOnUse" color-interpolation-filters="sRGB">
<feFlood flood-opacity="0" result="BackgroundImageFix"/>
<feBlend mode="normal" in="SourceGraphic" in2="BackgroundImageFix" result="shape"/>
<feColorMatrix in="SourceAlpha" type="matrix" values="0 0 0 0 0 0 0 0 0 0 0 0 0 0 0 0 0 0 127 0" result="hardAlpha"/>
<feOffset/>
<feGaussianBlur stdDeviation="10"/>
<feComposite in2="hardAlpha" operator="arithmetic" k2="-1" k3="1"/>
<feColorMatrix type="matrix" values="0 0 0 0 0 0 0 0 0 0 0 0 0 0 0 0 0 0 0.25 0"/>
<feBlend mode="normal" in2="shape" result="effect1_innerShadow_13_2"/>
</filter>
<filter id="filter3_i_13_2" x="40" y="60" width="410" height="410" filterUnits="userSpaceOnUse" color-interpolation-filters="sRGB">
<feFlood flood-opacity="0" result="BackgroundImageFix"/>
<feBlend mode="normal" in="SourceGraphic" in2="BackgroundImageFix" result="shape"/>
<feColorMatrix in="SourceAlpha" type="matrix" values="0 0 0 0 0 0 0 0 0 0 0 0 0 0 0 0 0 0 127 0" result="hardAlpha"/>
<feOffset/>
<feGaussianBlur stdDeviation="2"/>
<feComposite in2="hardAlpha" operator="arithmetic" k2="-1" k3="1"/>
<feColorMatrix type="matrix" values="0 0 0 0 0 0 0 0 0 0 0 0 0 0 0 0 0 0 0.05 0"/>
<feBlend mode="normal" in2="shape" result="effect1_innerShadow_13_2"/>
</filter>
<filter id="filter4_i_13_2" x="145" y="165" width="200" height="200" filterUnits="userSpaceOnUse" color-interpolation-filters="sRGB">
<feFlood flood-opacity="0" result="BackgroundImageFix"/>
<feBlend mode="normal" in="SourceGraphic" in2="BackgroundImageFix" result="shape"/>
<feColorMatrix in="SourceAlpha" type="matrix" values="0 0 0 0 0 0 0 0 0 0 0 0 0 0 0 0 0 0 127 0" result="hardAlpha"/>
<feOffset/>
<feGaussianBlur stdDeviation="2"/>
<feComposite in2="hardAlpha" operator="arithmetic" k2="-1" k3="1"/>
<feColorMatrix type="matrix" values="0 0 0 0 0 0 0 0 0 0 0 0 0 0 0 0 0 0 0.05 0"/>
<feBlend mode="normal" in2="shape" result="effect1_innerShadow_13_2"/>
</filter>
<filter id="filter5_i_13_2" x="170" y="190" width="150" height="150" filterUnits="userSpaceOnUse" color-interpolation-filters="sRGB">
<feFlood flood-opacity="0" result="BackgroundImageFix"/>
<feBlend mode="normal" in="SourceGraphic" in2="BackgroundImageFix" result="shape"/>
<feColorMatrix in="SourceAlpha" type="matrix" values="0 0 0 0 0 0 0 0 0 0 0 0 0 0 0 0 0 0 127 0" result="hardAlpha"/>
<feOffset/>
<feGaussianBlur stdDeviation="10"/>
<feComposite in2="hardAlpha" operator="arithmetic" k2="-1" k3="1"/>
<feColorMatrix type="matrix" values="0 0 0 0 0 0 0 0 0 0 0 0 0 0 0 0 0 0 0.1 0"/>
<feBlend mode="normal" in2="shape" result="effect1_innerShadow_13_2"/>
</filter>
</defs>
</svg>
