<svg width="210" height="10" viewBox="0 0 210 10" fill="none" xmlns="http://www.w3.org/2000/svg">
<g opacity="0.25">
<path d="M10 5C10 7.76142 7.76142 10 5 10C2.23858 10 0 7.76142 0 5C0 2.23858 2.23858 0 5 0C7.76142 0 10 2.23858 10 5Z" fill="#98D431"/>
<path d="M30 5C30 7.76142 27.7614 10 25 10C22.2386 10 20 7.76142 20 5C20 2.23858 22.2386 0 25 0C27.7614 0 30 2.23858 30 5Z" fill="#98D431"/>
<path d="M50 5C50 7.76142 47.7614 10 45 10C42.2386 10 40 7.76142 40 5C40 2.23858 42.2386 0 45 0C47.7614 0 50 2.23858 50 5Z" fill="#98D431"/>
<path d="M70 5C70 7.76142 67.7614 10 65 10C62.2386 10 60 7.76142 60 5C60 2.23858 62.2386 0 65 0C67.7614 0 70 2.23858 70 5Z" fill="#98D431"/>
<path d="M90 5C90 7.76142 87.7614 10 85 10C82.2386 10 80 7.76142 80 5C80 2.23858 82.2386 0 85 0C87.7614 0 90 2.23858 90 5Z" fill="#98D431"/>
<path d="M110 5C110 7.76142 107.761 10 105 10C102.239 10 100 7.76142 100 5C100 2.23858 102.239 0 105 0C107.761 0 110 2.23858 110 5Z" fill="#98D431"/>
<path d="M130 5C130 7.76142 127.761 10 125 10C122.239 10 120 7.76142 120 5C120 2.23858 122.239 0 125 0C127.761 0 130 2.23858 130 5Z" fill="#98D431"/>
<path d="M150 5C150 7.76142 147.761 10 145 10C142.239 10 140 7.76142 140 5C140 2.23858 142.239 0 145 0C147.761 0 150 2.23858 150 5Z" fill="#98D431"/>
<path d="M170 5C170 7.76142 167.761 10 165 10C162.239 10 160 7.76142 160 5C160 2.23858 162.239 0 165 0C167.761 0 170 2.23858 170 5Z" fill="#98D431"/>
<path d="M190 5C190 7.76142 187.761 10 185 10C182.239 10 180 7.76142 180 5C180 2.23858 182.239 0 185 0C187.761 0 190 2.23858 190 5Z" fill="#98D431"/>
<path d="M210 5C210 7.76142 207.761 10 205 10C202.239 10 200 7.76142 200 5C200 2.23858 202.239 0 205 0C207.761 0 210 2.23858 210 5Z" fill="#98D431"/>
</g>
</svg>
