<svg width="60" height="60" viewBox="0 0 60 60" fill="none" xmlns="http://www.w3.org/2000/svg">
<g style="fill:none; stroke: #98D431" clip-path="url(#clip0_44_941)">
<path d="M30 0C28.2329 0 26.4767 0.234556 24.7802 0.697358C24.121 0.87711 23.7324 1.55727 23.9122 2.2164C24.0919 2.87566 24.7727 3.26436 25.4311 3.08436C26.9155 2.67945 28.4527 2.47422 30 2.47422C39.55 2.47422 47.3195 10.2438 47.3195 19.7937C47.3195 28.6674 43.781 32.1331 40.6593 35.1909C38.6261 37.1822 36.6938 39.0768 36.2716 42.0618H23.7283C23.3061 39.0768 21.3739 37.1822 19.3407 35.1909C16.219 32.1331 12.6805 28.6674 12.6805 19.7937C12.6805 15.7035 14.1336 11.7336 16.7722 8.61522C17.2135 8.09366 17.1485 7.31304 16.6268 6.87177C16.1054 6.43037 15.3247 6.49544 14.8834 7.017C11.8673 10.5815 10.2062 15.1191 10.2062 19.7937C10.2062 29.7073 14.3111 33.7279 17.6095 36.9586C19.4874 38.7979 20.9127 40.1953 21.2587 42.2851C19.6877 42.8323 18.5567 44.3273 18.5567 46.0825C18.5567 47.8679 19.7268 49.3844 21.3402 49.9075V52.5775H21.0311C20.3479 52.5775 19.794 53.1313 19.794 53.8146C19.794 54.4978 20.3479 55.0517 21.0311 55.0517H21.3402V56.2888C21.3402 58.3352 23.0051 60.0001 25.0515 60.0001H34.9484C36.9948 60.0001 38.6597 58.3352 38.6597 56.2888V55.0517H38.969C39.6521 55.0517 40.2061 54.4978 40.2061 53.8146C40.2061 53.1313 39.6521 52.5775 38.969 52.5775H38.6597V49.9075C40.2732 49.3845 41.4432 47.8679 41.4432 46.0825C41.4432 44.3274 40.3123 42.8323 38.7413 42.2851C39.0873 40.1953 40.5125 38.7979 42.3905 36.9586C45.6889 33.728 49.7937 29.7074 49.7937 19.7937C49.7937 8.87947 40.9144 0 30 0ZM36.1855 56.2887C36.1855 56.9708 35.6305 57.5258 34.9484 57.5258H25.0515C24.3694 57.5258 23.8144 56.9708 23.8144 56.2887V55.0516H36.1855V56.2887ZM23.8144 52.5775V50.1031H36.1855V52.5775H23.8144ZM37.4226 47.6288H22.5773C21.7246 47.6288 21.0309 46.9352 21.0309 46.0824C21.0309 45.2297 21.7246 44.536 22.5773 44.536H37.4226C38.2754 44.536 38.969 45.2298 38.969 46.0824C38.969 46.9352 38.2754 47.6288 37.4226 47.6288Z" fill="#98D431"/>
<path d="M5.25757 21.0308C5.9407 21.0308 6.49467 20.477 6.49467 19.7937C6.49467 19.1105 5.9407 18.5566 5.25757 18.5566H2.41234C1.72921 18.5566 1.17523 19.1105 1.17523 19.7937C1.17523 20.477 1.72921 21.0308 2.41234 21.0308H5.25757Z" fill="#98D431"/>
<path d="M7.95384 31.0937L3.02569 33.939C2.43398 34.2806 2.23122 35.0372 2.57291 35.6289C2.80215 36.0258 3.21782 36.2477 3.64548 36.2477C3.8553 36.2477 4.06808 36.1942 4.2628 36.0817L9.19095 33.2364C9.78265 32.8948 9.98542 32.1382 9.64373 31.5465C9.30216 30.9549 8.54567 30.752 7.95384 31.0937Z" fill="#98D431"/>
<path d="M56.9743 33.9388L52.0461 31.0935C51.4543 30.7518 50.6977 30.9546 50.3562 31.5462C50.0145 32.1379 50.2173 32.8946 50.809 33.2361L55.7372 36.0815C55.932 36.1941 56.1447 36.2475 56.3545 36.2475C56.782 36.2475 57.1979 36.0256 57.4271 35.6287C57.7688 35.0371 57.566 34.2805 56.9743 33.9388Z" fill="#98D431"/>
<path d="M57.5876 18.5566H54.7424C54.0592 18.5566 53.5052 19.1105 53.5052 19.7937C53.5052 20.477 54.0592 21.0308 54.7424 21.0308H57.5876C58.2707 21.0308 58.8247 20.477 58.8247 19.7937C58.8247 19.1105 58.2707 18.5566 57.5876 18.5566Z" fill="#98D431"/>
<path d="M51.4288 8.65979C51.6386 8.65979 51.8514 8.60622 52.0461 8.49377L56.9743 5.64842C57.566 5.30686 57.7688 4.55024 57.4271 3.95853C57.0854 3.36695 56.329 3.16419 55.7372 3.50575L50.809 6.3511C50.2173 6.69266 50.0145 7.44928 50.3562 8.04099C50.5853 8.43797 51.0011 8.65979 51.4288 8.65979Z" fill="#98D431"/>
<path d="M9.19095 6.35124L4.2628 3.50589C3.67084 3.16407 2.91448 3.36696 2.57291 3.95867C2.23122 4.55038 2.43398 5.30699 3.02569 5.64856L7.95384 8.49391C8.14868 8.60636 8.36134 8.65993 8.57115 8.65993C8.9987 8.65993 9.41462 8.43799 9.64373 8.04113C9.98542 7.44942 9.78265 6.6928 9.19095 6.35124Z" fill="#98D431"/>
<path d="M34.0494 26.8864C34.5765 26.0942 35.6026 25.0324 36.5369 24.0982C37.4048 23.2302 38.0861 22.2124 38.5621 21.0729C39.0373 19.9354 39.2782 18.738 39.2782 17.5142C39.2782 15.0361 38.313 12.7061 36.5604 10.9535C34.8078 9.20091 32.4779 8.23584 29.9999 8.23584C27.5218 8.23584 25.192 9.20103 23.4394 10.9535C21.6867 12.7061 20.7216 15.0361 20.7216 17.5142C20.7216 19.5606 22.3865 21.2255 24.4329 21.2255C26.4793 21.2255 28.1442 19.5606 28.1442 17.5142C28.1442 17.0182 28.3372 16.5522 28.6877 16.2018C29.038 15.8515 29.504 15.6585 29.9999 15.6585C30.4957 15.6585 30.9617 15.8515 31.3122 16.2018C31.6625 16.5522 31.8555 17.0182 31.8555 17.5142C31.8555 17.766 31.809 18.0052 31.7172 18.2249C31.6237 18.4487 31.4794 18.659 31.2886 18.85C29.6018 20.5368 28.612 21.6784 27.8724 22.7902C26.7919 24.414 26.2885 25.9548 26.2885 27.639C26.2885 28.5889 26.6477 29.4562 27.2367 30.1134C26.6475 30.7706 26.2885 31.6382 26.2885 32.5886C26.2885 34.635 27.9534 36.2999 29.9999 36.2999C32.0463 36.2999 33.7112 34.635 33.7112 32.5886V32.5877C33.7112 31.6378 33.3521 30.7705 32.7631 30.1134C33.3521 29.4562 33.7112 28.5889 33.7112 27.639C33.7113 27.5277 33.7701 27.3065 34.0494 26.8864ZM29.9324 24.1609C30.5752 23.1945 31.4751 22.1628 33.0383 20.5995C33.4583 20.1794 33.7821 19.7014 34.0003 19.1787C34.2189 18.6554 34.3297 18.0953 34.3297 17.5143C34.3297 16.3575 33.8793 15.27 33.0617 14.4524C32.2441 13.6347 31.1568 13.1844 29.9999 13.1844C28.8429 13.1844 27.7556 13.6347 26.9381 14.4524C26.1204 15.27 25.67 16.3575 25.67 17.5143C25.67 18.1964 25.115 18.7514 24.4329 18.7514C23.7507 18.7514 23.1958 18.1964 23.1958 17.5143C23.1958 15.6971 23.9036 13.9885 25.1889 12.7033C26.4741 11.4181 28.1827 10.7102 29.9999 10.7102C31.817 10.7102 33.5256 11.4181 34.8109 12.7033C36.0962 13.9885 36.804 15.6971 36.804 17.5143C36.804 18.4091 36.6273 19.2856 36.279 20.1194C35.928 20.9599 35.4259 21.7099 34.7873 22.3488C33.3216 23.8142 32.5112 24.7318 31.9894 25.5159C31.4761 26.2875 31.237 26.9622 31.237 27.6391C31.237 28.3213 30.682 28.8762 29.9999 28.8762C29.3177 28.8762 28.7628 28.3213 28.7628 27.6391C28.7629 26.449 29.1236 25.3763 29.9324 24.1609ZM31.2371 32.5886C31.2371 33.2707 30.6821 33.8257 30 33.8257C29.3178 33.8257 28.7629 33.2707 28.7629 32.5877C28.7629 31.9056 29.3178 31.3506 30 31.3506C30.6821 31.3506 31.2371 31.9056 31.2371 32.5877V32.5886Z" fill="#98D431"/>
<path d="M20.0165 5.38608C20.6997 5.38608 21.2536 4.83223 21.2536 4.14897C21.2536 3.46572 20.6997 2.91187 20.0165 2.91187H20.0155C19.3324 2.91187 18.7789 3.46572 18.7789 4.14897C18.7789 4.83223 19.3333 5.38608 20.0165 5.38608Z" fill="#98D431"/>
</g>
<defs>
<clipPath id="clip0_44_941">
<rect width="60" height="60" fill="white"/>
</clipPath>
</defs>
</svg>
