<svg width="60" height="60" viewBox="0 0 60 60" fill="none" xmlns="http://www.w3.org/2000/svg">
<g style="fill:none; stroke: #98D431">
<path d="M55.9373 20.9119H55.0169V15.7755C55.0169 14.0932 53.6472 12.7246 51.9637 12.7246H33.5499C31.8664 12.7246 30.4968 14.0932 30.4968 15.7813C30.4968 15.7874 30.4968 15.7935 30.4969 15.7994L30.4972 22.123C30.4972 22.7702 31.0218 23.2949 31.669 23.2949H33.7613C34.7091 23.2949 35.4803 24.0645 35.4803 25.0104C35.4803 25.9564 34.7091 26.7259 33.7613 26.7259H31.669C31.0218 26.7259 30.4972 27.2507 30.4972 27.8978V34.2002C30.4972 34.2069 30.4972 34.2137 30.4973 34.2205C30.5022 34.5017 30.5458 34.774 30.623 35.0322C30.3575 34.9565 30.0773 34.9158 29.7877 34.9157H23.4718C22.8246 34.9157 22.2999 35.4405 22.2999 36.0876V38.1748C22.2999 39.1206 21.5287 39.8903 20.5809 39.8903C19.6331 39.8903 18.862 39.1207 18.862 38.1748V36.0876C18.862 35.4405 18.3373 34.9157 17.6901 34.9157H11.3731C9.82283 34.9163 8.51947 36.0783 8.34123 37.6187C8.33607 37.6635 8.3335 37.7085 8.3335 37.7534V56.5813C8.3335 56.6264 8.33607 56.6714 8.34123 56.7161C8.51936 58.2543 9.82318 59.4141 11.374 59.4141H29.7878C30.5098 59.4141 31.174 59.1624 31.6973 58.7423C32.2129 59.1385 32.8564 59.3748 33.55 59.3748H51.9638C53.6473 59.3748 55.017 58.0062 55.017 56.324V52.7788C55.017 52.1317 54.4924 51.6069 53.8451 51.6069C53.1979 51.6069 52.6733 52.1317 52.6733 52.7788V56.324C52.6733 56.7139 52.355 57.0311 51.9638 57.0311H33.5499C33.1681 57.0311 32.8517 56.7238 32.8409 56.3447V51.2268H33.7613C36.0016 51.2268 37.8241 49.4058 37.8241 47.1675C37.8241 44.9293 36.0016 43.1083 33.7613 43.1083H32.8409V37.9718C32.8409 37.9577 32.8408 37.9436 32.8406 37.9295C32.8422 37.5381 33.1598 37.2203 33.5499 37.2203H38.694V38.1355C38.694 40.3739 40.5165 42.1949 42.7567 42.1949C44.997 42.1949 46.8195 40.3739 46.8195 38.1355V37.2203H51.9636C52.3547 37.2203 52.673 37.5399 52.673 37.9326V42.1835C52.673 42.8307 53.1977 43.3554 53.8449 43.3554C54.4921 43.3554 55.0168 42.8307 55.0168 42.1835V37.9326C55.0168 37.2225 54.7736 36.5683 54.3663 36.0489C54.7736 35.5299 55.0168 34.8762 55.0168 34.1668V29.0303H55.9372C58.1774 29.0303 59.9999 27.2093 59.9999 24.9711C59.9999 22.7328 58.1776 20.9119 55.9373 20.9119ZM33.7613 45.452C34.7091 45.452 35.4803 46.2216 35.4803 47.1675C35.4803 48.1135 34.7091 48.883 33.7613 48.883H31.669C31.0218 48.883 30.4972 49.4078 30.4972 50.0549V56.3632C30.4972 56.7531 30.1789 57.0703 29.7877 57.0703H11.374C11.031 57.0703 10.7401 56.8275 10.6772 56.4975V37.8372C10.7402 37.5045 11.0312 37.2596 11.374 37.2594H16.5182V38.1748C16.5182 40.4131 18.3407 42.2341 20.5809 42.2341C22.8212 42.2341 24.6437 40.4131 24.6437 38.1748V37.2594H29.7879C30.1744 37.2596 30.4897 37.5718 30.497 37.9581L30.4972 44.2801C30.4972 44.9273 31.0218 45.452 31.669 45.452H33.7613ZM55.9373 26.6867H53.845C53.1978 26.6867 52.6731 27.2114 52.6731 27.8586V34.1669C52.6731 34.5583 52.3549 34.8767 51.9637 34.8767H45.6478C45.0005 34.8767 44.4759 35.4014 44.4759 36.0486V38.1357C44.4759 39.0816 43.7047 39.8513 42.7569 39.8513C41.809 39.8513 41.0378 39.0817 41.0378 38.1357V36.0486C41.0378 35.4014 40.5132 34.8767 39.866 34.8767H33.55C33.1682 34.8767 32.8518 34.5682 32.841 34.1876V29.0697H33.7614C36.0017 29.0697 37.8242 27.2487 37.8242 25.0104C37.8242 22.7721 36.0017 20.9512 33.7614 20.9512H32.841V15.8147L32.8407 15.7755C32.8407 15.3856 33.1588 15.0684 33.55 15.0684H51.9638C52.355 15.0684 52.6733 15.3856 52.6733 15.7755V22.0838C52.6733 22.7309 53.1979 23.2557 53.8451 23.2557H55.9374C56.8852 23.2557 57.6564 24.0251 57.6564 24.9712C57.6563 25.917 56.8851 26.6867 55.9373 26.6867Z" fill="#98D431"/>
<path d="M53.8453 48.6749C53.3558 48.6749 52.9071 48.3575 52.7419 47.8974C52.5789 47.4432 52.7192 46.9215 53.0872 46.6094C53.4711 46.2838 54.0358 46.2419 54.4635 46.5076C54.8726 46.7616 55.0886 47.2595 54.9936 47.7316C54.8848 48.2722 54.3979 48.6749 53.8453 48.6749Z" fill="#98D431"/>
<path d="M12.0525 16.339C11.7681 16.339 11.492 16.2355 11.2768 16.0456L8.85458 13.9067C8.36943 13.4784 8.32349 12.7376 8.75181 12.2526C9.18025 11.7676 9.92087 11.7216 10.4059 12.1498L11.8882 13.4588L15.068 9.32514C15.4627 8.8121 16.1984 8.71612 16.7113 9.11081C17.2242 9.50538 17.3202 10.2412 16.9256 10.754L12.9813 15.8817C12.7835 16.1389 12.4877 16.3026 12.1647 16.3337C12.1273 16.3372 12.0898 16.339 12.0525 16.339Z" fill="#98D431"/>
<path d="M12.2475 30.0561C10.0072 30.0561 8.18473 28.2352 8.18473 25.9968V25.0815H3.04055C1.4898 25.0815 0.185977 23.9205 0.00773438 22.3809C0.00257812 22.3364 0 22.2914 0 22.2464V3.41859C0 3.37348 0.00257812 3.32848 0.00773438 3.28383C0.185859 1.74574 1.48969 0.585938 3.04055 0.585938H21.4543C23.1379 0.585938 24.5074 1.95457 24.5074 3.6368V8.77324H25.4278C27.668 8.77324 29.4905 10.5942 29.4905 12.8325C29.4905 15.0708 27.668 16.8918 25.4278 16.8918H24.5074V22.0282C24.5074 23.7118 23.1377 25.0818 21.4543 25.0818H16.3102V25.997C16.3102 28.2352 14.4877 30.0561 12.2475 30.0561ZM2.34375 22.1626C2.40668 22.494 2.69754 22.7379 3.04055 22.7379H9.35648C10.0037 22.7379 10.5284 23.2627 10.5284 23.9098V25.9969C10.5284 26.9428 11.2996 27.7125 12.2474 27.7125C13.1952 27.7125 13.9663 26.9429 13.9663 25.9969V23.9098C13.9663 23.2627 14.4909 22.7379 15.1382 22.7379H21.4542C21.8454 22.7379 22.1636 22.4195 22.1636 22.0281V15.7198C22.1636 15.0727 22.6882 14.5479 23.3354 14.5479H25.4277C26.3755 14.5479 27.1466 13.7784 27.1466 12.8324C27.1466 11.8866 26.3755 11.1169 25.4277 11.1169H23.3355C22.6883 11.1169 22.1637 10.5921 22.1637 9.945V3.6368C22.1637 3.24691 21.8455 2.92969 21.4543 2.92969H3.04055C2.69742 2.92969 2.40656 3.1725 2.34375 3.5025V22.1626Z" fill="#98D431"/>
</g>
</svg>
