<svg fill="none" width="60" height="60" viewBox="0 0 60 60" fill="none" xmlns="http://www.w3.org/2000/svg">
<g clip-path="url(#clip0_44_935)">
<path d="M58.7526 2.08975C58.646 1.67639 58.3237 1.35413 57.9104 1.24747C48.339 -1.22079 38.2737 -0.000854284 29.5688 4.68161C27.6558 5.71066 25.8468 6.88666 24.1535 8.19449C19.3085 6.46643 13.9193 7.6589 10.2498 11.3283L2.91601 18.6617C2.4587 19.1195 2.4587 19.8615 2.91601 20.3193L11.0761 28.4789C11.0761 28.4794 11.0766 28.4794 11.0766 28.4798L12.129 29.5318L11.1608 36.6454C11.1114 37.0084 11.234 37.3733 11.4931 37.6324L12.3455 38.4847L5.34444 45.5279C4.88805 45.987 4.89034 46.729 5.34948 47.185C5.80862 47.6414 6.55065 47.6391 7.00658 47.1804L14.0026 40.1418L19.8588 45.9984L9.9912 55.8225C9.53252 56.2794 9.53069 57.0214 9.98708 57.4801C10.2164 57.7099 10.5172 57.8252 10.8179 57.8252C11.1168 57.8252 11.4158 57.7112 11.6446 57.4837L21.5163 47.6555L22.3678 48.5074C22.5893 48.7285 22.8878 48.8503 23.1963 48.8503C23.249 48.8503 23.3016 48.8471 23.3547 48.8398L30.4683 47.8716L31.5207 48.924C31.5207 48.924 31.5207 48.9245 31.5212 48.9245L39.6808 57.0846C39.9097 57.3134 40.2096 57.4274 40.5094 57.4274C40.8097 57.4274 41.1095 57.3134 41.3384 57.0846L48.6718 49.7507C52.3412 46.0813 53.5341 40.692 51.8056 35.8471C53.1135 34.1538 54.2895 32.3443 55.3185 30.4317C60.0014 21.7264 61.2209 11.6611 58.7526 2.08975V2.08975ZM11.4171 25.5057L5.40212 19.4907L11.9069 12.9859C14.5844 10.308 18.3729 9.22949 21.9777 10.0049C17.282 14.2077 13.651 19.5045 11.4171 25.5057ZM23.6143 46.4388L13.5613 36.3859L14.2109 31.6137L28.3864 45.7892L23.6143 46.4388ZM47.0147 48.0932L40.5094 54.598L34.4948 48.583C40.4961 46.3491 45.7924 42.7181 49.9952 38.0224C50.7706 41.6273 49.6921 45.4153 47.0147 48.0932V48.0932ZM32.8002 46.7011L32.6606 46.7492L13.2509 27.3395L13.299 27.1999C19.4321 9.37415 38.3767 -0.995117 56.6501 3.34998C60.9948 21.623 50.6264 40.568 32.8002 46.7011Z" fill="#98D431" />
<path d="M45.683 12.8816L30.3021 17.0028C29.8979 17.1113 29.5821 17.4271 29.4736 17.8318C29.3651 18.236 29.4809 18.6677 29.7766 18.9639L32.0618 21.2486L27.4571 25.8527C26.9998 26.3105 26.9998 27.0525 27.4571 27.5103C27.9149 27.9676 28.6569 27.9676 29.1147 27.5103L34.5474 22.0771C35.0052 21.6198 35.0052 20.8778 34.5474 20.42L32.8693 18.7418L44.3294 15.6712L41.2587 27.1308L39.5805 25.4527C39.3608 25.2329 39.0628 25.1098 38.752 25.1098C38.4412 25.1098 38.1427 25.2329 37.923 25.4527L28.5718 34.8043C28.114 35.2621 28.114 36.0041 28.5718 36.4619C28.8007 36.6908 29.1005 36.8047 29.4003 36.8047C29.7002 36.8047 30 36.6908 30.2289 36.4619L38.7515 27.9388L41.0362 30.2235C41.3324 30.5196 41.7641 30.635 42.1683 30.527C42.5729 30.4185 42.8888 30.1026 42.9968 29.6984L47.1181 14.3171C47.2266 13.9129 47.1112 13.4812 46.815 13.1851C46.5189 12.8889 46.0872 12.7731 45.683 12.8816V12.8816Z" fill="#98D431"/>
<path d="M11.2487 48.7513C10.7914 48.2935 10.0493 48.2935 9.59158 48.7513L0.343384 57.9995C-0.11438 58.4568 -0.11438 59.1988 0.343384 59.6566C0.572266 59.8855 0.872101 59.9999 1.17194 59.9999C1.47177 59.9999 1.77206 59.8855 2.00049 59.6566L11.2487 50.4084C11.7065 49.9511 11.7065 49.209 11.2487 48.7513V48.7513Z" fill="#98D431"/>
<path d="M2.94986 50.7512C3.25793 50.7512 3.56006 50.6272 3.77841 50.4079C3.99631 50.19 4.12173 49.8888 4.12173 49.5793C4.12173 49.2713 3.99631 48.9691 3.77841 48.7513C3.56006 48.5329 3.25793 48.4075 2.94986 48.4075C2.64041 48.4075 2.3392 48.5329 2.12131 48.7513C1.90341 48.9691 1.77798 49.2713 1.77798 49.5793C1.77798 49.8888 1.90341 50.19 2.12131 50.4079C2.3392 50.6272 2.64133 50.7512 2.94986 50.7512Z" fill="#98D431"/>
<path d="M23.605 29.7046L23.595 29.7133C23.113 30.1459 23.0731 30.887 23.5057 31.3686C23.7369 31.6263 24.0569 31.7577 24.3782 31.7577C24.657 31.7577 24.9367 31.6588 25.1605 31.4574L25.1706 31.4487C25.6522 31.0161 25.6925 30.2754 25.2599 29.7939C24.8273 29.3118 24.0866 29.272 23.605 29.7046V29.7046Z" fill="#98D431"/>
</g>
<defs>
<clipPath id="clip0_44_935">
<rect width="60" height="60" fill="none"/>
</clipPath>
</defs>
</svg>
