<svg width="219" height="50" viewBox="0 0 219 50" fill="none" xmlns="http://www.w3.org/2000/svg">
<g clip-path="url(#clip0_26_486)">
<path d="M7.9977 41.8297C4.89068 36.7664 4.83314 30.725 7.88262 24.6835C8.28539 23.8205 8.68815 22.9574 9.14845 22.1519C6.84695 19.5052 6.1565 16.3406 7.30725 13.4637C8.57307 10.2417 11.9102 8.05523 15.5926 8.05523C17.8941 8.05523 20.1381 8.86076 22.2094 10.3567C24.626 9.72382 27.0426 9.55121 29.1139 9.43613L30.2071 9.3786H30.2647H30.3222H30.4373L31.6456 9.43613C33.7169 9.55121 36.1335 9.72382 38.4925 10.3567C39.9885 9.26352 41.5995 8.51553 43.2681 8.22785C38.6651 3.16456 32.1059 0 24.7986 0C11.1047 0 0 11.1047 0 24.7986C0 33.4292 4.43038 41.0242 11.1047 45.4545C9.89643 44.3613 8.80322 43.153 7.9977 41.8297Z" fill="#98D431"/>
<path d="M50.2302 25.9494C44.649 13.6364 38.7802 12.5431 30.4948 12.2555C30.4373 12.2555 30.4373 12.2555 30.3797 12.2555C30.3222 12.2555 30.3222 12.2555 30.2647 12.2555C21.9793 12.5431 16.0529 13.6939 10.5293 25.9494C4.20023 38.2624 13.6364 49.0794 30.3797 48.8493C47.1231 49.0794 56.5593 38.2048 50.2302 25.9494Z" fill="white"/>
<path d="M30.9551 50C30.7825 50 30.5524 50 30.3797 50C20.9436 50.1726 13.1185 46.7779 9.49367 40.9666C6.67434 36.4212 6.67434 30.9551 9.49367 25.4891C15.0173 13.1185 21.2313 11.5075 29.1715 11.1047L30.2647 11.0472H30.3222L31.5305 11.1047C39.4706 11.4499 45.6272 13.1185 51.2083 25.4315C54.0276 30.8976 54.0276 36.3636 51.2083 40.9091C47.6985 46.6053 40.1611 50 30.9551 50ZM30.3222 47.641C39.0104 47.756 46.0875 44.8216 49.252 39.6433C51.611 35.8458 51.611 31.1277 49.1369 26.4097V26.3521C43.8435 14.672 38.5501 13.6939 30.4373 13.4062H30.3797H30.3222C22.1519 13.6939 16.8585 14.672 11.5075 26.4097V26.4672C9.09091 31.1853 9.03337 35.9033 11.3924 39.7008C14.6145 44.8216 21.6916 47.8136 30.3222 47.641Z" fill="black"/>
<path d="M49.252 21.9793L43.9586 15.7652L38.435 12.5432C46.9505 4.7756 57.3648 14.7296 49.252 21.9793Z" fill="black"/>
<path d="M11.3924 21.9793L16.6858 15.8228L22.2094 12.6007C13.6939 4.7756 3.33717 14.7296 11.3924 21.9793Z" fill="black"/>
<path d="M32.2785 39.6433L31.7606 36.7089C33.832 36.1335 35.5006 35.1553 36.191 32.9689C36.5938 31.3003 34.0046 30.5524 30.3797 30.5524C26.87 30.5524 24.1082 31.5305 24.5685 32.9689C25.2589 35.1553 26.9275 36.1335 28.9989 36.7089L28.481 39.6433C25.6041 40.046 23.015 38.7802 20.5984 35.9033C22.1519 41.0817 25.3165 43.2681 30.3797 41.2543C35.5006 43.2681 38.6076 41.0817 40.1611 35.9033C37.7445 38.7802 35.1554 39.9885 32.2785 39.6433Z" fill="black"/>
<path d="M44.3613 25.3165C43.0955 22.9574 40.9091 21.3464 37.6295 21.5765C34.4074 21.9217 32.5662 23.015 32.1634 24.9712C31.7606 26.4672 32.9114 27.4453 34.0621 28.0782C34.9827 28.3659 36.3061 28.8838 36.3061 28.8838C36.9965 29.1139 37.3993 29.8044 37.8021 30.3797C39.2405 32.3936 40.9091 32.4511 42.5777 31.6456C42.5777 31.6456 46.4902 29.1139 44.3613 25.3165Z" fill="black"/>
<path d="M23.0725 21.6341C19.7353 21.4039 17.6064 23.015 16.3406 25.374C14.2117 29.1715 18.1818 31.7031 18.1818 31.7031C19.8504 32.5086 21.4615 32.4511 22.9574 30.4373C23.3602 29.8619 23.8205 29.229 24.4534 28.9413C24.4534 28.9413 25.7192 28.4235 26.6974 28.1358C27.8481 27.5029 28.9988 26.5247 28.5961 25.0288C28.1358 23.0725 26.2946 21.9793 23.0725 21.6341Z" fill="black"/>
<path d="M21.9217 24.3959C21.519 25.7192 22.0944 26.985 24.2808 26.87C25.374 26.7549 26.0644 26.2946 26.2946 25.374C25.2589 24.3383 23.7629 24.0506 21.9217 24.3959ZM24.3383 24.7986C25.1438 25.0863 25.4891 25.7192 25.0863 26.0644C24.6835 26.4672 23.6479 26.3521 23.3026 25.5466C23.9931 25.6041 24.3383 25.3165 24.3383 24.7986Z" fill="white"/>
<path d="M38.7802 24.3959C36.8815 24.0506 35.443 24.3383 34.4074 25.374C34.6375 26.2946 35.3855 26.8124 36.4212 26.87C38.6076 26.985 39.183 25.7192 38.7802 24.3959ZM35.6157 26.0644C35.2129 25.6617 35.5581 25.0863 36.3636 24.7986C36.3636 25.3165 36.7089 25.5466 37.4568 25.5466C37.0541 26.3521 36.0184 26.4672 35.6157 26.0644Z" fill="white"/>
</g>
<path d="M74.875 34V17.9H83.925C85.3083 17.9 86.45 18.1833 87.35 18.75C88.25 19.3167 88.9167 20.075 89.35 21.025C89.8 21.975 90.025 23.025 90.025 24.175C90.025 25.3417 89.7667 26.4 89.25 27.35C88.75 28.2833 88.0333 29.025 87.1 29.575C86.1833 30.125 85.0917 30.4 83.825 30.4H80.925V34H74.875ZM80.925 25.675H82.4C82.8833 25.675 83.25 25.5417 83.5 25.275C83.75 25.0083 83.875 24.6417 83.875 24.175C83.875 23.1417 83.4167 22.625 82.5 22.625H80.925V25.675ZM88.2666 34L94.4666 17.9H100.742L106.942 34H100.642L99.4916 31H95.7166L94.5666 34H88.2666ZM96.3666 26.875H98.8166L97.5916 23.8L96.3666 26.875ZM108.2 34V17.9H113.275L117.775 24.2V17.9H123.825V34H118.725L114.25 27.7V34H108.2ZM125.583 34V17.9H133.233C134.933 17.9 136.408 18.175 137.658 18.725C138.908 19.2583 139.875 20.125 140.558 21.325C141.241 22.5083 141.583 24.0833 141.583 26.05C141.583 27.9167 141.241 29.4333 140.558 30.6C139.891 31.7667 138.933 32.625 137.683 33.175C136.45 33.725 134.966 34 133.233 34H125.583ZM131.633 29.4H132.533C133.133 29.4 133.65 29.3167 134.083 29.15C134.516 28.9833 134.85 28.6583 135.083 28.175C135.316 27.6917 135.433 26.9833 135.433 26.05C135.433 25.1167 135.325 24.425 135.108 23.975C134.891 23.5083 134.566 23.2083 134.133 23.075C133.716 22.925 133.183 22.85 132.533 22.85H131.633V29.4ZM140.83 34L147.03 17.9H153.305L159.505 34H153.205L152.055 31H148.28L147.13 34H140.83ZM148.93 26.875H151.38L150.155 23.8L148.93 26.875Z" fill="#98D531"/>
<path d="M169.889 34.25C166.722 34.25 164.322 33.55 162.689 32.15C161.072 30.75 160.264 28.6833 160.264 25.95C160.264 23.2167 161.064 21.15 162.664 19.75C164.28 18.35 166.672 17.65 169.839 17.65C170.872 17.65 171.78 17.725 172.564 17.875C173.364 18.025 174.147 18.2417 174.914 18.525V23.8C173.397 23.1 171.839 22.75 170.239 22.75C169.072 22.75 168.147 22.9833 167.464 23.45C166.78 23.9 166.439 24.7333 166.439 25.95C166.439 27.1667 166.789 28.0083 167.489 28.475C168.189 28.925 169.122 29.15 170.289 29.15C171.889 29.15 173.447 28.8 174.964 28.1V33.375C174.197 33.6417 173.414 33.85 172.614 34C171.83 34.1667 170.922 34.25 169.889 34.25ZM184.343 34.25C182.526 34.25 180.976 33.9833 179.693 33.45C178.409 32.9 177.426 32.0167 176.743 30.8C176.059 29.5833 175.718 27.9667 175.718 25.95C175.718 23.9167 176.059 22.3 176.743 21.1C177.426 19.8833 178.409 19.0083 179.693 18.475C180.976 17.925 182.526 17.65 184.343 17.65C186.159 17.65 187.709 17.925 188.993 18.475C190.276 19.0083 191.259 19.8833 191.943 21.1C192.626 22.3 192.968 23.9167 192.968 25.95C192.968 27.9667 192.626 29.5833 191.943 30.8C191.259 32.0167 190.276 32.9 188.993 33.45C187.709 33.9833 186.159 34.25 184.343 34.25ZM184.343 29.125C185.226 29.125 185.851 28.8917 186.218 28.425C186.601 27.9417 186.793 27.1167 186.793 25.95C186.793 24.7833 186.601 23.9667 186.218 23.5C185.851 23.0167 185.226 22.775 184.343 22.775C183.459 22.775 182.826 23.0167 182.443 23.5C182.076 23.9667 181.893 24.7833 181.893 25.95C181.893 27.1167 182.076 27.9417 182.443 28.425C182.826 28.8917 183.459 29.125 184.343 29.125ZM194.211 34V17.9H200.261V34H194.211ZM201.999 34V17.9H207.074L211.574 24.2V17.9H217.624V34H212.524L208.049 27.7V34H201.999Z" fill="white"/>
<defs>
<clipPath id="clip0_26_486">
<rect width="53.3372" height="50" fill="white"/>
</clipPath>
</defs>
</svg>
