<svg width="483" height="468" viewBox="0 0 483 468" fill="none" xmlns="http://www.w3.org/2000/svg">
<g id="panda_3 1">
<g id="Group" opacity="0.1">
<path id="Vector" opacity="0.1" d="M36.6385 98.4077C36.5538 98.5769 36.3846 98.7462 36.3 98.9154C36.3 99.2538 36.3846 99.5077 36.4692 99.8462C36.5538 100.015 36.5538 100.185 36.5538 100.354C36.5538 99.7615 36.5538 99.1692 36.6385 98.4077Z" fill="#98D531"/>
<path id="Vector_2" opacity="0.1" d="M15.4 299.877C15.9923 298.015 15.9923 295.9 15.9077 293.869L15.4 281.092L14.0462 293.954C13.9615 294.969 13.8769 296.069 13.8769 297.085C14.3 298.354 14.8077 299.538 15.3154 300.808C15.2308 300.385 15.3154 300.131 15.4 299.877Z" fill="#98D531"/>
<path id="Vector_3" opacity="0.1" d="M88.5077 225.5C88.3385 226.262 88.2538 227.023 88.0846 227.785C88.1692 227.785 88.2538 227.785 88.4231 227.785H94.3462C95.0231 226.938 95.7 226.177 96.4615 225.415C96.2923 225.5 96.0385 225.5 95.7846 225.5H88.5077Z" fill="#98D531"/>
<path id="Vector_4" opacity="0.1" d="M102.638 33.8462C102.469 33.9308 102.3 34.0154 102.215 34.1C102.3 34.6077 102.385 35.0308 102.554 35.5385L102.638 33.8462Z" fill="#98D531"/>
<path id="Vector_5" opacity="0.1" d="M128.615 19.8C126.669 20.7308 124.638 21.6615 122.692 22.5923C120.662 24.2846 118.292 25.9769 115.669 27.3308C118.292 28.6846 121 30.1231 123.623 31.5615C124.554 28.0077 126.669 23.5231 128.615 19.8Z" fill="#98D531"/>
<path id="Vector_6" opacity="0.1" d="M420.2 308C420.2 307.831 420.115 307.662 420.115 307.492C420.031 306.308 420.708 305.377 421.554 305.377H422.738C423.077 304.615 423.331 303.854 423.669 303.092H421.215C420.285 303.092 419.438 302.077 419.438 300.808C419.438 300.469 419.438 300.131 419.523 299.792C420.115 297.931 420.115 295.815 420.031 293.785L417.831 235.908C417.746 233.877 417.238 232.015 416.731 230.069C416.731 229.9 416.646 229.731 416.646 229.646C416.562 228.631 417.154 227.785 417.915 227.785H423.246C424.008 227.785 424.685 228.631 424.685 229.646C424.685 229.815 424.685 229.985 424.685 230.069C424.431 232.015 424.092 233.877 424.262 235.823L427.731 291.923C432.723 277.369 436.277 262.138 438.223 246.4C435.262 247.077 432.385 247.669 430.185 248.092C433.062 245.892 435.938 244.369 438.646 243.269C439.238 237.262 439.662 231.254 439.831 225.162C439.069 224.485 438.392 223.808 437.8 223.215C438.562 223.3 439.238 223.385 439.915 223.469C439.915 222.369 440 221.185 440 220.085C440 185.731 432.131 153.154 418 124.131L419.692 151.038C419.777 152.477 419.946 154 420.454 155.269C420.538 155.438 420.623 155.692 420.623 155.946C420.708 156.792 420.2 157.554 419.523 157.554H414.869C414.192 157.554 413.6 156.792 413.6 155.946C413.6 155.692 413.6 155.438 413.685 155.269C414.108 154 414.108 152.477 414.023 150.954L412.585 113.808C404.292 98.7462 394.223 84.7846 382.8 72.1769L380.177 96.4615C380.008 97.6462 380.008 98.9154 380.346 99.9308C380.431 100.1 380.431 100.269 380.431 100.523C380.346 101.285 379.754 101.792 379.077 101.792H374.423C373.746 101.792 373.323 101.2 373.408 100.523C373.408 100.354 373.492 100.1 373.577 99.9308C374.169 98.8308 374.423 97.6462 374.592 96.4615L378.569 67.6923C374.508 63.4615 370.277 59.4 365.877 55.5077C365.708 55.6769 365.369 55.8462 365.115 55.8462H360.715C360.123 55.8462 359.615 55.3385 359.615 54.7462C359.615 54.5769 359.615 54.4077 359.7 54.3231C360.123 53.4769 360.208 52.4615 360.292 51.4462V50.6846C355.977 47.1308 351.577 43.7462 347.008 40.5308C345.992 42.2231 344.892 43.7462 343.623 45.0154C343.454 43.4077 343.962 41.2077 344.723 38.9231C343.623 38.1615 342.523 37.4 341.423 36.7231L340.069 51.4462C339.985 52.3769 339.9 53.3923 340.154 54.3231C340.154 54.4923 340.238 54.5769 340.154 54.7462C340.069 55.3385 339.731 55.8462 339.223 55.8462H336.092C335.669 55.8462 335.331 55.3385 335.415 54.7462C335.415 54.5769 335.5 54.4077 335.585 54.3231C336.008 53.4769 336.177 52.4615 336.262 51.4462L338.038 35.7923C334.992 37.6538 331.438 39.2615 327.546 40.1077C329.662 38.0769 332.708 35.7077 335.923 33.2538C316.715 21.0692 295.308 11.9308 272.462 6.34615C269.585 12.0154 262.815 18.4462 257.485 23.0154C257.485 23.3538 257.485 23.6077 257.485 23.9462L257.569 25.9769C264.254 22.4231 275.846 18.2769 287.862 22.1692C291.162 20.1385 294.377 18.3615 296.915 17.0923C285.662 35.5385 266.792 36.2154 266.792 35.7923C266.792 35.7923 276.523 29.1077 285.831 23.4385C277.454 25.8923 265.1 27.9231 257.738 29.0231L259.092 50.6C261.8 44.2538 264 39.5154 264 39.5154C264.254 39.5154 265.015 51.3615 259.769 62.9538L261.377 88C264.931 85.5462 267.554 83.8538 267.554 83.8538C267.638 83.9385 265.523 87.4077 261.631 91.3846L261.969 96.5462C261.969 96.5462 261.969 96.5462 261.969 96.6308C264.846 90.2 268.908 83.8538 268.908 83.8538C269.331 83.7692 267.046 96.2077 261.377 104.246H261.885C262.392 104.246 262.9 104.838 262.9 105.6C262.9 105.685 262.9 105.854 262.9 105.938C262.731 107.292 262.477 108.646 262.562 110L265.1 151.292C265.185 152.731 265.354 154.254 265.862 155.523C265.946 155.692 266.031 155.946 266.031 156.2C266.115 157.046 265.608 157.808 264.931 157.808H260.277C259.6 157.808 259.008 157.046 259.008 156.2C259.008 155.946 259.008 155.692 259.092 155.523C259.515 154.254 259.515 152.731 259.431 151.208L257.908 110.085C257.823 108.646 257.485 107.292 257.146 105.938C257.146 105.854 257.146 105.685 257.062 105.6C257.062 104.838 257.4 104.246 257.992 104.246H259.262C259.431 103.485 259.6 102.723 259.854 101.962H257.908C257.4 101.962 256.892 101.369 256.892 100.692C256.892 100.523 256.892 100.269 256.977 100.1C257.315 99 257.315 97.8154 257.315 96.6308L257.231 95.2769C253.423 98.2385 248.685 100.862 243.185 102.046C246.569 98.9154 252.154 94.6846 257.146 91.1308L256.3 69.3C254.608 71.7538 252.492 74.1231 249.954 76.2385C251.054 71.6692 253.169 65.6615 255.538 59.8231C255.538 59.7385 255.538 59.7385 255.538 59.6538C255.538 59.5692 255.538 59.4846 255.538 59.4C255.538 58.8077 255.792 58.3846 256.215 58.3846C256.554 57.6231 256.808 56.8615 257.146 56.1H256.215C255.792 56.1 255.369 55.5923 255.369 55C255.369 54.8308 255.369 54.6615 255.454 54.5769C255.708 53.7308 255.708 52.7154 255.708 51.7L254.862 29.7846C253 30.0385 251.815 30.2077 251.815 30.2077C251.815 30.1231 252.831 29.2769 254.777 28.0077L254.692 25.8077C252.069 27.9231 250.208 29.2769 250.208 29.2769C250.038 29.1923 251.562 26.2308 254.354 22.3385C254.269 22.0846 254.185 21.7462 254.185 21.4923C254.185 21.4077 254.185 21.3231 254.185 21.2385C254.185 20.7308 254.438 20.3923 254.777 20.3923H255.792C259.515 15.4 264.677 9.56154 270.262 6.00769C263.323 4.4 256.215 3.13077 249.023 2.2C254.015 15.9923 249.531 29.7 249.108 29.7C249.108 29.7 245.892 14.6385 243.438 1.60769C235.569 0.423077 227.785 0 220 0C198.677 0 178.115 3.04615 158.654 8.71538C159.754 8.63077 160.769 8.63077 161.615 8.63077C155.608 11.8462 150.023 12.8615 145.538 12.9462C142.831 13.9615 140.123 14.9769 137.5 15.9923C141.223 20.3923 146.892 27.1615 150.192 31.4769C146.131 30.5462 143 28.7692 140.715 26.6538L141.054 51.3615C141.054 52.2923 141.138 53.3077 141.477 54.2385C141.562 54.4077 141.562 54.4923 141.562 54.6615C141.562 55.2538 141.223 55.7615 140.8 55.7615H137.669C137.246 55.7615 136.908 55.2538 136.908 54.6615C136.908 54.4923 136.908 54.3231 136.992 54.2385C137.331 53.3923 137.331 52.3769 137.415 51.3615L137.754 23.9462C137.754 23.6077 137.754 23.2692 137.669 23.0154C136.315 20.9846 135.469 18.9538 134.877 17.1769C133.946 17.6 133.015 18.0231 132 18.4462C130.815 22.6769 128.785 28.3462 125.654 32.7462C129.462 34.8615 133.015 36.9769 135.808 38.8385C124.469 39.3462 115.754 34.6923 109.831 29.9538C109.577 30.0385 109.323 30.1231 109.069 30.1231C108.477 30.4615 107.885 30.8 107.292 31.1385L106.277 51.3615C106.277 51.7846 106.277 52.2923 106.277 52.7154C106.362 53.1385 106.446 53.5615 106.531 53.9C106.531 53.9846 106.531 54.0692 106.615 54.1538C106.7 54.3231 106.7 54.4077 106.7 54.5769C107.8 59.8231 108.731 64.8154 109.408 68.7923C107.969 67.1846 106.615 65.4077 105.515 63.7154L103.823 96.2923C103.738 97.4769 103.738 98.7462 104.246 99.7615C104.331 99.9308 104.331 100.1 104.331 100.354C104.246 101.115 103.654 101.623 102.977 101.623H97.9846C97.3077 101.623 96.7154 101.031 96.8 100.354C96.8 100.185 96.8846 99.9308 96.9692 99.7615C97.5615 98.6615 97.7308 97.4769 97.8154 96.2923L100.608 62.7C100.692 61.5154 100.438 60.4154 100.269 59.3154C100.269 59.2308 100.269 59.1462 100.269 59.0615C100.269 58.4692 100.777 57.9615 101.369 57.9615H102.3C101.962 57.2 101.623 56.4385 101.285 55.6769C100.862 55.5923 100.523 55.1692 100.523 54.6615C100.523 54.4923 100.608 54.3231 100.692 54.2385C98.5769 48.4 97.7308 42.5615 97.4769 37.4C75.1385 52.4615 55.6769 71.5 40.1077 93.5846C38.5 98.5769 36.8077 102.554 36.8077 102.554C36.7231 102.554 36.6385 101.792 36.6385 100.523C36.5538 101.031 36.2154 101.454 35.7923 101.708C36.0462 102.723 36.1308 103.315 36.1308 103.315C36.1308 103.315 35.5385 102.808 34.5231 101.877C34.1846 102.469 33.7615 103.062 33.4231 103.654C34.2692 103.823 34.7769 103.908 35.0308 104.077C35.7077 104.077 36.1308 104.669 36.0462 105.431C36.0462 105.515 36.0462 105.685 35.9615 105.769C35.4538 107.123 34.9462 108.477 34.7769 109.831L30.2923 151.123C30.1231 152.562 30.0385 154.085 30.4615 155.354C30.5462 155.523 30.5462 155.777 30.5462 156.031C30.4615 156.877 29.7 157.638 28.8538 157.638H23.1846C22.3385 157.638 21.8308 156.877 21.9154 156.031C21.9154 155.777 22 155.523 22.1692 155.354C22.9308 154.085 23.1846 152.562 23.4385 151.038L29.0231 110.846C23.6077 120.323 18.8692 130.308 14.8077 140.631L15.4846 151.123C15.5692 152.562 15.7385 154.085 16.2462 155.354C16.3308 155.523 16.4154 155.777 16.4154 156.031C16.5 156.877 15.9923 157.638 15.3154 157.638H10.6615C10.0692 157.638 9.56154 157.046 9.39231 156.285C3.3 176.423 0 197.831 0 220C0 239.123 2.45385 257.569 7.02308 275.254L12.5231 235.908C12.7769 233.877 12.5231 232.015 12.2692 230.069C12.2692 229.9 12.2692 229.731 12.2692 229.646C12.3538 229.054 12.6077 228.546 13.0308 228.208C13.2846 227.954 13.5385 227.785 13.8769 227.785H20.6462C21.5769 227.785 22.2538 228.631 22.0846 229.646C22.0846 229.815 22 229.985 22 230.069C21.3231 232.015 20.5615 233.877 20.3923 235.823L20.3077 236.669L23.8615 293.869C24.0308 295.9 24.2 298.015 24.9615 299.877C25.0462 300.131 25.1308 300.469 25.2154 300.892C25.3 302.162 24.5385 303.177 23.6077 303.177H17.0923C16.7538 303.177 16.4154 303.008 16.1615 302.754C16.5 303.685 16.9231 304.531 17.2615 305.462C17.3462 305.462 17.4308 305.462 17.4308 305.462H23.5231C24.3692 305.462 25.1308 306.392 25.2154 307.577C25.2154 307.746 25.2154 307.915 25.2154 308.085C24.9615 310.285 24.5385 312.485 24.7077 314.685L25.2154 322.215C37.9077 346.331 54.8308 367.738 75.1385 385.508C75.4769 384.154 75.6462 382.715 75.8154 381.362L81.2308 314.769C81.4 312.485 80.8923 310.285 80.4692 308C80.4692 307.831 80.4692 307.662 80.4692 307.492C80.5538 306.308 81.5692 305.377 82.6692 305.377H90.7077C91.8923 305.377 92.7385 306.308 92.6538 307.492C92.6538 307.662 92.5692 307.831 92.5692 308C91.8923 310.2 91.1308 312.4 91.0462 314.6L87.6615 381.277C87.5769 383.646 87.5769 386.1 88.4231 388.131C88.5923 388.469 88.5923 388.808 88.5923 389.231C88.5077 390.669 87.2385 391.854 85.8846 391.854H82.8385C120.408 421.977 168.131 440 220 440C271.954 440 319.677 421.977 357.246 391.938C355.892 391.769 354.877 390.669 354.877 389.4C354.877 388.977 354.962 388.638 355.131 388.3C356.231 386.185 356.485 383.731 356.485 381.362L357.669 314.854C357.669 312.823 357.162 310.792 356.569 308.846C355.892 310.792 355.215 312.738 354.962 314.685L347.685 381.362C347.431 383.731 347.262 386.185 348.023 388.215C348.108 388.554 348.192 388.892 348.108 389.315C347.938 390.754 346.754 391.938 345.4 391.938H336.262C334.992 391.938 334.062 390.754 334.231 389.315C334.315 388.892 334.4 388.554 334.569 388.215C335.754 386.1 336.262 383.646 336.6 381.277L346.077 314.769C346.415 312.485 346.077 310.285 345.823 308C345.823 307.831 345.823 307.662 345.823 307.492C345.992 306.308 346.923 305.377 348.023 305.377H355.469C356.146 305.377 356.654 305.715 356.908 306.223C357.331 305.715 358.008 305.377 358.685 305.377H367.4C368.669 305.377 369.685 306.308 369.685 307.492C369.685 307.662 369.685 307.831 369.6 308C369.008 310.2 368.331 312.4 368.415 314.6L369.515 381.277C369.515 381.277 369.515 381.277 369.515 381.362C391.008 361.392 408.608 337.192 420.792 310.115C420.538 309.438 420.369 308.762 420.2 308ZM29.8692 161.446C29.8692 161.615 29.7846 161.7 29.7846 161.869C29.1923 163.562 28.6 165.169 28.3462 166.862L22.8462 217.462C22.6769 219.238 22.5923 221.1 23.1 222.708C23.1846 222.962 23.1846 223.215 23.1846 223.554C23.0154 224.654 22.1692 225.5 21.1538 225.5H13.5385C12.6923 225.5 12.0154 224.654 11.9308 223.554C11.9308 223.215 11.9308 222.962 12.0154 222.708C12.5231 221.1 12.5231 219.238 12.4385 217.462L10.5769 167.031C10.4923 165.254 10.0692 163.646 9.64615 161.954C9.64615 161.785 9.56154 161.7 9.56154 161.531C9.47692 160.6 9.98462 159.923 10.6615 159.923H15.3154C15.9923 159.923 16.5846 160.685 16.5846 161.531C16.5846 161.7 16.5846 161.785 16.5846 161.954C16.3308 163.646 16.0769 165.254 16.1615 166.946L17.7692 192.669L21.3231 167.031C21.5769 165.254 21.3231 163.646 21.1538 161.954C21.1538 161.785 21.1538 161.7 21.1538 161.531C21.2385 160.6 22 159.923 22.8462 159.923H28.5154C29.3615 159.838 29.9538 160.515 29.8692 161.446ZM136.231 99.8462C136.654 98.7462 136.738 97.5615 136.738 96.3769L137.162 62.7846C137.162 61.6 136.908 60.5 136.738 59.4C136.738 59.3154 136.738 59.2308 136.738 59.1462C136.738 58.5538 137.077 58.0462 137.5 58.0462H140.546C140.969 58.0462 141.308 58.5538 141.308 59.1462C141.308 59.2308 141.308 59.3154 141.308 59.4C141.138 60.5 140.885 61.6 140.885 62.7L141.308 96.3769C141.308 97.5615 141.392 98.8308 141.815 99.8462C141.9 100.015 141.9 100.185 141.9 100.438C141.9 101.2 141.477 101.708 140.885 101.708H137.077C136.569 101.708 136.062 101.115 136.062 100.438C136.146 100.185 136.146 100.015 136.231 99.8462ZM135.638 155.269C136.146 154 136.231 152.477 136.231 150.954L136.738 109.831C136.738 108.392 136.4 107.038 136.146 105.685C136.146 105.6 136.146 105.431 136.146 105.346C136.146 104.585 136.569 103.992 137.162 103.992H140.969C141.477 103.992 141.985 104.585 141.985 105.346C141.985 105.431 141.985 105.6 141.985 105.685C141.731 107.038 141.477 108.392 141.477 109.746L141.985 151.038C141.985 152.477 142.069 154 142.577 155.269C142.662 155.438 142.662 155.692 142.662 155.946C142.662 156.792 142.154 157.554 141.477 157.554H136.823C136.146 157.554 135.638 156.792 135.638 155.946C135.469 155.692 135.554 155.438 135.638 155.269ZM134.877 222.623C135.469 221.015 135.554 219.154 135.638 217.377L136.315 166.946C136.315 165.169 135.977 163.562 135.638 161.869C135.638 161.7 135.638 161.615 135.638 161.446C135.638 160.515 136.146 159.838 136.823 159.838H141.477C142.154 159.838 142.662 160.6 142.662 161.446C142.662 161.615 142.662 161.7 142.662 161.869C142.323 163.562 141.985 165.169 141.985 166.862L142.577 217.462C142.577 219.238 142.662 221.1 143.254 222.708C143.338 222.962 143.423 223.215 143.423 223.554C143.423 224.654 142.746 225.5 141.985 225.5H136.315C135.469 225.5 134.877 224.654 134.877 223.554C134.708 223.215 134.708 222.877 134.877 222.623ZM134.2 299.877C134.877 298.015 135.046 295.9 135.046 293.869L135.808 235.992C135.808 233.962 135.385 232.1 135.046 230.154C135.046 229.985 134.962 229.815 134.962 229.731C134.962 228.715 135.554 227.869 136.315 227.869H141.646C142.408 227.869 143 228.715 143 229.731C143 229.9 143 230.069 143 230.154C142.662 232.1 142.238 233.962 142.238 235.908L142.915 293.954C142.915 295.985 143.085 298.1 143.762 299.962C143.846 300.215 143.931 300.554 143.931 300.977C143.931 302.246 143.169 303.262 142.238 303.262H135.723C134.792 303.262 134.031 302.246 134.031 300.977C134.031 300.469 134.115 300.131 134.2 299.877ZM92.2308 155.269C92.9923 154 93.1615 152.477 93.3308 150.954L96.8 109.831C96.8846 108.392 96.6308 107.038 96.3769 105.685C96.3769 105.6 96.3769 105.431 96.3769 105.346C96.4615 104.585 97.0538 103.992 97.7308 103.992H102.723C103.4 103.992 103.992 104.585 103.908 105.346C103.908 105.431 103.908 105.6 103.823 105.685C103.4 107.038 102.892 108.392 102.892 109.746L100.777 151.038C100.692 152.477 100.692 154 101.285 155.269C101.369 155.438 101.454 155.692 101.369 155.946C101.285 156.792 100.523 157.554 99.6769 157.554H93.5846C92.7385 157.554 92.0615 156.792 92.1462 155.946C92.0615 155.692 92.1462 155.438 92.2308 155.269ZM82.9231 245.385C82.9231 245.385 63.4615 227.277 54.2385 217.8C76.4923 221.608 83.3462 245.131 82.9231 245.385ZM59.2308 80.3C53.2231 88.1692 38.0769 102.215 38.0769 102.215C37.8231 102.131 44.3385 85.8 59.2308 80.3ZM47.0462 252.408C64.0538 239.546 81.8231 246.062 81.7385 246.485C81.6538 246.485 58.3 251.562 47.0462 252.408ZM95.9538 233.708C95.7846 234.385 95.7 235.062 95.6154 235.823L92.6538 293.869C92.5692 295.9 92.5692 298.015 93.3308 299.877C93.4154 300.131 93.5 300.469 93.5 300.892C93.4154 302.162 92.4 303.177 91.1308 303.177H82.5846C81.4 303.177 80.4692 302.162 80.5538 300.892C80.5538 300.554 80.7231 300.215 80.8077 299.877C81.8231 298.015 82.1615 295.9 82.3308 293.869L86.5615 243.185C85.9692 243.777 85.5462 244.115 85.5462 244.115C85.4615 244.115 85.8846 242.677 86.7308 240.477L87.1538 235.908C87.2385 234.892 87.1538 233.877 86.9846 232.862C85.4615 239.377 83.7692 244.369 83.7692 244.369C83.1769 244.538 81.6538 221.438 88.6769 209.677C88.6769 209.762 88.6769 209.762 88.6769 209.846L92.2308 166.946C92.4 165.169 91.9769 163.562 91.6385 161.869C91.6385 161.7 91.6385 161.615 91.6385 161.446C91.7231 160.515 92.4846 159.838 93.3308 159.838H99.4231C100.269 159.838 100.946 160.6 100.862 161.446C100.862 161.615 100.862 161.7 100.777 161.869C100.269 163.562 99.6769 165.169 99.5923 166.862L97.0538 217.462C96.9692 219.238 96.9692 221.1 97.6462 222.708C97.7308 222.962 97.8154 223.215 97.8154 223.554C97.8154 223.723 97.7308 223.892 97.7308 224.062C101.369 220.508 105.938 217.377 111.608 215.6C108.054 220.762 101.538 227.869 95.9538 233.708ZM142.746 391.938H135.215C134.115 391.938 133.269 390.754 133.269 389.315C133.269 388.892 133.354 388.554 133.438 388.215C134.2 386.1 134.369 383.646 134.369 381.277L135.215 314.769C135.215 312.485 134.708 310.285 134.285 308C134.285 307.831 134.2 307.662 134.2 307.492C134.2 306.308 134.877 305.377 135.808 305.377H141.9C142.746 305.377 143.508 306.308 143.508 307.492C143.508 307.662 143.508 307.831 143.423 308C143 310.2 142.577 312.4 142.577 314.6L143.338 381.277C143.338 383.646 143.508 386.1 144.269 388.131C144.354 388.469 144.438 388.808 144.438 389.231C144.692 390.754 143.846 391.938 142.746 391.938ZM192.077 54.2385C192.5 53.3923 192.669 52.3769 192.754 51.3615L195.885 23.9462C195.969 23.0154 195.885 22.0846 195.8 21.1538C195.8 21.0692 195.8 20.9846 195.8 20.9C195.885 20.3923 196.223 20.0538 196.562 20.0538H199.1C199.438 20.0538 199.692 20.4769 199.692 20.9C199.692 20.9846 199.692 21.0692 199.692 21.0692C199.438 22 199.185 22.8462 199.1 23.7769L196.646 51.1923C196.562 52.1231 196.477 53.1385 196.731 54.0692C196.731 54.2385 196.815 54.3231 196.731 54.4923C196.646 55.0846 196.308 55.5923 195.8 55.5923H192.669C192.246 55.5923 191.908 55.0846 191.992 54.4923C191.908 54.4923 191.992 54.3231 192.077 54.2385ZM183.446 114.654C183.446 114.654 169.992 103.062 163.731 96.9692C179.977 98.2385 183.7 114.4 183.446 114.654ZM182.431 115.415C182.431 115.415 164.662 120.492 156.2 121.846C169.569 111.692 182.515 115.162 182.431 115.415ZM173.292 307.492C173.292 307.662 173.208 307.831 173.208 308C172.615 310.2 171.854 312.4 171.685 314.6L165.762 381.277C165.592 383.646 165.423 386.1 166.015 388.131C166.1 388.469 166.1 388.808 166.1 389.231C165.931 390.669 165 391.854 163.9 391.854H156.369C155.269 391.854 154.592 390.669 154.677 389.231C154.677 388.808 154.846 388.469 155.015 388.131C156.031 386.015 156.369 383.562 156.708 381.192L164.323 314.685C164.577 312.4 164.323 310.2 164.069 307.915C164.069 307.746 164.069 307.577 164.069 307.408C164.154 306.223 165 305.292 165.846 305.292H171.938C172.785 305.377 173.377 306.308 173.292 307.492ZM180.569 229.646C180.569 229.815 180.485 229.985 180.485 230.069C179.977 232.015 179.3 233.877 179.131 235.823L173.969 293.869C173.8 295.9 173.715 298.015 174.223 299.877C174.308 300.131 174.308 300.469 174.308 300.892C174.223 302.162 173.292 303.177 172.362 303.177H165.846C164.915 303.177 164.238 302.162 164.408 300.892C164.408 300.554 164.577 300.215 164.662 299.877C165.508 298.015 165.846 295.9 166.1 293.869L172.7 235.992C172.954 233.962 172.7 232.1 172.531 230.154C172.531 229.985 172.531 229.815 172.531 229.731C172.615 228.715 173.377 227.869 174.138 227.869H179.469C180.146 227.785 180.654 228.546 180.569 229.646ZM187 161.446C187 161.615 187 161.7 186.915 161.869C186.408 163.562 185.9 165.169 185.731 166.862L181.246 217.462C181.077 219.238 180.992 221.1 181.415 222.708C181.5 222.962 181.5 223.215 181.5 223.554C181.415 224.654 180.654 225.5 179.808 225.5H174.138C173.292 225.5 172.785 224.654 172.869 223.554C172.869 223.215 172.954 222.962 173.123 222.708C173.885 221.1 174.138 219.238 174.392 217.462L180.146 167.031C180.315 165.254 180.146 163.646 179.977 161.954C179.977 161.785 179.977 161.7 179.977 161.531C180.062 160.6 180.654 159.923 181.331 159.923H185.985C186.577 159.838 187.085 160.515 187 161.446ZM191.315 107.969C191.146 108.562 191.062 109.154 190.977 109.746L187.254 151.038C187.085 152.477 187.085 154 187.423 155.269C187.508 155.438 187.508 155.692 187.508 155.946C187.423 156.792 186.831 157.554 186.154 157.554H181.5C180.823 157.554 180.4 156.792 180.485 155.946C180.485 155.692 180.569 155.438 180.654 155.269C181.246 154 181.5 152.477 181.669 150.954L185.985 112.962C185.562 113.3 185.392 113.554 185.392 113.554C185.308 113.554 185.646 112.792 186.154 111.608L186.323 109.831C186.408 109.069 186.408 108.392 186.323 107.715C185.054 111.269 183.954 113.892 183.954 113.892C183.531 114.062 183.7 100.692 188.185 91.6385L191.485 62.7846C191.654 61.6 191.485 60.5 191.4 59.4C191.4 59.3154 191.4 59.2308 191.4 59.1462C191.485 58.5538 191.908 58.0462 192.331 58.0462H195.377C195.8 58.0462 196.138 58.5538 196.054 59.1462C196.054 59.2308 196.054 59.3154 195.969 59.4C195.631 60.5 195.292 61.6 195.208 62.7L192.246 96.3769C192.162 97.5615 192.077 98.8308 192.331 99.8462C192.415 100.015 192.415 100.185 192.331 100.438C192.246 101.2 191.738 101.708 191.231 101.708H188.185C187.931 102.469 187.762 103.231 187.508 103.992H190.723C194.192 99.4231 199.354 94.2615 206.462 91.6385C202.992 96.2923 196.223 103.146 191.315 107.969ZM247.162 29.4462C247.162 29.4462 237.769 25.1308 228.546 20.3923C228.715 20.5615 228.885 20.8154 228.885 21.0692C228.885 21.1538 228.885 21.2385 228.885 21.2385C228.631 22.1692 228.377 23.0154 228.377 23.9462L228.885 51.3615C228.885 52.2923 228.969 53.3077 229.477 54.2385C229.562 54.4077 229.562 54.4923 229.562 54.6615C229.562 55.2538 229.054 55.7615 228.462 55.7615H224.062C223.469 55.7615 222.962 55.2538 222.962 54.6615C222.962 54.4923 222.962 54.3231 223.046 54.2385C223.469 53.3923 223.554 52.3769 223.638 51.3615L224.146 23.9462C224.146 23.0154 223.892 22.0846 223.638 21.1538C223.638 21.0692 223.638 20.9846 223.638 20.9C223.638 20.3923 224.062 20.0538 224.569 20.0538H228.123C228.208 20.0538 228.292 20.0538 228.377 20.1385C223.723 17.7692 219.069 15.2308 215.854 13.2C236.669 13.0308 247.5 29.1923 247.162 29.4462ZM221.185 161.869C221.185 161.7 221.1 161.615 221.1 161.446C221.1 160.515 221.862 159.838 222.792 159.838H229.392C230.323 159.838 231.085 160.6 231.085 161.446C231.085 161.615 231.085 161.7 231 161.869C230.577 163.562 230.069 165.169 230.069 166.862L230.915 217.462C230.915 219.238 231.085 221.1 231.931 222.708C232.1 222.962 232.185 223.215 232.185 223.554C232.185 224.654 231.254 225.5 230.069 225.5H221.946C220.762 225.5 219.831 224.654 219.831 223.554C219.831 223.215 219.915 222.962 220.085 222.708C220.931 221.1 221.1 219.238 221.1 217.462L222.031 167.031C222.2 165.169 221.608 163.562 221.185 161.869ZM222.115 105.6C222.115 105.515 222.031 105.346 222.031 105.262C222.031 104.5 222.623 103.908 223.385 103.908H228.715C229.477 103.908 230.069 104.5 230.069 105.262C230.069 105.346 230.069 105.515 230.069 105.6C229.731 106.954 229.308 108.308 229.308 109.662L229.985 150.954C229.985 152.392 230.154 153.915 230.831 155.185C230.915 155.354 231 155.608 231 155.862C231 156.708 230.238 157.469 229.308 157.469H222.708C221.777 157.469 221.015 156.708 221.015 155.862C221.015 155.608 221.1 155.354 221.185 155.185C221.862 153.915 222.031 152.392 222.031 150.869L222.792 109.746C222.962 108.392 222.454 107.038 222.115 105.6ZM222.877 59.4C222.877 59.3154 222.877 59.2308 222.877 59.1462C222.877 58.5538 223.385 58.0462 223.977 58.0462H228.377C228.969 58.0462 229.477 58.5538 229.477 59.1462C229.477 59.2308 229.477 59.3154 229.477 59.4C229.223 60.5 228.885 61.6 228.885 62.7L229.477 96.3769C229.477 97.5615 229.562 98.8308 230.154 99.8462C230.238 100.015 230.323 100.185 230.323 100.438C230.323 101.2 229.731 101.708 228.969 101.708H223.554C222.792 101.708 222.2 101.115 222.2 100.438C222.2 100.269 222.285 100.015 222.369 99.8462C222.962 98.7462 223.046 97.5615 223.046 96.3769L223.638 62.7846C223.554 61.6 223.131 60.5 222.877 59.4ZM220.423 230.069C220.423 229.9 220.338 229.731 220.338 229.646C220.338 228.631 221.185 227.785 222.285 227.785H229.815C230.915 227.785 231.762 228.631 231.762 229.646C231.762 229.815 231.762 229.985 231.677 230.069C231.169 232.015 230.577 233.877 230.662 235.823L231.677 293.869C231.677 295.9 231.846 298.015 232.862 299.877C233.031 300.131 233.115 300.469 233.115 300.892C233.115 302.162 232.015 303.177 230.746 303.177H221.438C220.085 303.177 219.069 302.162 219.069 300.892C219.069 300.554 219.154 300.215 219.323 299.877C220.254 298.015 220.508 295.9 220.508 293.869L221.608 235.992C221.608 233.962 221.015 232.015 220.423 230.069ZM231.508 391.938H220.846C219.323 391.938 218.138 390.754 218.138 389.315C218.138 388.892 218.223 388.554 218.392 388.215C219.492 386.1 219.746 383.646 219.746 381.277L220.931 314.769C220.931 312.485 220.254 310.285 219.662 308C219.577 307.831 219.577 307.662 219.577 307.492C219.577 306.308 220.592 305.377 221.862 305.377H230.577C231.846 305.377 232.862 306.308 232.862 307.492C232.862 307.662 232.862 307.831 232.777 308C232.185 310.2 231.508 312.4 231.592 314.6L232.692 381.277C232.692 383.646 232.946 386.1 234.046 388.131C234.215 388.469 234.3 388.808 234.3 389.231C234.215 390.754 232.946 391.938 231.508 391.938ZM302.415 52.0385C280.415 56.9462 265.777 37.7385 266.031 37.3154C266.031 37.2308 290.485 46.7077 302.415 52.0385ZM265.608 38.5C266.115 38.1615 275.677 58.9769 273.308 72.6C266.623 64.3077 265.608 38.5 265.608 38.5ZM262.308 217.377L260.446 166.946C260.362 165.169 259.938 163.562 259.515 161.869C259.515 161.7 259.431 161.615 259.431 161.446C259.346 160.515 259.854 159.838 260.531 159.838H265.185C265.862 159.838 266.454 160.6 266.454 161.446C266.454 161.615 266.454 161.7 266.454 161.869C266.2 163.562 265.946 165.169 266.031 166.862L269.162 217.462C269.246 219.238 269.5 221.1 270.177 222.708C270.262 222.962 270.346 223.215 270.346 223.554C270.431 224.654 269.754 225.5 268.992 225.5H263.323C262.477 225.5 261.8 224.654 261.715 223.554C261.715 223.215 261.715 222.962 261.8 222.708C262.308 221.015 262.308 219.238 262.308 217.377ZM265.608 293.869L263.408 235.992C263.323 233.962 262.815 232.1 262.308 230.154C262.308 229.985 262.223 229.815 262.223 229.731C262.138 228.715 262.731 227.869 263.492 227.869H268.823C269.585 227.869 270.262 228.715 270.262 229.731C270.262 229.9 270.262 230.069 270.262 230.154C270.008 232.1 269.669 233.962 269.838 235.908L273.477 293.954C273.646 295.985 273.815 298.1 274.577 299.962C274.662 300.215 274.746 300.554 274.831 300.977C274.915 302.246 274.154 303.262 273.223 303.262H266.708C265.777 303.262 264.931 302.246 264.931 300.977C264.931 300.638 264.931 300.3 265.015 299.962C265.692 298.015 265.692 295.9 265.608 293.869ZM278.3 391.938H270.769C269.669 391.938 268.738 390.754 268.738 389.315C268.738 388.892 268.738 388.554 268.908 388.215C269.585 386.1 269.585 383.646 269.5 381.277L266.962 314.769C266.877 312.485 266.285 310.285 265.692 308C265.692 307.831 265.608 307.662 265.608 307.492C265.523 306.308 266.2 305.377 267.046 305.377H273.138C273.985 305.377 274.746 306.308 274.831 307.492C274.831 307.662 274.831 307.831 274.831 308C274.577 310.2 274.154 312.4 274.323 314.6L278.469 381.277C278.638 383.646 278.892 386.1 279.738 388.131C279.908 388.469 279.992 388.808 279.992 389.231C280.162 390.754 279.315 391.938 278.3 391.938ZM269.669 83.0077C269.669 83.0077 280.923 96.0385 286 102.808C270.262 99.2538 269.331 83.1769 269.669 83.0077ZM270.769 82.3308C270.769 82.3308 288.962 79.9615 297.508 79.8769C282.7 87.7462 270.6 82.5846 270.769 82.3308ZM317.054 307.492C317.054 307.662 316.969 307.831 316.969 308C316.377 310.2 315.615 312.4 315.446 314.6L309.523 381.277C309.354 383.646 309.185 386.1 309.777 388.131C309.862 388.469 309.862 388.808 309.862 389.231C309.692 390.669 308.762 391.854 307.662 391.854H300.131C299.031 391.854 298.354 390.669 298.438 389.231C298.438 388.808 298.608 388.469 298.777 388.131C299.792 386.015 300.131 383.562 300.469 381.192L308.085 314.685C308.338 312.4 308.085 310.2 307.831 307.915C307.831 307.746 307.831 307.577 307.831 307.408C307.915 306.223 308.762 305.292 309.608 305.292H315.7C316.631 305.377 317.223 306.308 317.054 307.492ZM324.415 229.646C324.415 229.815 324.331 229.985 324.331 230.069C323.823 232.015 323.146 233.877 322.977 235.823L317.815 293.869C317.646 295.9 317.562 298.015 318.069 299.877C318.154 300.131 318.154 300.469 318.154 300.892C318.069 302.162 317.138 303.177 316.208 303.177H309.692C308.762 303.177 308.085 302.162 308.254 300.892C308.254 300.554 308.423 300.215 308.508 299.877C309.354 298.015 309.692 295.9 309.946 293.869L316.546 235.992C316.8 233.962 316.546 232.1 316.377 230.154C316.377 229.985 316.377 229.815 316.377 229.731C316.462 228.715 317.223 227.869 317.985 227.869H323.315C323.908 227.785 324.5 228.546 324.415 229.646ZM330.762 161.446C330.762 161.615 330.762 161.7 330.677 161.869C330.169 163.562 329.662 165.169 329.492 166.862L325.008 217.462C324.838 219.238 324.754 221.1 325.177 222.708C325.262 222.962 325.262 223.215 325.262 223.554C325.177 224.654 324.415 225.5 323.569 225.5H317.9C317.054 225.5 316.546 224.654 316.631 223.554C316.631 223.215 316.715 222.962 316.885 222.708C317.646 221.1 317.9 219.238 318.154 217.462L323.908 167.031C324.077 165.254 323.908 163.646 323.738 161.954C323.738 161.785 323.738 161.7 323.738 161.531C323.823 160.6 324.415 159.923 325.092 159.923H329.746C330.423 159.838 330.846 160.515 330.762 161.446ZM335.754 105.346C335.754 105.431 335.754 105.6 335.669 105.685C335.246 107.038 334.823 108.392 334.738 109.746L331.015 151.038C330.846 152.477 330.846 154 331.185 155.269C331.269 155.438 331.269 155.692 331.269 155.946C331.185 156.792 330.592 157.554 329.915 157.554H325.262C324.585 157.554 324.162 156.792 324.246 155.946C324.246 155.692 324.331 155.438 324.415 155.269C325.008 154 325.262 152.477 325.431 150.954L330.169 109.831C330.338 108.392 330.169 107.038 330 105.685C330 105.6 330 105.431 330 105.346C330.085 104.585 330.592 103.992 331.1 103.992H334.908C335.5 103.992 335.838 104.585 335.754 105.346ZM339.9 59.4C339.562 60.5 339.223 61.6 339.138 62.7L336.177 96.3769C336.092 97.5615 336.008 98.8308 336.262 99.8462C336.346 100.015 336.346 100.185 336.262 100.438C336.177 101.2 335.669 101.708 335.162 101.708H331.354C330.846 101.708 330.423 101.115 330.508 100.438C330.508 100.269 330.592 100.015 330.677 99.8462C331.185 98.7462 331.354 97.5615 331.523 96.3769L335.331 62.7846C335.5 61.6 335.331 60.5 335.246 59.4C335.246 59.3154 335.246 59.2308 335.246 59.1462C335.331 58.5538 335.754 58.0462 336.177 58.0462H339.223C339.646 58.0462 339.985 58.5538 339.9 59.1462C339.9 59.2308 339.9 59.3154 339.9 59.4ZM359.108 99.8462C359.7 98.7462 359.785 97.5615 359.785 96.3769L360.377 62.7846C360.377 61.6 360.038 60.5 359.7 59.4C359.7 59.3154 359.7 59.2308 359.7 59.1462C359.7 58.5538 360.208 58.0462 360.8 58.0462H365.2C365.792 58.0462 366.3 58.5538 366.3 59.1462C366.3 59.2308 366.3 59.3154 366.3 59.4C366.046 60.5 365.708 61.6 365.708 62.7L366.3 96.3769C366.3 97.5615 366.385 98.8308 366.977 99.8462C367.062 100.015 367.146 100.185 367.146 100.438C367.146 101.2 366.554 101.708 365.792 101.708H360.377C359.615 101.708 359.023 101.115 359.023 100.438C358.938 100.185 359.023 100.015 359.108 99.8462ZM367.654 303.092H358.346C357.838 303.092 357.415 302.923 357.077 302.754C356.738 303.008 356.315 303.092 355.977 303.092H348.023C346.923 303.092 346.077 302.077 346.246 300.808C346.331 300.469 346.415 300.131 346.585 299.792C347.685 297.931 348.023 295.815 348.362 293.785L356.4 235.908C356.654 233.877 356.4 232.015 356.146 230.069C356.146 229.9 356.146 229.731 356.146 229.646C356.231 228.631 357.162 227.785 358.092 227.785H366.808C367.908 227.785 368.754 228.631 368.754 229.646C368.754 229.815 368.754 229.985 368.669 230.069C368.162 232.015 367.569 233.877 367.654 235.823L368.669 293.869C368.669 295.9 368.838 298.015 369.854 299.877C370.023 300.131 370.108 300.469 370.108 300.892C370.023 302.077 369.008 303.092 367.654 303.092ZM373.746 161.446C373.746 161.615 373.662 161.7 373.662 161.869C373.069 163.562 372.477 165.169 372.223 166.862L367.738 207.985L367.908 217.462C367.908 219.238 368.077 221.1 368.923 222.708C369.092 222.962 369.177 223.215 369.177 223.554C369.177 224.654 368.246 225.5 367.062 225.5H358.092C357.077 225.5 356.4 224.654 356.569 223.554C356.569 223.215 356.738 222.962 356.823 222.708C357.415 221.692 357.754 220.508 358.008 219.408C358.092 218.731 358.092 218.138 358.092 217.462L359.023 167.031C359.023 165.254 358.515 163.646 358.008 161.954C358.008 161.785 357.923 161.7 357.923 161.531C357.923 160.6 358.685 159.923 359.615 159.923H366.215C366.3 159.923 366.385 159.923 366.469 160.008C366.554 160.008 366.638 159.923 366.723 159.923H372.392C373.238 159.838 373.831 160.515 373.746 161.446ZM391.6 128.023C384.238 126.331 380.092 121.931 377.808 117.7L374.169 151.038C374 152.477 373.915 154 374.338 155.269C374.423 155.438 374.423 155.692 374.423 155.946C374.338 156.792 373.577 157.554 372.731 157.554H367.062C366.977 157.554 366.808 157.469 366.723 157.469C366.554 157.469 366.469 157.554 366.3 157.554H359.7C358.769 157.554 358.008 156.792 358.008 155.946C358.008 155.692 358.092 155.438 358.177 155.269C358.854 154 359.023 152.477 359.023 150.954L359.531 122.523C356.4 124.469 352.762 126.162 348.7 127.008C351.408 124.469 355.554 121.338 359.615 118.292L359.785 109.831C359.785 108.392 359.362 107.038 359.023 105.685C359.023 105.6 358.938 105.431 358.938 105.346C358.938 104.585 359.531 103.992 360.292 103.992H365.623C366.385 103.992 366.977 104.585 366.977 105.346C366.977 105.431 366.977 105.6 366.977 105.685C366.638 107.038 366.215 108.392 366.215 109.746L366.3 113.554C370.192 110.846 372.985 108.985 372.985 108.985C373.069 109.069 370.7 112.962 366.385 117.192L366.469 123.877C368.246 119.308 370.954 114.485 372.731 111.608L372.985 109.915C373.154 108.477 372.985 107.123 372.815 105.769C372.815 105.685 372.815 105.515 372.815 105.431C372.9 104.669 373.492 104.077 374.169 104.077H378.738C379.415 104.077 379.838 104.669 379.754 105.431C379.754 105.515 379.754 105.685 379.669 105.769C379.5 106.277 379.331 106.785 379.162 107.292C384.662 106.615 396.592 105.262 403.023 105.177C392.277 110.931 383.054 109.746 378.823 108.562C378.738 108.985 378.654 109.323 378.569 109.746L378.315 111.946C382.123 116.262 388.131 123.538 391.6 128.023ZM416.815 217.377L414.954 166.946C414.869 165.169 414.446 163.562 414.023 161.869C414.023 161.7 413.938 161.615 413.938 161.446C413.854 160.515 414.362 159.838 415.038 159.838H419.692C420.369 159.838 420.962 160.6 420.962 161.446C420.962 161.615 420.962 161.7 420.962 161.869C420.708 163.562 420.454 165.169 420.538 166.862L423.669 217.462C423.754 219.238 424.008 221.1 424.685 222.708C424.769 222.962 424.854 223.215 424.854 223.554C424.938 224.654 424.262 225.5 423.5 225.5H417.831C416.985 225.5 416.308 224.654 416.223 223.554C416.223 223.215 416.223 222.962 416.308 222.708C416.9 221.015 416.9 219.238 416.815 217.377Z" fill="#98D531"/>
<path id="Vector_7" opacity="0.1" d="M366.977 150.954C366.977 151.377 366.977 151.8 367.062 152.223C367.146 151.8 367.231 151.377 367.315 150.869L371.631 119.9C370.362 123.2 368.754 126.669 366.638 129.546L366.977 150.954Z" fill="#98D531"/>
</g>
<path id="Vector_8" d="M186 468C284.307 468 364 450.693 364 429.343C364 407.993 284.307 390.685 186 390.685C87.6933 390.685 8 407.993 8 429.343C8 450.693 87.6933 468 186 468Z" fill="black" fill-opacity="0.2"/>
<path id="Vector_9" d="M278.373 429.795C277.979 429.795 277.616 429.735 277.223 429.644C276.528 429.463 206.779 411.93 185.395 411.93C164.797 411.93 82.8901 425.721 74.7538 427.109C72.6971 427.954 70.4588 427.743 68.4323 426.505C66.2244 425.148 64.4096 422.643 62.6855 418.599C61.3849 415.581 60.1751 411.688 59.2072 407.343C57.1807 398.44 56.2733 388.995 56.848 382.024C57.4227 374.479 63.4719 367.237 68.4323 362.499C74.1489 357.037 81.408 351.967 88.3647 348.587C91.6616 346.987 94.656 345.871 97.2572 345.297C95.9566 340.65 94.9282 335.641 94.2023 330.48C92.9622 321.638 92.6899 312.796 93.4159 304.226C94.2628 294.237 96.4405 284.852 99.9188 276.341C103.911 266.564 109.598 257.903 116.827 250.66C118.067 249.393 119.942 248.97 121.636 249.544C181.161 269.702 202.605 257.903 215.4 250.872C218.364 249.242 220.904 247.824 223.536 246.979C226.923 245.862 230.009 245.832 233.003 246.858C236.935 248.216 240.141 251.867 242.803 258.024C247.431 268.676 250.395 287.085 250.697 307.213C251 326.225 248.882 343.004 244.89 354.109C249.911 357.429 259.045 360.447 267.242 363.163C273.805 365.335 280.611 367.569 285.964 370.103C290.441 372.216 296.581 375.717 298.154 381.42C299.817 387.486 297.609 396.901 291.439 410.24C287.144 419.504 282.547 427.169 282.335 427.501C281.518 428.95 280.006 429.795 278.373 429.795ZM185.395 402.635C205.358 402.635 261.495 416.155 276.104 419.776C277.798 416.758 280.52 411.779 283.061 406.317C290.017 391.258 289.685 385.615 289.201 383.895C289.05 383.351 288.112 381.42 282.002 378.523C277.163 376.23 270.63 374.087 264.338 372.005C252.633 368.142 241.563 364.49 235.997 358.817C234.667 357.459 234.273 355.407 235.06 353.657C239.324 344.09 241.684 326.768 241.411 307.364C241.109 288.654 238.387 271.181 234.273 261.705C232.005 256.454 230.16 255.7 229.978 255.64C227.649 254.825 225.048 256.153 219.906 258.989C212.95 262.822 203.392 268.073 187.391 269.612C178.801 270.427 169.183 270.065 158.748 268.495C147.527 266.805 135.005 263.727 121.454 259.261C95.6541 287.417 101.28 329.665 108.055 348.466C108.721 350.337 108.116 352.45 106.543 353.687C105.061 354.864 103.004 355.015 101.371 354.079C100.705 353.989 98.4973 354.23 94.414 356.01C90.482 357.731 86.0357 360.326 81.8617 363.374C72.6971 370.073 66.5268 377.648 66.1336 382.688C65.6799 388.512 66.4663 396.931 68.1904 404.657C69.9447 412.503 71.8502 416.426 72.8786 417.905C79.7142 416.818 163.497 402.635 185.395 402.635Z" fill="#333833"/>
<path id="Vector_10" fill-rule="evenodd" clip-rule="evenodd" d="M73.3323 422.643C73.3323 422.643 163.194 407.282 185.395 407.282C207.626 407.282 278.373 425.147 278.373 425.147C278.373 425.147 296.914 394.487 293.677 382.687C290.471 370.888 249.941 366.361 239.325 355.588C251.363 328.609 246.463 256.454 231.491 251.294C216.519 246.134 207.173 283.493 120.123 254.01C91.1777 283.011 95.7146 328.066 103.669 350.096C96.8338 345.599 62.7158 366.754 61.506 382.416C60.2659 398.048 67.1318 426.324 73.3323 422.643Z" fill="#373135"/>
<path id="Vector_11" fill-rule="evenodd" clip-rule="evenodd" d="M289.896 394.668C292.83 389.749 294.464 385.464 293.707 382.657C290.501 370.858 249.971 366.331 239.355 355.558C251.393 328.579 246.493 256.424 231.521 251.264C223.778 248.578 217.517 257.33 201.184 262.279C201.214 265.689 201.728 268.012 202.666 268.707C209.501 273.746 231.037 308.119 225.29 330.691C219.543 353.264 225.683 362.831 225.683 362.831C236.3 391.107 264.096 395.423 289.896 394.668Z" fill="#41473E"/>
<path id="Vector_12" fill-rule="evenodd" clip-rule="evenodd" d="M246.13 355.045C259.559 329.846 254.115 262.49 237.389 257.662C220.662 252.833 232.126 291.159 134.853 263.607C70.0354 388.723 217.517 414.615 246.13 355.045Z" fill="#F2F6F1"/>
<path id="Vector_13" fill-rule="evenodd" clip-rule="evenodd" d="M134.702 263.878C107.632 315.392 118.006 352.963 142.506 370.919C142.506 370.919 152.275 358.365 146.922 337.361C141.568 316.388 155.844 290.314 164.555 279.601C149.16 276.553 139.693 266.866 134.702 263.878Z" fill="#E3E6E2"/>
<path id="Vector_14" fill-rule="evenodd" clip-rule="evenodd" d="M246.13 355.045C259.559 329.847 254.115 262.49 237.389 257.662C227.044 254.674 227.468 268.194 206.295 272.419C215.006 283.102 230.25 311.257 225.29 330.662C219.543 353.235 225.683 362.801 225.683 362.801C227.135 366.633 228.889 370.013 230.916 373.001C237.358 368.323 242.621 362.318 246.13 355.045Z" fill="#E3E6E2"/>
<path id="Vector_15" fill-rule="evenodd" clip-rule="evenodd" d="M251.604 287.145C250.516 281.321 249.88 275.889 248.701 271.302C236.33 278.092 219.513 283.102 197.615 285.124C197.615 285.124 159.837 288.866 128.411 277.308C126.415 282.106 124.721 286.753 123.329 291.25C157.024 311.257 219.664 310.292 251.604 287.145Z" fill="#E3E6E2"/>
<g id="left_hand">
<path id="Vector_16" d="M103.972 376.26C89.8165 376.26 78.5951 364.128 78.0809 363.585C77.8692 363.344 77.6877 363.102 77.5365 362.861C71.6989 353.144 68.2206 342.582 67.1922 331.537C66.3151 321.97 67.2527 311.891 70.0051 301.57C75.1168 282.347 85.6728 265.478 93.6276 254.734C94.4442 253.618 95.7448 252.924 97.1362 252.863C98.5275 252.803 99.8886 253.346 100.826 254.402C101.068 254.674 101.28 254.916 101.492 255.127C101.552 255.187 101.613 255.247 101.643 255.308C101.673 255.338 101.734 255.398 101.764 255.429C101.855 255.519 101.976 255.64 102.066 255.73C102.097 255.76 102.157 255.821 102.187 255.851C105.817 259.563 109.295 261.917 110.687 262.822L110.717 262.852C110.777 262.882 110.808 262.913 110.868 262.943L110.989 263.033C111.019 263.063 111.08 263.094 111.11 263.094L111.201 263.154C111.261 263.184 111.322 263.214 111.382 263.275C111.624 263.426 111.866 263.577 112.078 263.758C112.411 263.999 112.774 264.24 113.137 264.512C113.197 264.542 113.257 264.603 113.318 264.633C113.711 264.904 114.195 265.236 114.679 265.538C114.709 265.568 114.77 265.598 114.8 265.629L114.83 265.659C115.284 265.961 115.738 266.232 116.191 266.504L116.252 266.534C116.766 266.836 117.25 267.137 117.734 267.409C117.764 267.439 117.794 267.439 117.825 267.469C117.946 267.53 118.067 267.59 118.188 267.65C118.551 267.862 118.914 268.043 119.246 268.224C119.337 268.254 119.398 268.314 119.458 268.345C119.972 268.616 120.396 268.827 120.819 269.039C120.88 269.069 120.94 269.099 121.001 269.129C121.394 269.34 121.817 269.521 122.301 269.763C122.392 269.793 122.483 269.853 122.573 269.884C122.997 270.095 123.451 270.306 123.965 270.548C124.055 270.578 124.146 270.608 124.207 270.668C124.691 270.879 125.205 271.121 125.749 271.332C125.81 271.362 125.84 271.362 125.9 271.393C126.324 271.574 126.778 271.755 127.352 271.996H127.383C127.443 272.026 127.504 272.056 127.594 272.087C127.927 272.237 128.29 272.358 128.683 272.509C128.804 272.569 128.955 272.6 129.076 272.66C129.137 272.69 129.197 272.69 129.258 272.72C129.802 272.932 130.347 273.113 130.861 273.324H130.891L130.982 273.354C131.405 273.505 131.829 273.656 132.252 273.807L132.464 273.867C132.555 273.897 132.615 273.927 132.706 273.958C133.16 274.109 133.644 274.259 134.279 274.471L134.369 274.501C134.4 274.501 134.4 274.501 134.43 274.531C135.035 274.712 135.519 274.863 136.003 275.014C136.063 275.044 136.124 275.044 136.184 275.074L136.245 275.104L136.487 275.165C136.94 275.285 137.364 275.436 137.818 275.527C137.908 275.557 137.969 275.587 138.06 275.587H138.09L139.693 276.01C141.054 276.372 142.143 277.338 142.717 278.605C143.292 279.872 143.262 281.351 142.627 282.588C133.976 299.76 129.863 314.607 131.405 323.328C135.247 345.358 132.978 352.963 131.526 355.437C125.054 367.871 116.857 374.842 107.178 376.109C106.059 376.169 105 376.26 103.972 376.26ZM85.2493 357.61C86.9734 359.36 96.1985 368.112 105.938 366.814C112.441 365.939 118.278 360.598 123.269 350.941C123.299 350.88 123.36 350.79 123.39 350.73C123.602 350.126 125.568 344.272 122.18 324.867C121.122 318.802 121.968 311.106 124.66 301.962C126.354 296.229 128.804 289.891 131.829 283.373C131.768 283.343 131.678 283.343 131.617 283.313L131.526 283.283C131.496 283.283 131.496 283.283 131.466 283.252C131.012 283.101 130.437 282.92 129.833 282.709C129.742 282.679 129.681 282.649 129.591 282.619L129.258 282.498C128.804 282.347 128.32 282.166 127.836 282.015L127.746 281.985C127.171 281.774 126.596 281.562 126.052 281.351H126.021C125.931 281.321 125.87 281.291 125.779 281.261C125.628 281.2 125.447 281.14 125.296 281.08C124.902 280.929 124.509 280.778 124.116 280.597C124.055 280.567 124.025 280.567 123.965 280.536C123.269 280.265 122.694 280.023 122.18 279.812C122.12 279.782 122.089 279.782 122.029 279.752C121.515 279.54 121.001 279.299 120.456 279.058C120.396 279.027 120.335 278.997 120.275 278.997C119.7 278.726 119.156 278.484 118.672 278.243C118.611 278.213 118.52 278.182 118.46 278.152C117.794 277.82 117.25 277.579 116.736 277.307C116.675 277.277 116.645 277.247 116.585 277.217C116.101 276.975 115.586 276.704 114.982 276.402C114.891 276.372 114.83 276.311 114.74 276.281C114.377 276.1 114.014 275.889 113.681 275.708C113.53 275.617 113.378 275.557 113.257 275.467C113.197 275.436 113.137 275.406 113.076 275.346C112.532 275.044 112.017 274.742 111.503 274.44L111.443 274.41C110.868 274.078 110.293 273.716 109.749 273.354L109.719 273.324C109.174 272.992 108.69 272.66 108.267 272.358C108.206 272.328 108.116 272.268 108.055 272.207C107.601 271.875 107.117 271.574 106.634 271.211C106.603 271.211 106.573 271.181 106.573 271.181C106.482 271.121 106.392 271.091 106.331 271.03L106.301 271C106.271 271 106.271 270.97 106.24 270.97L106.18 270.94C106.15 270.91 106.119 270.91 106.119 270.879L105.968 270.789C105.908 270.759 105.877 270.729 105.817 270.698C104.486 269.853 101.431 267.801 97.9831 264.663C83.0413 286.24 65.0145 323.358 85.2493 357.61ZM123.662 350.337C123.662 350.367 123.662 350.367 123.662 350.337C123.662 350.367 123.662 350.367 123.662 350.337Z" fill="#333833"/>
<path id="Vector_17" fill-rule="evenodd" clip-rule="evenodd" d="M97.3782 257.45C80.8636 279.782 58.1486 321.548 81.5291 360.447C81.5291 360.447 108.388 389.9 127.443 353.083C127.443 353.083 131.012 348.194 126.808 324.052C124.781 312.434 131.224 294.81 138.453 280.415C137.878 280.265 137.303 280.114 136.729 279.933L136.577 279.872C136.003 279.721 135.428 279.54 134.884 279.389L134.732 279.329C134.158 279.178 133.583 278.997 133.039 278.816L132.918 278.786C132.343 278.605 131.768 278.424 131.224 278.212L131.133 278.182C130.558 278.001 129.984 277.79 129.439 277.579L129.349 277.549C128.774 277.337 128.199 277.126 127.655 276.915L127.534 276.885C126.959 276.673 126.415 276.462 125.87 276.221L125.78 276.191C125.205 275.949 124.63 275.738 124.086 275.496L124.055 275.466C123.481 275.225 122.936 274.983 122.392 274.742L122.331 274.712C121.787 274.47 121.212 274.199 120.668 273.927L120.607 273.897C120.063 273.625 119.519 273.354 118.974 273.082L118.914 273.052C118.369 272.78 117.825 272.509 117.28 272.207L117.25 272.177C116.706 271.905 116.161 271.573 115.647 271.302L115.617 271.272C115.072 270.97 114.558 270.668 114.044 270.336L113.983 270.306C113.469 270.004 112.955 269.672 112.441 269.34L112.38 269.31C111.866 268.978 111.352 268.646 110.868 268.314L110.838 268.284C110.324 267.922 109.809 267.59 109.325 267.228H109.295H109.265L109.235 267.198H109.205L109.144 267.167L109.084 267.137L109.023 267.107H108.993L108.902 267.047L108.842 266.986L108.721 266.896L108.66 266.866L108.479 266.745L108.358 266.685C106.634 265.598 102.792 262.943 98.7998 258.838L98.7695 258.808C98.588 258.627 98.4065 258.446 98.2553 258.265L98.2251 258.205C97.8924 258.024 97.6201 257.722 97.3782 257.45Z" fill="#4D544A"/>
<path id="Vector_18" fill-rule="evenodd" clip-rule="evenodd" d="M97.3781 257.45C95.0794 260.558 92.6597 264.059 90.24 267.861C100.342 275.406 113.62 285.244 133.22 291.853C134.853 288.02 136.668 284.157 138.543 280.446L138.453 280.415C137.878 280.265 137.303 280.114 136.729 279.933L136.608 279.902C136.033 279.751 135.458 279.57 134.884 279.42L134.763 279.389C134.188 279.208 133.613 279.027 133.069 278.846L132.948 278.816C132.373 278.635 131.799 278.454 131.224 278.243L131.133 278.212C130.558 278.031 129.984 277.82 129.409 277.609L129.349 277.579C128.774 277.367 128.199 277.156 127.625 276.945L127.534 276.915C126.959 276.704 126.384 276.492 125.84 276.251L125.749 276.221C125.175 276.009 124.6 275.768 124.055 275.527L123.995 275.496C123.42 275.255 122.876 275.014 122.301 274.772L122.241 274.742C121.696 274.501 121.122 274.229 120.577 273.957L120.517 273.927C119.972 273.656 119.428 273.384 118.883 273.112L118.823 273.082C118.278 272.811 117.734 272.509 117.19 272.237L117.129 272.207C116.585 271.905 116.04 271.604 115.496 271.302C114.951 271 114.437 270.698 113.893 270.366L113.832 270.336C113.318 270.034 112.804 269.702 112.29 269.37L112.229 269.34C111.715 269.008 111.201 268.676 110.717 268.314L110.687 268.284C110.172 267.922 109.658 267.59 109.174 267.228H109.144H109.114L109.083 267.198H109.053L108.993 267.167L108.932 267.137L108.872 267.107H108.842L108.751 267.047L108.66 266.986L108.539 266.926H108.509L108.418 266.866L108.327 266.805L108.206 266.745C108.055 266.654 107.874 266.534 107.692 266.413C105.908 265.236 102.611 262.882 99.1929 259.442C99.0114 259.261 98.83 259.08 98.6787 258.899L98.6485 258.869C98.467 258.687 98.3158 258.506 98.1343 258.325L98.0738 258.265C97.8923 258.024 97.6504 257.752 97.3781 257.45Z" fill="#41473E"/>
<path id="Vector_19" fill-rule="evenodd" clip-rule="evenodd" d="M94.2627 369.44C103.73 373.544 116.796 373.665 127.443 353.084C127.443 353.084 131.012 348.195 126.808 324.053C124.781 312.434 131.224 294.811 138.453 280.416C137.908 280.265 137.334 280.114 136.789 279.963L136.517 279.873C136.063 279.752 135.64 279.631 135.186 279.48C134.914 279.39 134.611 279.299 134.339 279.209C134.097 279.148 133.885 279.058 133.643 278.998C133.16 278.847 132.645 278.696 132.161 278.515C122.15 291.974 115.193 307.033 118.49 320.794C126.233 353.325 120.94 360.537 94.2627 369.44Z" fill="#41473E"/>
<path id="Vector_20" fill-rule="evenodd" clip-rule="evenodd" d="M97.3782 257.45C80.8636 279.782 58.1486 321.548 81.5291 360.447C81.5291 360.447 86.1265 365.456 92.8412 368.776C80.6822 354.471 72.9088 340.228 77.2341 311.71C80.1982 292.305 88.3345 274.35 99.6769 259.864C99.6164 259.804 99.5559 259.744 99.4954 259.683C99.3744 259.563 99.2232 259.412 99.1022 259.291C99.0417 259.231 98.951 259.14 98.8603 259.05C98.7393 258.929 98.6183 258.808 98.5275 258.687C98.4368 258.597 98.3461 258.476 98.2251 258.386C98.1343 258.295 98.0436 258.205 97.9529 258.084C97.8319 257.963 97.7109 257.812 97.5899 257.692L97.5597 257.661C97.5294 257.601 97.4689 257.541 97.3782 257.45Z" fill="#747974"/>
</g>
<g id="right_hand">
<path id="Vector_21" d="M267.998 376.26C266.97 376.26 265.911 376.199 264.822 376.048C255.143 374.781 246.946 367.81 240.474 355.377C238.992 352.902 236.753 345.297 240.595 323.268C242.168 314.245 237.57 298.25 228.284 280.415C227.649 279.208 227.589 277.79 228.103 276.523C228.617 275.255 229.646 274.289 230.946 273.867C247.551 268.375 259.801 259.925 266.365 249.423C267.151 248.156 268.542 247.341 270.055 247.25C271.567 247.16 273.019 247.793 273.956 249.001C282.546 259.714 294.131 276.673 300.483 296.5C304.021 307.606 305.564 318.439 304.989 328.73C304.324 340.831 300.755 352.299 294.433 362.861C294.282 363.132 294.101 363.374 293.889 363.585C293.375 364.128 282.153 376.26 267.998 376.26ZM248.671 350.941C253.661 360.628 259.529 365.969 266.062 366.814C271.567 367.538 276.921 364.973 280.429 362.68C283.635 360.598 285.934 358.395 286.72 357.61C308.165 321.367 287.477 282.377 270.478 259.653C267.242 263.576 263.31 267.228 258.743 270.487C253.086 274.531 246.463 278.001 238.961 280.868C244.859 293.06 252.119 311.498 249.79 324.837C247.703 336.818 247.642 343.607 247.945 347.199C248.096 349.039 248.368 350.065 248.489 350.488C248.55 350.639 248.58 350.729 248.58 350.729C248.58 350.729 248.55 350.699 248.55 350.669C248.55 350.669 248.519 350.609 248.489 350.579C248.489 350.548 248.429 350.488 248.429 350.458C248.398 350.428 248.308 350.277 248.308 350.277L244.557 353.023L248.671 350.941Z" fill="#333833"/>
<path id="Vector_22" fill-rule="evenodd" clip-rule="evenodd" d="M270.327 251.897C286.63 272.237 315.938 318.047 290.441 360.447C290.441 360.447 263.582 389.9 244.527 353.083C244.527 353.083 240.958 348.194 245.162 324.052C247.279 311.83 240.081 293.03 232.398 278.273C251.393 272.026 263.673 262.52 270.327 251.897Z" fill="#4D544A"/>
<path id="Vector_23" fill-rule="evenodd" clip-rule="evenodd" d="M270.297 251.897C273.745 256.183 277.737 261.584 281.7 267.861C271.597 275.406 258.319 285.244 238.719 291.853C236.753 287.266 234.545 282.648 232.307 278.303C251.362 272.056 263.673 262.55 270.297 251.897Z" fill="#41473E"/>
<path id="Vector_24" fill-rule="evenodd" clip-rule="evenodd" d="M277.707 369.44C268.24 373.544 255.174 373.664 244.527 353.083C244.527 353.083 240.958 348.195 245.162 324.052C247.279 311.83 240.081 293.03 232.398 278.273C234.334 277.639 236.239 276.945 238.024 276.251C248.973 290.284 256.958 306.308 253.48 320.854C245.737 353.325 251.03 360.537 277.707 369.44Z" fill="#41473E"/>
<path id="Vector_25" fill-rule="evenodd" clip-rule="evenodd" d="M270.327 251.897C286.63 272.237 315.939 318.047 290.441 360.447C290.441 360.447 285.843 365.456 279.129 368.776C291.257 354.471 299.061 340.227 294.706 311.71C291.409 290.072 281.669 270.215 268.179 255.006C268.966 253.98 269.662 252.954 270.327 251.897Z" fill="#747974"/>
</g>
<path id="Vector_26" d="M256.777 178.385C256.02 178.385 255.295 178.204 254.629 177.872C253.51 177.298 252.663 176.272 252.3 175.065C244.255 147.694 226.318 135.442 212.677 129.98C210.681 129.165 209.471 127.113 209.804 124.97C210.772 118.543 212.768 113.02 215.732 108.554C219.846 102.337 225.683 98.3839 233.094 96.7844C237.419 95.8489 241.653 95.7584 245.706 96.5732C249.396 97.2975 252.996 98.7762 256.323 100.949C268.482 108.916 275.408 124.88 277.828 137.192C279.613 146.366 279.159 154.756 276.467 161.485C274.924 165.378 272.626 168.728 269.692 171.504C266.576 174.401 262.735 176.665 258.259 178.174C257.775 178.294 257.261 178.385 256.777 178.385ZM219.664 122.858C228.768 127.022 236.723 132.786 243.377 140.029C250.425 147.694 255.869 156.898 259.62 167.43C270.387 161.304 270.629 148.871 268.694 139.003C266.728 129.044 260.981 115.163 251.211 108.765C246.281 105.536 240.988 104.6 235.029 105.898C227.075 107.558 221.903 113.292 219.664 122.858Z" fill="#333833"/>
<path id="Vector_27" fill-rule="evenodd" clip-rule="evenodd" d="M214.401 125.664C215.793 116.37 220.299 104.298 234.031 101.311C257.17 96.3014 269.904 121.017 273.261 138.067C276.316 153.669 272.747 168.366 256.777 173.737C249.427 148.72 233.396 133.239 214.401 125.664Z" fill="#4D544A"/>
<path id="Vector_28" fill-rule="evenodd" clip-rule="evenodd" d="M230.855 102.216C231.853 101.854 232.912 101.552 234.031 101.311C257.17 96.3014 269.903 121.017 273.261 138.067C274.894 146.457 274.622 154.574 271.537 161.123C272.716 149.052 271.083 130.764 259.741 115.947C250.727 104.178 239.627 101.854 230.855 102.216Z" fill="#747974"/>
<path id="Vector_29" d="M244.95 167.702C243.105 167.702 241.351 166.585 240.625 164.805C236.391 154.394 229.646 146.336 220.572 140.904C218.878 139.878 218.001 137.917 218.424 135.985C220.874 124.307 227.317 116.913 236.633 115.193C241.714 114.257 247.279 116.611 252.27 121.862C256.535 126.328 259.862 132.424 261.435 138.52C263.007 144.616 262.735 150.41 260.678 155.239C258.228 161.003 253.298 165.227 246.432 167.491C245.918 167.611 245.434 167.702 244.95 167.702ZM228.315 134.808C232.338 137.555 235.967 140.844 239.143 144.526C242.319 148.207 245.041 152.372 247.279 156.898C253.782 152.975 253.752 146.185 252.361 140.784C249.79 130.704 242.016 123.582 238.296 124.276C232.7 125.333 229.797 130.101 228.315 134.808Z" fill="#333833"/>
<path id="Vector_30" fill-rule="evenodd" clip-rule="evenodd" d="M244.95 163.055C240.081 151.044 232.247 142.474 222.961 136.921C224.05 131.761 227.256 121.651 237.449 119.75C251.06 117.215 271.265 154.454 244.95 163.055Z" fill="#EA9191"/>
<path id="Vector_31" fill-rule="evenodd" clip-rule="evenodd" d="M243.801 160.369C238.871 149.747 231.551 142.051 222.991 136.891C223.959 132.304 226.591 123.824 234.304 120.655C240.171 123.884 249.064 131.338 250.909 147.212L252.3 159.011C250.637 160.49 248.519 161.727 245.948 162.693L243.801 160.369Z" fill="#EA9191"/>
<path id="Vector_32" d="M105.454 182.55C105.272 182.55 105.061 182.55 104.879 182.519C104.516 182.489 104.184 182.429 103.851 182.338C98.5577 181.282 93.9602 179.351 90.2399 176.574C86.6709 173.919 83.8882 170.539 81.9222 166.465C78.5951 159.494 77.8389 150.531 79.7747 140.573C82.1339 128.351 88.8788 112.507 100.766 104.691C103.972 102.579 107.42 101.161 110.989 100.466C114.86 99.712 118.914 99.8025 123.057 100.708C135.791 103.514 143.867 113.956 145.772 130.101C145.984 132.002 145.046 133.813 143.383 134.718C128.381 142.836 117.704 155.028 113.288 169.03C112.048 172.953 110.928 176.333 109.84 179.411C109.174 181.343 107.39 182.55 105.454 182.55ZM116.312 109.278C112.592 109.278 109.174 110.335 105.877 112.477C96.3799 118.694 90.8146 132.455 88.9091 142.323C87.3665 150.32 87.8505 157.291 90.3307 162.482C92.5992 167.25 96.6522 170.599 102.399 172.41C103.034 170.509 103.7 168.487 104.395 166.284C107.057 157.864 111.533 150.079 117.704 143.168C122.815 137.434 128.986 132.425 136.063 128.23C134.611 120.474 130.77 111.964 121.031 109.821C119.428 109.459 117.825 109.278 116.312 109.278Z" fill="#333833"/>
<path id="Vector_33" fill-rule="evenodd" clip-rule="evenodd" d="M141.145 130.704C140.056 121.41 135.972 108.373 122.059 105.295C99.8281 100.346 87.548 124.699 84.3419 141.478C81.1056 158.256 85.5518 173.979 104.758 177.812C104.97 177.872 105.212 177.902 105.424 177.932C106.452 175.005 107.571 171.686 108.841 167.702C113.893 151.617 125.931 138.943 141.145 130.704Z" fill="#4D544A"/>
<path id="Vector_34" fill-rule="evenodd" clip-rule="evenodd" d="M123.42 105.627C122.967 105.506 122.513 105.386 122.059 105.265C99.828 100.346 87.548 124.699 84.3419 141.478C82.3456 151.829 83.2833 161.757 88.7881 168.759C82.1036 128.803 102.157 107.407 123.42 105.627Z" fill="#747974"/>
<path id="Vector_35" d="M109.144 171.444C109.114 171.444 109.083 171.444 109.083 171.444C106.936 171.414 104.123 171.022 101.703 168.366C99.8885 166.374 98.467 163.387 96.9546 158.317C95.5633 153.7 95.6843 148.117 97.2571 142.232C98.6787 136.921 101.28 131.64 104.546 127.385C109.598 120.776 115.738 117.215 121.787 117.366C126.868 117.487 131.254 119.478 134.46 123.1C136.729 125.635 138.422 129.015 139.542 133.119C140.056 135.05 139.3 137.102 137.636 138.219C125.84 146.035 117.522 156.416 113.56 168.276C112.925 170.177 111.14 171.444 109.144 171.444ZM121.424 126.691C118.52 126.691 114.981 129.045 111.927 133.058C106.664 139.939 104.063 149.656 105.847 155.692C106.301 157.261 106.724 158.438 107.087 159.343C111.806 149.022 119.428 139.878 129.5 132.545C127.262 127.475 123.965 126.751 121.545 126.691C121.515 126.691 121.454 126.691 121.424 126.691Z" fill="#333833"/>
<path id="Vector_36" fill-rule="evenodd" clip-rule="evenodd" d="M135.035 134.356C133.553 128.864 130.135 122.255 121.636 122.044C109.325 121.742 97.4386 143.832 101.371 157.019C104.032 165.952 106.059 166.767 109.114 166.797C113.62 153.368 122.997 142.323 135.035 134.356Z" fill="#EA9191"/>
<path id="Vector_37" fill-rule="evenodd" clip-rule="evenodd" d="M135.035 134.356C133.976 130.403 131.889 125.876 127.655 123.552C118.097 128.049 108.72 136.77 109.87 153.519C110.112 156.959 110.324 160.128 110.565 162.994C115.465 151.286 124.176 141.568 135.035 134.356Z" fill="#EA9191"/>
<path id="Vector_38" d="M182.552 290.344C177.501 290.344 171.452 290.163 164.888 289.62C154.09 288.715 144.079 286.964 135.126 284.429C123.844 281.261 114.165 276.794 106.392 271.212C104.94 270.367 97.6806 265.81 91.4801 257.994C82.2549 246.315 79.8352 233.007 84.4629 219.457C89.3931 205.032 92.5387 197.276 95.3214 190.456C98.1343 183.515 100.554 177.54 104.123 166.254C106.634 158.287 110.808 150.863 116.494 144.224C121.847 137.977 128.441 132.515 136.094 128.019C150.975 119.297 168.911 114.771 186.605 115.314C203.936 115.857 219.906 121.138 232.761 130.644C239.748 135.804 245.767 142.172 250.606 149.565C255.748 157.412 259.62 166.465 262.1 176.454C262.1 176.484 262.1 176.454 262.1 176.484C262.191 176.786 264.671 186.292 276.679 212.727C279.643 219.246 281.004 226.005 280.762 232.826C280.49 239.917 278.494 246.768 274.773 253.135C272.051 257.813 268.421 262.158 264.006 266.081C259.438 270.155 253.964 273.807 247.733 276.915C234.394 283.584 217.608 287.9 197.826 289.711C197.252 289.771 191.384 290.344 182.552 290.344ZM183.55 124.609C150.612 124.609 121.212 142.987 113.016 169.09C109.356 180.739 106.845 186.865 103.972 193.987C101.25 200.686 98.1343 208.321 93.2948 222.505C89.6955 232.977 91.5103 242.905 98.6485 252.049C104.274 259.231 111.201 263.275 111.261 263.305C111.412 263.396 111.533 263.486 111.685 263.577C127.504 275.014 149.795 279.028 165.674 280.355C183.127 281.834 196.768 280.506 196.919 280.506H196.949C231.733 277.338 256.504 265.961 266.697 248.518C272.475 238.59 273.019 227.273 268.18 216.65C255.688 189.189 253.208 179.441 253.026 178.777C244.89 145.914 219.937 125.695 186.303 124.639C185.395 124.609 184.457 124.609 183.55 124.609Z" fill="#333833"/>
<path id="Vector_39" fill-rule="evenodd" clip-rule="evenodd" d="M257.533 177.601C257.533 177.601 259.771 186.865 272.414 214.659C285.027 242.453 266.455 278.786 197.373 285.094C197.373 285.094 141.266 290.646 108.932 267.319C108.932 267.319 78.8371 250.269 88.8789 220.996C98.9207 191.694 101.522 190.094 108.569 167.702C126.929 109.399 237.177 95.4571 257.533 177.601Z" fill="#F2F6F1"/>
<path id="Vector_40" fill-rule="evenodd" clip-rule="evenodd" d="M257.835 177.601C257.835 177.601 260.043 186.865 272.686 214.659C277.616 225.523 277.798 237.684 272.051 248.82C271.839 231.347 272.263 223.32 262.13 202.075C251.998 180.83 247.219 151.255 219.573 133.27C191.898 115.314 175.746 120.655 154.876 124.759C194.015 111.572 244.648 124.548 257.835 177.601Z" fill="white"/>
<path id="Vector_41" fill-rule="evenodd" clip-rule="evenodd" d="M276.255 229.446C278.251 253.829 255.869 279.903 197.645 285.124C197.645 285.124 141.538 290.556 109.235 267.711C109.235 267.711 92.7201 258.537 88.2437 242.12C132.434 291.551 249.094 286.089 276.255 229.446Z" fill="#E3E6E2"/>
<path id="Vector_42" fill-rule="evenodd" clip-rule="evenodd" d="M145.924 164.715C145.924 164.715 166.068 160.007 170.151 186.322C174.234 212.637 142.475 241.004 123.904 241.004C82.6481 240.974 97.2268 177.691 145.924 164.715Z" fill="#4D544A"/>
<path id="Vector_43" fill-rule="evenodd" clip-rule="evenodd" d="M211.951 164.715C211.951 164.715 191.807 160.007 187.694 186.322C183.61 212.637 215.369 241.004 233.94 241.004C275.227 240.974 260.648 177.691 211.951 164.715Z" fill="#4D544A"/>
<path id="Vector_44" d="M72.0922 431.485C66.4663 431.485 60.659 430.157 55.2147 427.592C47.0784 423.73 40.6662 417.392 37.0971 409.757C32.9231 400.764 30.6849 390.534 30.7756 380.907C30.8663 369.893 33.9817 360.447 39.7588 353.627C43.8118 348.859 50.6475 345.66 58.5115 344.905C66.4663 344.121 74.3606 346.022 80.1679 350.096C86.8524 354.804 92.4782 362.258 96.4102 371.643C100.07 380.364 102.036 390.444 101.945 400.01C101.885 408.49 99.6466 415.551 95.3214 421.014C91.3894 425.963 85.8543 429.312 79.2908 430.731C76.9618 431.244 74.5421 431.485 72.0922 431.485ZM45.5661 405.834C51.4641 418.569 66.6478 423.941 77.3248 421.647C87.1246 419.535 92.5387 411.809 92.6295 399.919C92.7504 382.507 85.4308 365.155 74.7841 357.671C70.7916 354.864 65.1657 353.566 59.3887 354.14C54.0653 354.653 49.2864 356.735 46.8667 359.602C41.3618 366.12 40.1217 374.812 40.0612 380.968C40.031 389.267 41.9668 398.079 45.5661 405.834Z" fill="#333833"/>
<path id="Vector_45" fill-rule="evenodd" clip-rule="evenodd" d="M41.3619 407.796C33.8305 391.56 32.4997 369.44 43.3581 356.614C50.0426 348.738 67.0108 346.505 77.5063 353.898C89.9678 362.65 97.4689 381.903 97.3177 399.98C97.0454 436.042 52.9765 432.873 41.3619 407.796Z" fill="#4D544A"/>
<path id="Vector_46" fill-rule="evenodd" clip-rule="evenodd" d="M51.1616 351.333C59.1467 348.225 69.9749 348.587 77.5062 353.868C83.3135 357.972 88.0622 364.34 91.4498 371.824C82.9506 359.391 69.8841 350.88 51.1616 351.333Z" fill="#747974"/>
<path id="Vector_47" fill-rule="evenodd" clip-rule="evenodd" d="M41.3619 407.796C33.8305 391.56 32.4997 369.44 43.3581 356.615C46.3223 353.084 51.3734 350.7 56.969 349.794C52.1296 352.631 48.0161 356.524 45.6266 361.866C37.6416 379.851 35.4033 414.556 76.6291 426.536C63.4115 428.498 47.6229 421.346 41.3619 407.796Z" fill="#41473E"/>
<path id="Vector_48" fill-rule="evenodd" clip-rule="evenodd" d="M57.4226 408.067C54.0048 401.066 53.3696 391.56 58.33 386.098C61.3849 382.748 69.128 381.903 73.9069 385.163C79.5932 388.995 83.0111 397.294 82.9506 405.08C82.7993 420.501 62.7157 418.871 57.4226 408.067Z" fill="#EA9191"/>
<path id="Vector_49" fill-rule="evenodd" clip-rule="evenodd" d="M47.2901 384.378C44.9309 382.658 42.9649 379.58 43.5093 376.864C43.842 375.204 46.1105 373.544 48.1975 373.786C50.6777 374.057 53.3091 376.23 54.7307 378.825C57.5739 384.046 50.9802 387.064 47.2901 384.378Z" fill="#EA9191"/>
<path id="Vector_50" fill-rule="evenodd" clip-rule="evenodd" d="M55.1845 372.096C53.7931 369.5 53.3394 365.879 55.003 363.676C56.0313 362.318 58.7838 361.775 60.5683 362.892C62.6855 364.219 64.1071 367.297 64.2886 370.255C64.5911 376.17 57.3622 376.079 55.1845 372.096Z" fill="#EA9191"/>
<path id="Vector_51" fill-rule="evenodd" clip-rule="evenodd" d="M69.1886 372.79C68.9768 369.863 70.0657 366.362 72.4854 365.034C73.9675 364.219 76.7199 364.853 77.8995 366.603C79.2909 368.655 79.3514 372.066 78.2625 374.842C76.115 380.364 69.5213 377.316 69.1886 372.79Z" fill="#EA9191"/>
<path id="Vector_52" d="M295.038 434.774C292.558 434.774 290.108 434.533 287.719 434.02C281.064 432.571 275.439 429.161 271.446 424.152C267.03 418.629 264.792 411.447 264.701 402.816C264.641 393.099 266.637 382.869 270.327 373.996C274.319 364.46 280.006 356.886 286.811 352.087C292.709 347.953 300.694 346.022 308.8 346.806C316.785 347.591 323.712 350.82 327.825 355.648C333.693 362.589 336.839 372.186 336.96 383.352C337.05 393.129 334.752 403.54 330.517 412.684C326.918 420.44 320.385 426.868 312.127 430.791C306.653 433.446 300.755 434.774 295.038 434.774ZM305.231 355.95C300.301 355.95 295.673 357.278 292.225 359.692C281.397 367.327 273.896 385.041 274.047 402.756C274.138 414.887 279.703 422.764 289.685 424.936C300.573 427.29 316.09 421.798 322.109 408.821C325.769 400.915 327.765 391.922 327.674 383.472C327.614 377.195 326.373 368.323 320.748 361.684C318.267 358.757 313.368 356.614 307.953 356.101C307.016 355.98 306.139 355.95 305.231 355.95Z" fill="#333833"/>
<path id="Vector_53" fill-rule="evenodd" clip-rule="evenodd" d="M326.313 410.753C333.965 394.246 335.326 371.733 324.286 358.666C317.511 350.639 300.241 348.376 289.533 355.89C276.86 364.792 269.238 384.408 269.359 402.786C269.662 439.482 314.487 436.253 326.313 410.753Z" fill="#4D544A"/>
<path id="Vector_54" fill-rule="evenodd" clip-rule="evenodd" d="M314.668 352.721C306.744 350.216 296.672 350.88 289.533 355.89C276.86 364.792 269.238 384.408 269.359 402.786C269.51 422.703 282.788 430.851 296.793 430.066C268.542 409.123 277.737 379.277 288.626 364.43C294.736 356.191 305.02 353.385 314.668 352.721Z" fill="#41473E"/>
<path id="Vector_55" fill-rule="evenodd" clip-rule="evenodd" d="M328.733 404.778C334.117 389.146 334.056 370.224 324.286 358.666C319.266 352.721 308.468 349.945 298.88 351.937C326.827 354.773 334.812 377.95 328.733 404.778Z" fill="#747974"/>
<path id="Vector_56" fill-rule="evenodd" clip-rule="evenodd" d="M308.286 413.891C311.764 406.77 312.4 397.082 307.348 391.53C304.263 388.12 296.369 387.275 291.499 390.564C285.722 394.457 282.244 402.907 282.304 410.813C282.425 426.566 302.902 424.906 308.286 413.891Z" fill="#EA9191"/>
<path id="Vector_57" fill-rule="evenodd" clip-rule="evenodd" d="M318.57 389.779C320.99 387.999 322.956 384.86 322.411 382.114C322.078 380.424 319.749 378.734 317.632 378.946C315.092 379.217 312.43 381.45 310.978 384.106C308.135 389.447 314.85 392.526 318.57 389.779Z" fill="#EA9191"/>
<path id="Vector_58" fill-rule="evenodd" clip-rule="evenodd" d="M310.524 377.286C311.946 374.63 312.399 370.979 310.706 368.716C309.677 367.327 306.864 366.784 305.019 367.901C302.842 369.229 301.39 372.367 301.239 375.385C300.966 381.45 308.346 381.36 310.524 377.286Z" fill="#EA9191"/>
<path id="Vector_59" fill-rule="evenodd" clip-rule="evenodd" d="M296.278 377.98C296.49 374.992 295.401 371.462 292.921 370.104C291.409 369.259 288.626 369.922 287.416 371.673C285.994 373.785 285.964 377.225 287.023 380.062C289.231 385.675 295.946 382.597 296.278 377.98Z" fill="#EA9191"/>
<path id="Vector_60" fill-rule="evenodd" clip-rule="evenodd" d="M170.877 213.18C172.268 208.623 188.027 209.197 188.571 212.758C189.206 216.922 183.459 218.823 180.253 219.366C179.769 219.457 169.637 217.224 170.877 213.18Z" fill="#333833"/>
<g id="sunglass">
<path id="Vector_61" d="M225.078 170.569C207.626 171.021 193.834 184.873 194.318 201.44C194.802 218.038 209.411 231.165 226.863 230.743C244.315 230.29 258.107 216.439 257.593 199.841C257.139 183.274 242.53 170.146 225.078 170.569ZM132.01 173.255C114.8 173.677 101.219 187.348 101.703 203.704C102.187 220.06 116.585 233.006 133.795 232.554C151.005 232.101 164.586 218.461 164.102 202.104C163.587 185.748 149.19 172.802 132.01 173.255ZM170.665 195.465C175.504 190.094 182.249 191.844 187.391 194.258C190.507 177.178 205.932 163.93 224.867 163.447C246.432 162.904 264.489 179.139 265.125 199.66C265.729 220.181 248.701 237.292 227.105 237.835C205.781 238.378 187.906 222.535 186.877 202.376C184.306 200.384 176.593 196.672 171.482 203.764C171.028 223.168 154.604 239.042 134.006 239.585C112.743 240.128 94.9281 224.104 94.3232 203.885C93.7183 183.666 110.535 166.766 131.798 166.223C150.733 165.74 166.915 178.415 170.665 195.465Z" fill="#FB9C1C"/>
</g>
<path id="Vector_62" d="M180.042 230.562C179.83 230.562 179.588 230.562 179.376 230.532C173.387 230.2 169.546 225.522 169.395 225.311C168.699 224.466 168.85 223.199 169.697 222.505C170.544 221.811 171.814 221.961 172.51 222.806C172.571 222.867 175.444 226.337 179.618 226.548C182.491 226.699 185.395 225.281 188.299 222.384C189.085 221.599 190.325 221.599 191.112 222.384C191.898 223.168 191.898 224.406 191.112 225.19C187.603 228.751 183.853 230.562 180.042 230.562Z" fill="#333833"/>
<path id="Vector_63" d="M215.551 213.21C221.13 213.21 225.653 208.697 225.653 203.131C225.653 197.564 221.13 193.051 215.551 193.051C209.971 193.051 205.448 197.564 205.448 203.131C205.448 208.697 209.971 213.21 215.551 213.21Z" fill="#333833"/>
<path id="Vector_64" d="M215.496 208.075C218.351 206.895 219.707 203.629 218.524 200.78C217.342 197.932 214.068 196.579 211.213 197.759C208.358 198.939 207.002 202.205 208.185 205.054C209.367 207.902 212.641 209.255 215.496 208.075Z" fill="white"/>
<path id="Vector_65" d="M149.38 211.058C153.301 207.145 153.301 200.802 149.38 196.889C145.458 192.977 139.1 192.977 135.179 196.889C131.257 200.802 131.257 207.145 135.179 211.058C139.1 214.971 145.458 214.971 149.38 211.058Z" fill="#333833"/>
<path id="Vector_66" d="M144.351 208.683C147.408 208.683 149.886 206.211 149.886 203.161C149.886 200.111 147.408 197.638 144.351 197.638C141.294 197.638 138.816 200.111 138.816 203.161C138.816 206.211 141.294 208.683 144.351 208.683Z" fill="white"/>
<g id="notebook">
<path id="Vector_67" d="M261.707 426.626H106.24C104.002 426.626 101.885 425.751 100.282 424.152C98.7391 422.583 97.8317 420.5 97.8015 418.297L95.7447 315.422C95.6842 313.189 96.5311 311.076 98.1342 309.477C99.707 307.877 101.915 306.942 104.183 306.942H264.368C266.637 306.942 268.815 307.877 270.418 309.477C271.99 311.076 272.837 313.219 272.807 315.452C272.807 315.452 272.807 315.452 272.807 315.482L270.176 418.358C270.115 420.561 269.238 422.613 267.695 424.182C266.062 425.751 263.945 426.626 261.707 426.626ZM107.117 417.332H260.829L263.431 316.237H105.061L107.117 417.332Z" fill="#333833"/>
<path id="Vector_68" fill-rule="evenodd" clip-rule="evenodd" d="M104.153 311.589H264.338C266.395 311.589 268.149 313.279 268.089 315.331L265.457 418.207C265.397 420.289 263.763 421.949 261.707 421.949H106.24C104.183 421.949 102.52 420.259 102.49 418.207L100.433 315.331C100.342 313.279 102.096 311.589 104.153 311.589Z" fill="#98D431"/>
<path id="Vector_69" fill-rule="evenodd" clip-rule="evenodd" d="M255.143 311.589H264.338C266.395 311.589 268.149 313.279 268.089 315.331L265.457 418.207C265.397 420.289 263.763 421.949 261.707 421.949H106.24C104.183 421.949 102.52 420.259 102.49 418.207L102.217 404.235C186.817 405.955 267.06 413.952 255.143 311.589Z" fill="#699027"/>
<path id="Vector_70" fill-rule="evenodd" clip-rule="evenodd" d="M104.153 311.589H264.338C265.76 311.589 267.03 312.404 267.665 313.551C244.859 312.947 113.378 313.098 107.027 313.4C104.728 313.521 102.46 314.999 100.433 316.931L100.403 315.331C100.342 313.279 102.097 311.589 104.153 311.589Z" fill="#D8FF97"/>
<path id="Vector_71" d="M263.159 432.752H104.637C100.04 432.752 96.2892 429.04 96.2892 424.453V420.168C96.2892 415.611 100.04 411.899 104.637 411.899H263.159C267.756 411.899 271.507 415.611 271.507 420.168V424.453C271.476 429.04 267.756 432.752 263.159 432.752ZM104.637 417.211C102.974 417.211 101.643 418.538 101.643 420.168V424.453C101.643 426.083 102.974 427.441 104.637 427.441H263.159C264.822 427.441 266.153 426.113 266.153 424.453V420.168C266.153 418.538 264.822 417.211 263.159 417.211H104.637Z" fill="#333833"/>
<path id="Vector_72" d="M263.159 433.356H104.637C99.707 433.356 95.7145 429.372 95.7145 424.484V420.198C95.7145 415.31 99.7372 411.326 104.637 411.326H263.159C268.089 411.326 272.081 415.31 272.081 420.198V424.484C272.081 429.372 268.089 433.356 263.159 433.356ZM104.637 412.503C100.372 412.503 96.8941 415.943 96.8941 420.168V424.453C96.8941 428.678 100.372 432.149 104.637 432.149H263.159C267.423 432.149 270.902 428.708 270.902 424.453V420.168C270.902 415.943 267.423 412.503 263.159 412.503H104.637ZM263.159 428.045H104.637C102.671 428.045 101.038 426.445 101.038 424.484V420.198C101.038 418.237 102.641 416.637 104.637 416.637H263.159C265.125 416.637 266.758 418.237 266.758 420.198V424.484C266.728 426.445 265.125 428.045 263.159 428.045ZM104.637 417.814C103.306 417.814 102.248 418.871 102.248 420.168V424.453C102.248 425.751 103.337 426.837 104.637 426.837H263.159C264.489 426.837 265.548 425.781 265.548 424.453V420.168C265.548 418.871 264.459 417.814 263.159 417.814H104.637Z" fill="#333833"/>
<path id="Vector_73" fill-rule="evenodd" clip-rule="evenodd" d="M104.637 414.585H263.159C266.274 414.585 268.815 417.12 268.815 420.199V424.484C268.815 427.562 266.274 430.127 263.159 430.127H104.637C101.522 430.127 98.9812 427.592 98.9812 424.484V420.199C98.9812 417.09 101.522 414.585 104.637 414.585Z" fill="#98D431"/>
<path id="Vector_74" d="M263.159 430.7H104.637C101.189 430.7 98.3762 427.894 98.3762 424.484V420.199C98.3762 416.758 101.189 413.982 104.637 413.982H263.159C266.607 413.982 269.42 416.758 269.42 420.199V424.484C269.42 427.924 266.607 430.7 263.159 430.7ZM104.637 415.159C101.855 415.159 99.5861 417.422 99.5861 420.168V424.454C99.5861 427.23 101.855 429.493 104.637 429.493H263.159C265.941 429.493 268.21 427.23 268.21 424.454V420.168C268.21 417.392 265.941 415.159 263.159 415.159H104.637Z" fill="#333833"/>
<path id="Vector_75" fill-rule="evenodd" clip-rule="evenodd" d="M105.242 414.585H263.159C264.913 414.585 266.455 415.37 267.514 416.638C235.876 416.366 117.492 415.521 108.63 416.909C105.121 417.452 102.066 419.142 99.5861 421.104V420.229C99.6163 417.09 102.127 414.585 105.242 414.585Z" fill="#D8FF97"/>
<path id="Vector_76" fill-rule="evenodd" clip-rule="evenodd" d="M266.304 415.521C267.816 416.547 268.845 418.267 268.845 420.199V424.484C268.845 427.562 266.304 430.127 263.189 430.127H105.242C102.127 430.127 99.5861 427.592 99.5861 424.484V424.423C101.159 424.605 102.853 424.665 104.637 424.635C127.594 424.152 228.647 426.294 255.415 425.087C262.342 424.755 264.762 420.862 266.304 415.521Z" fill="#699027"/>
<path id="Vector_77" d="M184 373C188.418 373 192 369.418 192 365C192 360.582 188.418 357 184 357C179.582 357 176 360.582 176 365C176 369.418 179.582 373 184 373Z" fill="#699027"/>
</g>
<g id="monet3">
<path id="Vector_78" fill-rule="evenodd" clip-rule="evenodd" d="M380.757 26.3818C381.093 26.472 381.276 26.8382 381.186 27.1713C381.097 27.5044 380.729 27.6833 380.392 27.5931C380.055 27.503 379.873 27.1367 379.962 26.8036C380.051 26.4705 380.42 26.2916 380.757 26.3818Z" fill="white"/>
<path id="Vector_79" fill-rule="evenodd" clip-rule="evenodd" d="M471.306 86.8224C470.364 73.2812 461.991 62.9449 448.351 58.4969C439.103 55.4635 432.186 56.7439 427.386 58.9488C423.155 52.301 416.713 47.322 409.023 44.9045C402.034 42.7144 394.749 42.8252 387.986 45.1782C385.124 41.1982 380.321 37.1343 372.2 34.6806C358.406 30.5087 345.663 34.2346 337.129 44.8404C332.131 51.0778 328.687 60.1913 331.783 65.543C333.632 68.8152 336.675 70.6224 340.064 70.5388C341.557 70.5025 342.942 70.1199 344.227 69.5122C345.246 70.4991 346.55 71.166 348.019 71.5198C350.656 72.1472 353.679 71.4893 355.88 69.8576C355.88 69.8576 355.889 69.8206 355.927 69.8306C356.092 70.1128 356.304 70.368 356.563 70.5962C357.128 71.1837 357.898 71.7473 358.766 72.0989C358.939 72.5021 359.121 72.8683 359.369 73.2916C360.47 75.0149 362.227 76.2392 364.331 76.7634C364.864 76.8666 365.398 76.9699 365.914 76.9892C366.477 82.2177 368.021 87.0745 370.495 91.3074L368.373 99.2279L368.214 99.8201L368.055 100.412L367.896 101.004L367.738 101.597L367.579 102.189L367.42 102.781L367.262 103.373L367.103 103.965L366.944 104.558L366.786 105.15L366.627 105.742L366.468 106.334L366.31 106.926L366.151 107.519L365.992 108.111L365.834 108.703L365.675 109.295L365.516 109.887L365.358 110.479L365.199 111.072L365.04 111.664L364.882 112.256L364.723 112.848L364.564 113.44L364.406 114.033L364.247 114.625L364.088 115.217L363.93 115.809L363.771 116.401L363.612 116.993L363.454 117.586L363.295 118.178L363.136 118.77L362.978 119.362L362.819 119.954L362.66 120.547L362.502 121.139L362.343 121.731L362.184 122.323L362.025 122.915L361.867 123.508L361.708 124.1L361.549 124.692L361.391 125.284L361.232 125.876L361.073 126.468L360.915 127.061L360.756 127.653L360.597 128.245L360.439 128.837L360.28 129.429L355.53 147.158L401.156 159.384L405.302 143.913L405.47 143.284L405.629 142.691L405.788 142.099L405.946 141.507L406.105 140.915L406.264 140.323L406.423 139.73L406.581 139.138L406.74 138.546L406.899 137.954L407.057 137.362L407.216 136.77L407.375 136.177L407.533 135.585L407.692 134.993L407.851 134.401L408.009 133.809L408.168 133.216L408.327 132.624L408.485 132.032L408.644 131.44L408.803 130.848L408.961 130.255L409.12 129.663L409.279 129.071L409.437 128.479L409.596 127.887L409.755 127.295L409.913 126.702L410.072 126.11L410.231 125.518L410.389 124.926L410.548 124.334L410.707 123.741L410.865 123.149L411.024 122.557L411.183 121.965L411.341 121.373L411.5 120.78L411.659 120.188L411.818 119.596L411.976 119.004L412.135 118.412L412.294 117.82L412.452 117.227L412.611 116.635L412.77 116.043L412.928 115.451L413.087 114.859L413.246 114.266L413.404 113.674L415.854 104.532C419.505 102.575 422.771 99.9595 425.483 96.7193C426.7 96.9659 427.911 96.9335 429.117 96.6219C429.628 96.9572 430.187 97.2656 430.84 97.52C432.875 98.3033 434.996 98.3162 436.894 97.5157C437.3 97.3468 437.679 97.1309 438.057 96.915C439.311 97.1717 440.345 97.0521 440.732 96.9572C441.07 96.8893 441.382 96.7744 441.693 96.6595C441.693 96.6595 441.683 96.6965 441.721 96.7065C442.584 99.3181 444.673 101.544 447.249 102.552C448.668 103.09 450.102 103.276 451.522 103.062C452.236 104.285 453.14 105.399 454.348 106.278C457.097 108.284 460.604 108.51 464.006 106.883C469.488 104.226 471.858 94.7851 471.306 86.8224Z" fill="url(#paint0_linear_19_2)"/>
<path id="Vector_80" d="M371.568 76.6796C369.998 76.2587 368.678 75.3497 367.824 74.0497C367.081 74.1284 366.256 74.0661 365.433 73.8456C363.095 73.2983 361.819 71.9251 361.177 70.8804C360.865 70.4001 360.647 69.8657 360.495 69.3885C359.111 69.0177 358.287 68.202 358 67.9267C357.566 67.4533 357.254 66.973 357.046 66.4016C356.822 66.3415 356.56 66.2714 356.298 66.2012C356.012 66.5212 355.661 66.7842 355.31 67.0471C353.423 68.4059 350.796 68.9319 348.495 68.3947C346.83 68.0278 345.425 67.1358 344.439 65.8798C343.02 66.6895 341.473 67.227 339.895 67.2804C338.158 67.3306 334.88 66.8489 332.562 62.9352C329.711 58.1649 332.815 49.8726 337.328 44.1002C341.276 39.0887 352.556 28.108 372.518 34.0915C380.424 36.4481 386.332 40.7286 389.648 46.4565C392.551 51.479 393.302 57.3529 391.832 62.9887C389.194 72.8338 380.596 78.7415 371.85 76.6757C371.718 76.7196 371.643 76.6996 371.568 76.6796ZM374.693 68.9086C374.683 68.9456 374.663 69.0196 374.653 69.0566C379.227 69.4889 382.758 65.4367 383.968 60.9213C385.684 54.5183 383.089 45.6512 370.211 41.8038C357.968 38.1268 350.181 42.5062 345.793 46.7651C340.852 51.59 339.248 57.4278 339.592 58.9876C339.684 59.0917 339.739 59.1858 339.767 59.2328C340.586 59.0161 342.429 57.5263 343.53 55.3618C344.447 53.5844 346.524 52.713 348.467 53.3922C350.372 54.0613 351.536 55.9997 351.132 57.9543C351.021 58.5195 350.955 59.2158 350.918 59.801C351.385 58.6567 351.666 56.709 351.79 55.9487C352.049 54.2331 352.536 51.071 355.9 50.7823C357.216 50.6589 358.55 51.2147 359.399 52.2355C360.248 53.2564 360.519 54.6381 360.182 55.8965C360.053 56.3776 359.951 56.9058 359.86 57.397C361.356 56.4492 363.4 56.6002 364.753 57.8353C365.596 58.577 366.041 59.6087 366.083 60.6512C366.447 60.7884 366.754 60.9896 367.013 61.2178C367.774 61.8184 368.521 62.7722 368.687 64.2449C369.748 63.5771 371.101 63.4636 372.361 63.9994C374.253 64.8636 375.256 66.957 374.693 68.9086Z" fill="#333833"/>
<path id="Vector_81" fill-rule="evenodd" clip-rule="evenodd" d="M336.026 60.9277C339.271 66.3195 345.038 61.3989 347.164 57.2081C347.164 57.2081 346.384 61.1644 347.371 63.0157C348.468 65.055 351.379 64.9623 352.925 63.8295C355.903 61.6919 355.682 54.8889 356.292 54.8541C356.292 54.8541 354.434 61.3381 357.404 62.3719C360.411 63.4157 361.281 61.6653 362.053 60.8803C359.925 63.2854 359.988 67.3882 363.848 64.6537C365.431 63.5309 364.281 66.4757 364.281 66.4757C364.281 66.4757 363.602 69.3086 366.362 69.9291C369.075 70.5766 370.793 67.9032 370.793 67.9032C370.793 67.9032 369.71 72.0956 372.759 72.8333C388.446 76.5208 399.111 46.2945 371.392 37.9945C344.598 29.9821 332.78 55.5359 336.026 60.9277Z" fill="#E3E6E2"/>
<path id="Vector_82" fill-rule="evenodd" clip-rule="evenodd" d="M336.026 60.9279C336.52 61.7745 337.084 62.362 337.67 62.7174C336.97 59.1976 337.475 54.7709 340.837 49.404C350.339 34.1387 369.541 34.8805 381.83 45.1155C386.448 48.9712 388.19 53.8411 388.431 58.6263C388.976 50.7591 384.485 41.9393 371.317 37.9747C344.598 29.9823 332.78 55.5361 336.026 60.9279Z" fill="white"/>
<path id="Vector_83" fill-rule="evenodd" clip-rule="evenodd" d="M364.386 68.3285C364.649 68.9939 365.193 69.6554 366.352 69.9661C369.065 70.6136 370.783 67.9402 370.783 67.9402C370.783 67.9402 369.7 72.1325 372.749 72.8702C376.631 73.7913 380.233 72.6144 382.962 70.2116C379.766 71.8149 376.119 72.8607 373.009 71.7498C373.009 71.7498 372.129 71.5934 372.05 69.9456C372.008 68.3079 371.659 66.4689 370.74 67.0558C369.858 67.6526 367.899 70.7771 365.466 68.9352C365.142 68.65 364.788 68.4757 364.386 68.3285Z" fill="#F2F6F1"/>
<path id="Vector_84" fill-rule="evenodd" clip-rule="evenodd" d="M349.003 64.4049C350.282 64.8667 351.919 64.5913 352.925 63.8294C355.903 61.6918 355.682 54.8888 356.292 54.8541C356.292 54.8541 355.908 56.1394 355.783 57.653C356.27 55.0861 356.689 53.3736 356.094 53.6504C354.883 54.2782 354.092 59.0249 352.26 62.4215C351.499 63.7648 350.234 64.2984 349.003 64.4049Z" fill="#F2F6F1"/>
<path id="Vector_85" fill-rule="evenodd" clip-rule="evenodd" d="M336.855 62.0227C339.877 65.2524 344.329 61.8039 346.567 58.2384C348.238 55.592 349.415 50.7504 348.887 50.9262C348.321 51.0921 347.083 54.9652 343.867 59.3396C342.163 61.6599 339.312 62.1258 336.855 62.0227Z" fill="#F2F6F1"/>
<path id="Vector_86" fill-rule="evenodd" clip-rule="evenodd" d="M384.665 54.8797C384.665 54.8797 381.943 44.3919 369.289 40.0094C356.634 35.6268 349.728 43.297 349.728 43.297C349.728 43.297 349.854 43.7273 350.27 43.5214C352.558 42.3099 362.726 38.1716 370.124 41.9786C378.853 46.4994 380.632 52.7279 381.695 55.7897C382.191 57.2316 382.891 58.8076 383.823 58.6209C384.849 58.3803 385.42 56.5497 384.665 54.8797Z" fill="#656A65"/>
<path id="Vector_87" fill-rule="evenodd" clip-rule="evenodd" d="M355.021 49.8725C355.021 49.8725 352.996 52.3447 355.73 54.1087C358.464 55.8727 360.654 53.0874 360.654 53.0874C360.654 53.0874 359.189 55.1147 361.03 56.322C362.397 57.204 364.484 56.2955 364.368 55.233C364.345 54.8699 363.779 55.0357 363.463 55.4667C363.147 55.8978 361.687 56.2603 361.424 54.9996C361.161 53.739 362.095 52.0456 361.611 51.7573C360.476 51.0565 358.307 55.7115 355.952 52.383C354.728 50.6668 356.061 50.0321 356.275 49.5339C356.516 49.0829 355.748 48.9565 355.021 49.8725Z" fill="#333833"/>
<path id="Vector_88" d="M458.002 104.758C456.917 104.468 456.089 103.968 455.513 103.576C454.278 102.65 453.339 101.367 452.646 99.9119C451.204 100.358 449.629 100.254 448.145 99.6578C445.933 98.7874 444.131 96.8368 443.365 94.6085C443.23 94.2153 443.132 93.832 443.082 93.4218C442.932 93.3818 442.783 93.3417 442.643 93.2646C442.113 93.5985 441.565 93.8484 440.924 93.9941C440.548 94.052 439.504 94.2086 438.29 93.8039C437.881 94.1308 437.398 94.4378 436.86 94.6506C435.274 95.3362 433.509 95.3394 431.811 94.6464C431.045 94.3619 430.431 93.9594 429.865 93.53C428.356 94.0776 426.713 94.0738 425.192 93.4679C417.045 90.2138 413.552 80.5111 417.05 70.8965C419.034 65.438 422.926 61.0858 428.011 58.561C433.872 55.6884 440.942 55.4804 448.537 57.9519C467.221 64.0689 470.225 79.0357 470.625 85.1726C471.139 92.53 468.934 101.658 463.888 104.035C461.497 105.179 459.498 105.159 458.002 104.758ZM456.479 87.2531C456.517 87.2632 456.517 87.2632 456.554 87.2732C458.489 87.8313 459.738 89.7527 459.447 91.7374C459.143 93.9172 459.647 96.0754 460.114 96.8749L460.162 96.8479C461.399 95.672 463.446 89.6753 462.056 82.5986C460.909 76.8566 457.179 69.2326 445.941 65.547C433.815 61.5839 426.88 67.4213 424.613 73.637C423.069 77.9042 423.49 83.2137 427.052 85.4772C427.062 85.4402 427.072 85.4032 427.072 85.4032C427.785 83.4917 429.819 82.3311 431.821 82.7882C432.991 83.0619 433.956 83.7966 434.496 84.7743C435.459 83.7232 436.543 83.4186 437.482 83.353C437.764 83.3491 438.083 83.3553 438.392 83.3984C439.024 82.5363 440.018 81.9695 441.136 81.833C442.838 81.6146 444.44 82.5197 445.217 83.9577C445.401 83.5706 445.557 83.1365 445.694 82.7764C446.106 81.538 447.171 80.5541 448.462 80.2255C449.752 79.897 451.118 80.1837 452.176 81.0225C452.733 81.489 454.398 83.2045 453.258 86.1122C453.101 86.5463 452.85 87.0344 452.589 87.5595C452.415 87.9096 452.144 88.4717 451.844 89.1449C452.824 87.5827 454.684 86.7721 456.479 87.2531Z" fill="#333833"/>
<path id="Vector_89" fill-rule="evenodd" clip-rule="evenodd" d="M462.091 100.419C456.534 103.056 454.762 95.7582 455.438 91.1395C455.438 91.1395 453.808 94.8284 452.02 95.817C450.005 96.9036 447.815 95.2059 447.222 93.3808C446.098 89.9458 450.09 84.4702 449.636 84.0708C449.636 84.0708 447.489 90.4376 444.535 89.646C441.58 88.8543 441.899 86.9166 441.745 85.8441C442.056 89.0216 439.718 92.362 438.214 87.9524C437.583 86.1174 436.873 89.2194 436.873 89.2194C436.873 89.2194 435.792 91.9051 433.291 90.9175C430.79 89.93 430.957 86.7617 430.957 86.7617C430.957 86.7617 429.473 90.8068 426.682 89.702C412.348 83.9572 420.901 53.0856 447.282 61.7411C472.748 70.0721 467.647 97.7828 462.091 100.419Z" fill="#E3E6E2"/>
<path id="Vector_90" fill-rule="evenodd" clip-rule="evenodd" d="M462.091 100.419C461.221 100.821 460.449 101.011 459.774 100.989C462.287 98.4885 464.39 94.5298 464.753 88.2402C465.854 70.3669 450.373 60.2286 434.995 61.8205C429.223 62.4161 425.115 65.4806 422.254 69.276C426.2 62.4788 434.697 57.6945 447.225 61.8049C472.748 70.0719 467.647 97.7826 462.091 100.419Z" fill="white"/>
<path id="Vector_91" fill-rule="evenodd" clip-rule="evenodd" d="M435.716 90.6942C435.128 91.0921 434.336 91.3559 433.281 90.9542C430.78 89.9667 430.947 86.7984 430.947 86.7984C430.947 86.7984 429.463 90.8435 426.672 89.7388C423.126 88.3126 420.954 85.3503 420.131 81.8374C421.748 84.9285 424.015 87.8367 427.082 88.6585C427.082 88.6585 427.865 89.027 428.823 87.6968C429.78 86.3667 431.094 85.0527 431.465 86.0643C431.845 87.0389 431.586 90.6984 434.544 90.5786C434.93 90.4838 435.314 90.547 435.716 90.6942Z" fill="#F2F6F1"/>
<path id="Vector_92" fill-rule="evenodd" clip-rule="evenodd" d="M449.999 96.0289C448.728 95.6882 447.627 94.5602 447.231 93.3435C446.108 89.9085 450.1 84.4329 449.646 84.0336C449.646 84.0336 449.224 85.3089 448.473 86.6151C449.512 84.2356 450.165 82.5461 450.447 83.1375C451.049 84.3303 448.997 88.6993 448.529 92.5407C448.357 94.0813 449.053 95.2201 449.999 96.0289Z" fill="#F2F6F1"/>
<path id="Vector_93" fill-rule="evenodd" clip-rule="evenodd" d="M460.855 100.842C456.712 101.794 455.127 96.4905 455.365 92.3098C455.56 89.1885 457.325 84.5443 457.648 84.9876C457.997 85.478 456.806 89.3241 456.841 94.7285C456.885 97.5567 458.874 99.5575 460.855 100.842Z" fill="#F2F6F1"/>
<path id="Vector_94" fill-rule="evenodd" clip-rule="evenodd" d="M427.337 68.2578C427.337 68.2578 435.343 61.1202 447.719 64.5953C460.106 68.0333 461.217 78.2482 461.217 78.2482C461.217 78.2482 460.866 78.5112 460.656 78.0979C459.534 75.8534 453.883 66.7229 445.929 65.742C436.569 64.6223 431.695 68.7509 429.095 70.6726C427.89 71.5795 426.441 72.5002 425.859 71.8287C425.233 71.026 425.841 69.2055 427.337 68.2578Z" fill="#656A65"/>
<path id="Vector_95" fill-rule="evenodd" clip-rule="evenodd" d="M453.392 80.6738C453.392 80.6738 453.618 83.8683 450.475 83.7799C447.37 83.7014 447.195 80.1638 447.195 80.1638C447.195 80.1638 447.244 82.6759 445.095 82.616C443.538 82.5953 442.411 80.6669 443.07 79.8518C443.309 79.5588 443.621 80.0392 443.652 80.5234C443.673 81.0446 444.614 82.1695 445.527 81.3036C446.441 80.4376 446.675 78.5169 447.191 78.5361C448.457 78.5977 447.539 83.6675 451.296 82.2145C453.221 81.4611 452.554 80.2112 452.618 79.673C452.672 79.1718 453.343 79.5103 453.392 80.6738Z" fill="#333833"/>
<path id="Vector_96" d="M392.512 101.888C392.101 101.778 391.689 101.667 391.25 101.51C383.411 99.0525 376.983 93.7203 373.182 86.5135C369.344 79.2966 368.59 71.0417 371.029 63.2854C376.073 47.3017 393.292 38.3886 409.495 43.444C425.66 48.4894 434.733 65.6379 429.716 81.6686C424.809 97.2922 408.294 106.117 392.512 101.888ZM406.141 50.8757C394.509 47.7592 382.346 54.2586 378.746 65.7499C376.937 71.4536 377.516 77.5195 380.34 82.8381C383.164 88.1566 387.885 92.0794 393.66 93.8648C405.563 97.6097 418.262 91.0555 421.942 79.2681C425.659 67.4906 418.979 54.8712 407.066 51.1632C406.776 51.0461 406.44 50.9559 406.141 50.8757Z" fill="#333833"/>
<path id="Vector_97" fill-rule="evenodd" clip-rule="evenodd" d="M408.256 47.3171C422.309 51.7172 430.159 66.5542 425.792 80.4583C421.425 94.3624 406.484 102.101 392.431 97.7009C378.378 93.3007 370.492 78.4537 374.859 64.5497C379.273 50.6186 394.203 42.9169 408.256 47.3171Z" fill="#FAC610"/>
<path id="Vector_98" fill-rule="evenodd" clip-rule="evenodd" d="M408.256 47.3174C410.658 48.0798 412.895 49.1552 414.913 50.4497L375.166 81.0552C373.75 77.0659 373.305 72.7418 373.997 68.3652L404.103 46.3631C405.489 46.5758 406.893 46.8726 408.256 47.3174Z" fill="#FBDE72"/>
<path id="Vector_99" fill-rule="evenodd" clip-rule="evenodd" d="M423.09 58.8286C424.768 61.5396 425.926 64.5474 426.529 67.684L388.334 96.0873C385.399 94.6263 382.846 92.6333 380.702 90.3134L423.09 58.8286Z" fill="#FBDE72"/>
<path id="Vector_100" fill-rule="evenodd" clip-rule="evenodd" d="M408.257 47.3173C414.283 49.2098 419.193 53.0246 422.465 57.8682C418.258 52.7741 412.009 48.1243 402.751 47.0717C393.371 46.0261 385.364 50.6245 379.201 56.2722C385.836 47.8155 397.315 43.8699 408.257 47.3173Z" fill="#FBE9A2"/>
<path id="Vector_101" fill-rule="evenodd" clip-rule="evenodd" d="M426.206 79.0618C426.077 79.543 425.958 79.9871 425.792 80.4582C421.425 94.3623 406.484 102.101 392.431 97.7008C384.966 95.3435 379.279 90.0907 376.209 83.5955C390.908 95.9044 415.582 100.611 426.206 79.0618Z" fill="#F49A20"/>
<path id="Vector_102" fill-rule="evenodd" clip-rule="evenodd" d="M383.207 88.4459C386.307 90.189 389.609 91.6291 393.002 92.578L388.344 96.0505C385.409 94.5895 382.856 92.5965 380.712 90.2766L383.207 88.4459Z" fill="#F7B55C"/>
<path id="Vector_103" d="M394.297 95.2258C393.96 95.1356 393.624 95.0455 393.335 94.9283C387.271 93.0258 382.317 88.9218 379.366 83.331C376.415 77.7403 375.83 71.3953 377.718 65.3955C379.607 59.3957 383.722 54.5084 389.348 51.6127C394.974 48.717 401.374 48.1706 407.438 50.0731C419.94 53.9784 426.93 67.2362 423.064 79.5689C421.176 85.5686 417.06 90.4559 411.434 93.3517C406.082 96.1225 400.056 96.7691 394.297 95.2258ZM404.345 57.575C400.568 56.5629 396.574 56.9602 393.084 58.7625C389.406 60.6727 386.666 63.8658 385.446 67.823C384.188 71.7702 384.587 75.9631 386.534 79.6186C388.481 83.2741 391.717 86.0057 395.716 87.236C399.706 88.5033 403.935 88.1291 407.613 86.2189C411.292 84.3087 414.031 81.1155 415.252 77.1583C417.79 69.0319 413.195 60.3031 404.981 57.7453C404.757 57.6852 404.57 57.6351 404.345 57.575Z" fill="#333833"/>
<path id="Vector_104" fill-rule="evenodd" clip-rule="evenodd" d="M406.21 53.9091C416.6 57.1691 422.402 68.1254 419.177 78.3684C415.941 88.6485 404.925 94.305 394.573 91.055C384.183 87.7949 378.38 76.8386 381.606 66.5956C384.794 56.3426 395.809 50.686 406.21 53.9091Z" fill="#FBD651"/>
<path id="Vector_105" fill-rule="evenodd" clip-rule="evenodd" d="M406.21 53.9092C407.172 54.2068 408.115 54.5784 409 55.014L381.116 76.5008C380.439 73.3442 380.544 69.9607 381.596 66.6328C382.333 64.3311 383.451 62.2507 384.847 60.4825L393.28 54.2926C397.253 52.7787 401.771 52.5216 406.21 53.9092Z" fill="#FBE48D"/>
<path id="Vector_106" fill-rule="evenodd" clip-rule="evenodd" d="M404.103 58.7792L403.144 59.5141L403.44 58.5618L404.103 58.7792ZM401.18 61.0109L394.167 66.3911C394.226 66.169 394.296 65.9099 394.365 65.6509C395.015 63.5242 396.312 62.1262 398.207 61.4838C399.169 61.1861 400.176 61.0194 401.18 61.0109Z" fill="#FBE48D"/>
<path id="Vector_107" fill-rule="evenodd" clip-rule="evenodd" d="M417.4 62.8578C418.967 65.5387 419.871 68.5974 420.032 71.7349L394.114 90.9717C391.022 89.9448 388.363 88.2009 386.217 86.039L417.4 62.8578Z" fill="#FBE180"/>
<path id="Vector_108" fill-rule="evenodd" clip-rule="evenodd" d="M360.609 76.4403C360.831 76.6585 360.521 77.3687 359.899 78.1938C360.77 78.9825 361.294 79.7181 361.123 79.9101C360.951 80.1021 360.178 79.6966 359.249 78.9718C358.468 79.7938 357.654 80.2897 357.432 80.0715C357.21 79.8533 357.56 78.9951 358.276 78.116C357.508 77.3944 357.048 76.7159 357.182 76.5138C357.354 76.3218 358.09 76.7173 358.963 77.348C359.715 76.637 360.387 76.2221 360.609 76.4403Z" fill="white"/>
<path id="Vector_109" fill-rule="evenodd" clip-rule="evenodd" d="M362.695 81.5216C363.106 81.6318 363.344 82.0922 363.225 82.5363C363.116 82.9434 362.652 83.1763 362.204 83.0561C361.792 82.9458 361.555 82.4855 361.674 82.0414C361.83 81.6073 362.293 81.3744 362.695 81.5216Z" fill="white"/>
<path id="Vector_110" fill-rule="evenodd" clip-rule="evenodd" d="M457.863 117.693C457.526 117.602 457.344 117.236 457.443 116.866C457.532 116.533 457.901 116.354 458.275 116.454C458.612 116.544 458.794 116.911 458.695 117.281C458.568 117.604 458.2 117.783 457.863 117.693Z" fill="white"/>
<path id="Vector_111" fill-rule="evenodd" clip-rule="evenodd" d="M458.462 51.13C458.133 51.1609 457.953 51.9852 458.021 53.0747C456.808 53.2652 455.884 53.573 455.936 53.8251C455.952 54.0672 456.916 54.2067 458.138 54.1372C458.336 55.3408 458.699 56.2314 459.028 56.2005C459.357 56.1696 459.567 55.2343 459.463 53.9767C460.592 53.8032 461.394 53.5024 461.379 53.2603C461.364 53.0182 460.474 52.8987 459.337 52.9512C459.109 51.8587 458.754 51.0892 458.462 51.13Z" fill="white"/>
<path id="Vector_112" fill-rule="evenodd" clip-rule="evenodd" d="M453.527 54.2904C453.088 54.1331 452.615 54.403 452.459 54.8371C452.302 55.2712 452.577 55.7416 453.016 55.8988C453.455 56.0561 453.928 55.7862 454.084 55.3521C454.251 54.8809 454.013 54.4206 453.527 54.2904Z" fill="white"/>
<path id="Vector_113" fill-rule="evenodd" clip-rule="evenodd" d="M365.269 157.186C365.83 157.336 368.788 148.092 371.892 136.508C374.958 124.913 377.019 115.429 376.458 115.278C375.897 115.128 372.939 124.372 369.835 135.956C366.731 147.541 364.67 157.025 365.269 157.186Z" fill="#333833"/>
<path id="Vector_114" fill-rule="evenodd" clip-rule="evenodd" d="M369.588 171.434C370.149 171.584 373.107 162.34 376.211 150.756C379.278 139.161 381.338 129.677 380.777 129.526C380.216 129.376 377.258 138.62 374.154 150.204C371.05 161.789 369.027 171.283 369.588 171.434Z" fill="#333833"/>
<path id="Vector_115" fill-rule="evenodd" clip-rule="evenodd" d="M388.09 161.475C388.651 161.626 391.113 154.233 393.582 145.017C396.061 135.764 397.578 128.157 397.017 128.007C396.456 127.857 393.994 135.25 391.525 144.466C389.056 153.681 387.529 161.325 388.09 161.475Z" fill="#333833"/>
</g>
</g>
<defs>
<linearGradient id="paint0_linear_19_2" x1="409.409" y1="44.6284" x2="380.167" y2="153.76" gradientUnits="userSpaceOnUse">
<stop/>
<stop offset="0.0001" stop-color="white"/>
<stop offset="1" stop-color="white" stop-opacity="0"/>
</linearGradient>
</defs>
</svg>
