<svg width="206" height="250" viewBox="0 0 206 250" fill="none" xmlns="http://www.w3.org/2000/svg">
<g id="panda2 1" clip-path="url(#clip0_14_2)">
<g id="Group">
<g id="Group_2" opacity="0.2">
<path id="Vector" opacity="0.2" d="M102.339 250C45.8186 250 0 243.552 0 235.599C0 227.646 45.8186 221.198 102.339 221.198C158.859 221.198 204.677 227.646 204.677 235.599C204.677 243.552 158.859 250 102.339 250Z" fill="black"/>
</g>
<g id="hand">
<path id="Vector_2" d="M138.049 153.026C143.556 153.026 149.237 152.273 155.047 150.788C164.783 148.291 174.366 143.792 182.735 137.808C191.083 131.824 197.631 124.828 201.642 117.53C207.301 107.263 207.496 97.1887 202.162 90.5803C199.777 87.6097 196.373 85.5648 192.34 84.6822C188.286 83.7781 183.733 84.0364 178.833 85.4356C170.984 87.6743 165.737 93.5293 161.118 98.6955C159.21 100.827 157.389 102.85 155.524 104.507C149.085 110.19 129.918 112.58 122.806 113.053C120.009 112.924 117.473 113.893 115.435 115.895C108.388 122.826 109.277 141.015 109.385 143.06C109.45 144.115 110.014 145.062 110.903 145.622C117.256 149.604 124.498 152.015 132.433 152.79C134.276 152.94 136.141 153.026 138.049 153.026ZM187.375 90.6664C191.538 90.6664 194.899 92.0225 197.024 94.6486C200.645 99.126 200.189 106.509 195.853 114.388C188.524 127.734 171.461 139.831 153.4 144.459C143.404 147.021 128.942 148.42 115.868 140.929C115.695 134.148 116.627 123.838 120.053 120.48C120.79 119.748 121.571 119.446 122.568 119.532C122.72 119.532 122.85 119.532 123.002 119.532C123.283 119.511 129.81 119.102 137.55 117.703C148.283 115.765 155.785 112.946 159.883 109.329C162.029 107.435 164.067 105.175 166.019 102.979C170.246 98.265 174.626 93.3786 180.632 91.6566C183.039 91.0108 185.294 90.6664 187.375 90.6664Z" fill="#333833"/>
<path id="Vector_3" fill-rule="evenodd" clip-rule="evenodd" d="M122.785 116.304C122.785 116.304 148.911 114.689 157.671 106.918C164.327 101.042 169.748 91.3983 179.7 88.5569C198.65 83.1539 208.84 97.5762 198.737 115.959C185.424 140.176 141.691 161.099 112.659 142.845C112.659 142.845 111.011 115.486 122.785 116.304Z" fill="#535853"/>
<path id="Vector_4" fill-rule="evenodd" clip-rule="evenodd" d="M185.966 87.4592C200.753 86.5767 207.669 99.7289 198.737 115.959C185.771 139.53 143.968 160.001 114.979 144.201C131.067 142.371 180.957 133.309 187.852 113.226C191.365 102.958 194.313 95.7466 185.966 87.4592Z" fill="#4D5449"/>
<path id="Vector_5" fill-rule="evenodd" clip-rule="evenodd" d="M141.952 113.505C148.109 112.084 154.245 109.975 157.693 106.918C164.349 101.042 169.769 91.3982 179.721 88.5568C190.411 85.5002 198.325 88.7721 201.36 95.5096C190.064 89.7407 176.968 90.2573 168.187 104.357C164.479 110.298 157.454 114.581 149.085 117.552C145.421 118.844 143.339 116.928 141.952 113.505Z" fill="#747974"/>
</g>
<path id="Vector_6" d="M58.4111 243.133C59.9505 243.133 61.5116 242.983 63.0511 242.681C68.645 241.605 73.1548 238.677 74.5425 235.233C76.5155 230.325 76.3638 227.118 74.2823 222.856C82.825 220.789 90.2185 215.365 94.62 207.723C99.1515 199.845 99.6718 190.998 96.051 183.421C91.9748 174.897 84.9932 169.02 76.4071 166.868C68.168 164.801 59.4302 166.523 52.4269 171.603C45.1201 176.898 43.7325 183.421 42.7134 188.178C42.3014 190.115 41.9328 191.794 41.3041 193.064C40.5235 194.614 38.1602 195.97 34.0406 197.908C30.268 199.694 27.8829 202.708 27.1674 206.647C25.4763 215.774 33.0216 227.462 40.6319 235.362C45.5104 240.421 51.8198 243.133 58.4111 243.133ZM69.5123 172.507C71.2902 172.507 73.0681 172.723 74.8027 173.153C81.459 174.832 86.9229 179.46 90.1318 186.198C92.8203 191.816 92.3867 198.489 88.9393 204.473C84.7763 211.684 77.2744 216.42 68.8401 217.152C67.7127 217.259 66.6936 217.927 66.1949 218.938C65.6746 219.95 65.7396 221.155 66.3467 222.124C69.9242 227.828 69.9459 229.141 68.4715 232.801C68.1463 233.597 65.8047 235.513 61.8152 236.266C58.9748 236.805 51.7114 237.386 45.3803 230.82C37.4664 222.619 32.6313 213.148 33.6287 207.788C33.9756 205.915 34.9946 204.645 36.881 203.763C41.6293 201.524 45.402 199.522 47.2015 195.949C48.2206 193.925 48.6976 191.687 49.1529 189.513C50.1286 184.971 51.0393 180.665 56.3297 176.834C60.2324 173.993 64.8507 172.507 69.5123 172.507Z" fill="#333833"/>
<path id="Vector_7" fill-rule="evenodd" clip-rule="evenodd" d="M69.1003 220.402C87.8985 218.766 100.257 199.802 93.0805 184.82C85.4485 168.869 67.2357 164.887 54.3566 174.229C45.2502 180.838 46.898 189.19 44.2311 194.528C42.9953 196.982 40.2633 198.596 35.4499 200.857C24.8041 205.894 31.9158 221.629 42.9953 233.102C54.0747 244.575 69.4689 239.043 71.4853 234.028C73.5234 228.991 73.003 226.601 69.1003 220.402Z" fill="#535853"/>
<path id="Vector_8" fill-rule="evenodd" clip-rule="evenodd" d="M60.9045 170.764C58.6279 171.582 56.4381 172.723 54.3783 174.229C45.2719 180.838 46.9197 189.19 44.2528 194.528C43.0169 196.982 40.285 198.596 35.4716 200.857C24.8258 205.894 31.9375 221.629 43.0169 233.102C45.1851 235.341 47.5051 236.934 49.8684 238.01C43.4506 232.822 37.5314 225.009 35.6451 219.842C32.6313 211.576 33.5419 205.743 39.2226 203.547C44.9033 201.352 47.0064 197.283 47.0064 197.283C52.0583 180.364 64.2652 180.988 64.2652 180.988C65.0241 176.446 63.3979 173.132 60.9045 170.764Z" fill="#747974"/>
<path id="Vector_9" fill-rule="evenodd" clip-rule="evenodd" d="M69.1003 220.402C81.1554 219.347 90.5871 211.168 93.8828 201.481C88.1154 191.794 69.5339 178.857 58.5629 171.732C57.1102 172.421 55.7225 173.239 54.3566 174.229C49.1312 178.018 47.4617 182.388 46.4644 186.435C48.5675 192.655 51.603 199.716 55.6141 204C64.0267 212.976 61.7718 218.745 59.4302 222.533C57.8474 225.116 46.7679 228.194 34.8862 222.705C37.0761 226.279 39.8731 229.873 43.0169 233.102C54.0964 244.576 69.4906 239.043 71.507 234.028C73.5234 228.991 73.003 226.602 69.1003 220.402Z" fill="#4D5449"/>
<path id="Vector_10" d="M132.281 108.985C133.734 110.535 135.62 112.752 137.593 115.722C136.184 111.18 135.339 105.799 135.339 105.799C135.339 105.799 136.813 105.928 138.721 106.466C136.293 103.582 134.406 101.946 133.821 101.472C133.452 101.128 132.997 100.848 132.477 100.697C130.742 100.202 128.921 101.214 128.422 102.936C124.476 116.648 74.846 97.7914 72.2659 96.8012C72.2442 96.7796 72.2225 96.7796 72.2008 96.7796C70.5096 96.1123 68.6233 96.9303 67.9511 98.5878C67.9295 98.6524 58.0208 122.998 50.172 144.976C45.7922 157.202 45.8573 171.948 50.3671 184.648C54.5084 196.293 62.4223 206.281 74.1305 211.189C79.0089 213.234 85.0365 214.719 91.5411 215.386C102.23 216.463 114.372 215.343 125.148 210.845C136.141 206.26 145.746 198.252 151.123 185.638C153.183 180.838 154.592 175.37 155.221 169.192C157.411 147.925 153.248 132.06 148.023 121.018C146.96 118.779 144.141 119.274 144.12 121.9C144.098 123.106 149.519 160.862 148.716 168.546C148.153 174.057 146.895 178.879 145.095 183.098C140.477 193.947 132.173 200.835 122.633 204.817C112.898 208.864 101.905 209.876 92.1699 208.907C86.3157 208.305 80.9603 206.991 76.6673 205.205C66.8237 201.072 60.124 192.505 56.5465 182.474C52.5136 171.13 52.4703 157.999 56.3513 147.128C62.574 129.736 70.0109 111.008 72.8513 103.948C83.8006 107.865 121.419 120.221 132.281 108.985Z" fill="#333833"/>
<path id="Vector_11" fill-rule="evenodd" clip-rule="evenodd" d="M131.566 103.84C131.566 103.84 156.609 123.493 151.947 168.891C147.285 214.267 98.0674 217.755 75.3664 208.219C52.6654 198.683 45.3803 168.03 53.2291 146.052C61.0997 124.074 70.9649 99.7935 70.9649 99.7935C70.9649 99.7935 126.514 121.362 131.566 103.84Z" fill="#535853"/>
<path id="Vector_12" fill-rule="evenodd" clip-rule="evenodd" d="M131.566 103.84C131.566 103.84 134.948 106.187 139.285 112.472C139.588 112.924 139.913 113.398 140.239 113.893C120.552 128.896 85.2533 128.681 65.0241 114.775C68.4932 105.907 70.9649 99.7935 70.9649 99.7935C70.9649 99.7935 126.514 121.362 131.566 103.84Z" fill="#4D5449"/>
<path id="Vector_13" fill-rule="evenodd" clip-rule="evenodd" d="M50.2154 166.502V166.415C49.9769 159.527 50.9309 152.639 53.0991 146.44C53.1424 146.31 53.1858 146.16 53.2292 146.052C57.3704 134.493 66.737 126.442 80.0931 128.788C88.6791 130.683 86.641 139.228 81.0687 142.759C38.0518 170.096 99.2165 205.571 130.872 204.279C113.375 215.021 89.3512 214.095 75.3664 208.218C59.2134 201.416 50.8658 183.937 50.2154 166.502Z" fill="#4D5449"/>
<path id="Vector_14" fill-rule="evenodd" clip-rule="evenodd" d="M149.952 136.172C152.185 145.084 153.27 155.933 151.947 168.891C149.41 193.646 133.604 205.937 116.085 210.436C112.941 211.254 105.374 191.278 111.272 182.043C120.183 168.073 119.186 154.081 118.513 142.78C117.104 118.327 143.946 112.214 149.952 136.172Z" fill="#F2F6F1"/>
<path id="Vector_15" d="M149.735 202.773C149.584 186.219 142.147 175.435 132.585 170.032C131.544 169.429 130.46 168.913 129.354 168.46C126.731 167.363 126.536 170.118 127.446 171.194C129.181 173.261 129.398 173.562 129.398 173.562L127.099 174.574C127.858 174.897 128.617 175.284 129.354 175.693C137.854 180.472 144.272 190.804 143.036 207.228C142.992 207.68 143.057 208.154 143.231 208.606C143.86 210.285 145.746 211.168 147.437 210.543C147.957 210.35 148.109 210.285 149.302 209.855C154.289 208.003 157.931 206.647 160.945 208.24C161.27 208.412 161.639 208.821 162.007 209.424C162.788 210.694 163.352 212.524 163.417 214.59C163.503 216.721 163.048 219.068 161.834 221.328C160.663 223.523 158.712 225.633 155.785 227.42C152.207 229.594 148.348 231.445 144.597 232.736C140.521 234.157 136.596 234.91 133.387 234.674C130.785 234.501 128.726 233.662 127.685 231.961C127.468 231.617 127.295 231.251 127.164 230.842C126.297 228.41 125.538 226.451 124.628 224.836C123.565 222.964 122.351 221.565 120.703 220.531C118.253 218.981 115.651 217.776 113.05 216.549C105.938 213.234 98.5877 209.811 96.7881 199.049C96.0726 194.765 96.2027 190.976 96.9832 187.726L95.4872 188.372C95.0535 191.299 93.0588 194.679 93.0588 194.679C93.0588 194.679 93.5141 192.483 92.2349 192.16C91.2592 191.924 90.6304 192.031 90.1534 192.397C89.091 193.215 90.11 198.812 90.3269 200.125C92.6902 214.246 101.623 218.4 110.274 222.447C112.703 223.588 115.109 224.707 117.191 226.02C117.841 226.429 118.383 227.075 118.904 228.022C119.576 229.228 120.226 230.885 120.963 233.016C121.267 233.877 121.636 234.674 122.091 235.384C124.389 239.108 128.249 240.895 132.954 241.196C137.051 241.476 141.865 240.572 146.765 238.893C150.971 237.451 155.264 235.384 159.21 232.995C163.222 230.562 165.932 227.57 167.623 224.406C169.444 221.048 170.095 217.561 169.965 214.396C169.835 211.168 168.924 208.219 167.601 206.088C166.626 204.516 165.39 203.289 164.024 202.557C159.189 199.953 154.982 200.9 149.735 202.773Z" fill="#333833"/>
<path id="Vector_16" fill-rule="evenodd" clip-rule="evenodd" d="M146.288 207.487C149.844 160.001 93.4925 158.494 92.9938 193.064C92.9721 195.109 93.1239 197.262 93.5142 199.565C96.2678 215.989 109.559 217.345 118.904 223.265C121.202 224.707 122.416 227.355 124.021 231.918C127.555 241.992 144.358 238.161 157.454 230.196C170.55 222.232 167.189 207.917 162.441 205.377C157.693 202.837 153.074 205.011 146.288 207.487Z" fill="#535853"/>
<path id="Vector_17" fill-rule="evenodd" clip-rule="evenodd" d="M93.1239 190.912C93.0588 191.622 93.0155 192.333 93.0155 193.086C92.9938 195.131 93.1456 197.283 93.5358 199.587C96.2894 216.011 109.58 217.367 118.925 223.287C121.224 224.729 122.438 227.376 124.042 231.94C127.576 242.014 144.38 238.182 157.476 230.218C170.572 222.253 167.211 207.939 162.463 205.399C162.181 205.248 161.877 205.119 161.595 204.99C162.983 209.273 163.243 214.805 159.427 220.596C151.253 232.973 137.442 232.607 129.875 225.288C122.308 217.97 124.281 218.852 111.792 212.545C99.3032 206.238 102.642 193.968 100.756 191.041C99.2165 188.673 95.5523 188.113 93.1239 190.912Z" fill="#4D5449"/>
<path id="Vector_18" d="M76.754 130.79C72.9814 131.931 69.1654 133.718 66.2817 136.602C65.306 137.571 64.3303 138.604 63.2462 139.702C55.831 147.408 44.2528 159.441 31.7207 157.784C28.0564 157.289 26.04 156.406 24.9342 155.222C23.9152 154.124 23.5249 152.488 23.243 150.573C22.5492 145.901 23.8718 140.8 26.6905 135.763C30.5065 128.939 36.9894 122.331 44.8816 117.057C52.7955 111.762 62.0754 107.866 71.4203 106.488C79.8329 105.261 88.2888 106.057 95.8558 109.781C95.8992 110.362 95.9425 111.051 96.0076 111.848C98.1541 111.03 100.344 110.728 102.49 111.202C102.382 108.899 102.209 107.392 102.209 107.37C102.1 106.359 101.515 105.412 100.539 104.895C91.2376 99.7718 80.7652 98.5448 70.4663 100.052C60.1023 101.558 49.8901 105.864 41.2174 111.654C32.5012 117.466 25.3028 124.871 20.9881 132.599C17.4973 138.863 15.8495 145.363 16.7601 151.498C17.2155 154.533 17.9527 157.267 20.1208 159.613C22.224 161.874 25.4763 163.488 30.8534 164.22C46.7029 166.329 59.6904 152.833 67.9945 144.179C69.0786 143.06 70.0543 142.027 70.8999 141.187C73.1332 138.97 76.2337 137.593 79.3342 136.732C82.825 135.763 81.936 133.309 79.5293 132.814C77.1443 132.319 73.2416 133.804 73.7402 135.375C73.7186 135.397 76.3854 131.372 76.754 130.79Z" fill="#333833"/>
<path id="Vector_19" fill-rule="evenodd" clip-rule="evenodd" d="M91.1508 132.211C91.1508 132.211 76.0819 131.479 68.5799 138.927C61.078 146.375 47.3967 163.165 31.2653 161.013C22.224 159.807 20.7062 155.997 19.9691 151.046C16.088 124.871 65.8046 89.4611 98.913 107.736C98.913 107.736 101.84 132.319 91.1508 132.211Z" fill="#535853"/>
<path id="Vector_20" fill-rule="evenodd" clip-rule="evenodd" d="M69.4689 103.517C72.7212 102.958 75.9735 102.678 79.2041 102.721C84.4511 104.464 91.6061 106.66 98.978 108.296C99.1948 110.535 99.8453 118.93 98.1324 125.151C96.5713 125.065 100.496 125.56 93.3841 124.72C86.2507 123.881 66.5418 119.705 57.2836 106.94C63.7015 104.228 68.4065 106.165 69.4689 103.517Z" fill="#4D5449"/>
<path id="Vector_21" fill-rule="evenodd" clip-rule="evenodd" d="M85.3834 132.405C80.3315 132.9 73.0898 134.428 68.5799 138.906C61.078 146.375 47.3967 163.165 31.2653 161.013C22.2239 159.807 20.7062 155.997 19.969 151.046C19.2752 146.418 20.2726 141.51 22.5492 136.667C23.2647 143.405 25.9749 150.078 34.0189 149.669C49.9985 148.829 61.1647 125.452 80.093 128.789C82.9334 129.413 84.6029 130.747 85.3834 132.405Z" fill="#4D5449"/>
<path id="Vector_22" fill-rule="evenodd" clip-rule="evenodd" d="M20.9014 154.856C20.446 153.694 20.1642 152.402 19.969 151.046C16.6951 129.004 51.4512 100.418 82.2612 102.85C72.049 106.208 59.3868 110.018 48.9795 115.916C33.6503 124.634 22.0939 136.409 20.9014 154.856Z" fill="#747974"/>
<path id="Vector_23" d="M80.1581 25.5294C80.3966 25.5294 80.6351 25.5079 80.8736 25.4433L80.1581 22.2575L80.8953 25.4433C93.2323 22.7311 93.2106 14.8527 92.6469 11.5808C91.5194 5.23067 85.0365 1.03315 79.2258 0.15059C75.1496 -0.452131 72.0707 0.667208 70.7698 3.20725C69.0353 6.58679 69.2304 14.3576 72.0924 19.696C74.3907 23.9796 77.5346 25.2066 79.7678 25.4864C79.8762 25.5079 80.028 25.5294 80.1581 25.5294ZM77.1226 6.52221C78.1634 6.52221 79.8979 6.80204 81.8059 7.79223C82.9551 8.37342 85.687 10.0309 86.164 12.7216C86.3808 13.9701 86.9662 17.2205 80.1148 18.9426C79.2908 18.6627 78.532 17.9093 77.8815 16.6608C76.0819 13.3028 75.9735 8.30885 76.4722 6.56526C76.624 6.54374 76.8625 6.52221 77.1226 6.52221Z" fill="#333833"/>
<path id="Vector_24" fill-rule="evenodd" clip-rule="evenodd" d="M80.1581 22.2575C82.1094 21.827 90.7822 19.9327 89.3946 12.1404C88.007 4.32656 75.4965 1.16227 73.6752 4.69249C71.8539 8.22272 73.0898 21.3965 80.1581 22.2575Z" fill="#4D5449"/>
<path id="Vector_25" d="M101.06 120.092C109.277 120.092 117.625 119.016 125.17 116.928C132.455 114.926 139.068 111.977 144.857 108.21C151.448 103.905 156.977 98.4588 161.249 92.0656C166.756 83.8213 172.111 68.4088 164.284 59.6909C162.81 58.055 161.595 56.8495 160.62 55.9024C157.714 53.0395 157.021 52.3722 155.741 45.527C153.877 35.3884 145.095 11.7961 103.922 11.4948C85.1883 11.3441 68.4065 18.4476 56.6983 31.4922C46.7246 42.578 41.7161 56.7849 43.2772 69.4851C44.7515 81.5826 50.0853 93.2495 58.2811 102.376C66.4985 111.525 77.0576 117.488 87.9636 119.145C92.1699 119.791 96.593 120.092 101.06 120.092ZM103.358 17.9956C103.531 17.9956 103.683 17.9956 103.856 17.9956C138.829 18.2539 147.329 36.0987 149.28 46.6894C150.863 55.2136 152.381 56.9787 156.002 60.5304C156.956 61.4776 158.04 62.5323 159.384 64.0176C164.349 69.5497 160.164 81.884 155.785 88.4493C140.369 111.482 110.144 115.895 88.961 112.687C69.3389 109.717 52.5137 90.7956 49.8034 68.6887C48.4592 57.8182 52.8823 45.527 61.6201 35.8189C71.919 24.3241 86.7494 17.9956 103.358 17.9956Z" fill="#333833"/>
<path id="Vector_26" fill-rule="evenodd" clip-rule="evenodd" d="M161.834 61.8649C155.871 55.2135 154.419 56.3759 152.511 46.1081C150.624 35.8403 142.038 15.0249 103.878 14.7451C65.7396 14.4652 43.6024 45.3762 46.5295 69.0976C49.4348 92.7974 67.4959 112.752 88.4623 115.938C107.759 118.865 141.388 115.916 158.517 90.2789C163.373 83.0032 168.295 69.0545 161.834 61.8649Z" fill="#F2F6F1"/>
<path id="Vector_27" fill-rule="evenodd" clip-rule="evenodd" d="M88.961 16.3164C70.1194 20.6 56.7416 33.0634 50.4105 46.883C58.0859 48.4328 70.488 49.3154 80.2882 41.7598C90.6955 33.7307 91.7796 22.9679 88.961 16.3164Z" fill="#E3E6E2"/>
<path id="Vector_28" fill-rule="evenodd" clip-rule="evenodd" d="M150.993 40.5115C147.134 29.7271 135.946 14.9819 103.878 14.7452C76.9925 14.5299 58.0642 29.8347 50.2587 47.1845C59.2134 36.5507 73.7186 23.8721 94.7067 18.7274C94.7067 18.7274 119.316 13.4967 137.832 27.4884C143.187 31.5568 147.459 36.0987 150.993 40.5115Z" fill="white"/>
<path id="Vector_29" fill-rule="evenodd" clip-rule="evenodd" d="M56.3297 37.0459C48.7843 46.9693 45.2502 58.7223 46.5294 69.0977C49.4348 92.7976 67.4958 112.752 88.4623 115.938C104.875 118.435 131.609 116.67 149.779 100.353C132.412 104.615 114.589 106.014 99.1515 102.829C72.2876 97.318 51.2778 76.0505 56.3297 37.0459Z" fill="#E3E6E2"/>
<path id="Vector_30" fill-rule="evenodd" clip-rule="evenodd" d="M165.476 72.1113C166.279 69.7219 167.58 64.9217 165.628 63.3288C163.026 61.1762 155.091 62.7261 155.286 66.2132C155.459 69.3991 163.764 77.2129 165.476 72.1113Z" fill="#333833"/>
<path id="Vector_31" fill-rule="evenodd" clip-rule="evenodd" d="M132.086 74.8451C143.816 72.262 145.464 65.18 144.098 55.7087C143.166 49.1864 141.301 44.0202 137.55 40.3178C125.105 28.0266 114.632 48.6267 112.226 59.0452C109.125 72.4557 120.205 77.4712 132.086 74.8451Z" fill="#535853"/>
<path id="Vector_32" d="M56.2212 43.8478C61.078 43.8478 66.1082 42.4487 69.4906 41.2863C73.2199 39.9947 76.7106 37.3471 79.3342 33.8599C82.0444 30.2436 83.4971 26.1106 83.432 22.2145C83.2586 12.205 78.6403 5.07996 71.0517 3.20722C67.6476 2.36772 60.0372 2.21704 53.1424 7.03881C48.8494 10.0309 43.4506 16.0581 42.2581 27.725C41.6293 33.7953 43.1037 38.2942 46.6378 41.071C49.283 43.116 52.7088 43.8478 56.2212 43.8478ZM76.8841 22.3221C76.9708 27.3591 72.5044 33.3433 67.3224 35.1514C59.7771 37.7776 53.4243 38.0789 50.6923 35.9479C49.0228 34.6348 48.3724 32.0948 48.7626 28.3923C49.5215 20.9875 52.2534 15.6061 56.8934 12.3772C61.5116 9.14833 66.9321 8.91154 69.4472 9.53579C74.0438 10.6551 76.754 15.3262 76.8841 22.3221Z" fill="#333833"/>
<path id="Vector_33" fill-rule="evenodd" clip-rule="evenodd" d="M80.1581 22.2576C80.0063 13.3029 76.0819 7.79227 70.2494 6.35004C64.417 4.90782 47.6785 6.93124 45.4887 28.0265C43.7107 45.2471 61.7067 40.5114 68.3848 38.1866C74.7376 36.0125 80.2665 28.9305 80.1581 22.2576Z" fill="#535853"/>
<path id="Vector_34" fill-rule="evenodd" clip-rule="evenodd" d="M56.5248 8.7395C51.3428 11.7101 46.5945 17.479 45.5104 28.0481C43.9493 43.03 57.3921 41.3941 65.306 39.1984C58.1292 36.3355 52.557 31.3631 52.4052 24.1735C52.2534 18.1463 54.053 12.9585 56.5248 8.7395Z" fill="#4D5449"/>
<path id="Vector_35" d="M119.809 59.0009C119.291 54.9318 122.001 51.2404 125.862 50.7559C129.723 50.2714 133.273 53.1772 133.791 57.2463C134.309 61.3154 131.599 65.0068 127.738 65.4913C123.877 65.9758 120.327 63.0699 119.809 59.0009Z" fill="#333833"/>
<path id="Vector_36" d="M126.382 59.5013C124.84 58.3137 124.559 56.1096 125.756 54.5783C126.952 53.0471 129.172 52.7685 130.714 53.9562C132.257 55.1439 132.537 57.348 131.341 58.8793C130.145 60.4105 127.925 60.689 126.382 59.5013Z" fill="white"/>
<path id="Vector_37" fill-rule="evenodd" clip-rule="evenodd" d="M78.0549 29.7055C79.3125 27.5745 80.2015 25.056 80.1581 22.2576C80.0063 13.3029 76.0819 7.79231 70.2495 6.35009C66.2383 5.3599 57.0451 6.00568 51.0176 13.389C56.6115 11.0427 62.986 9.5359 69.1437 10.8705C76.6673 12.5065 78.3368 21.2244 78.0549 29.7055Z" fill="#747974"/>
<path id="Vector_38" fill-rule="evenodd" clip-rule="evenodd" d="M160.555 76.158C155.134 74.6296 149.237 78.0307 147.35 83.7566C145.529 89.3533 148.218 95.1006 153.378 96.8012C155.221 94.8208 156.934 92.6467 158.517 90.2789C160.641 87.0715 162.788 82.5942 163.98 77.9661C163.005 77.1482 161.856 76.5239 160.555 76.158Z" fill="#333833"/>
<path id="Vector_39" fill-rule="evenodd" clip-rule="evenodd" d="M149.779 88.6645C150.039 91.4198 152.12 93.9168 154.397 94.5625C154.657 94.6271 154.917 94.6917 155.178 94.7132C156.348 93.3141 157.454 91.8288 158.517 90.2574C158.777 89.8699 159.037 89.461 159.297 89.0304C156.695 86.7272 152.316 86.5119 149.779 88.6645Z" fill="#EA9191"/>
<path id="Vector_40" fill-rule="evenodd" clip-rule="evenodd" d="M146.288 207.487C147.762 187.683 138.829 175.887 127.88 171.367C126.341 170.721 125.322 172.744 125.734 173.993C125.95 174.617 126.015 174.531 126.557 174.811C137.355 180.128 145.898 195.927 143.383 205.851C142.233 210.436 143.968 213.32 145.963 211.275C147.957 209.23 157.801 207.53 157.801 207.53C160.598 207.013 163.113 207.573 165.303 208.735C164.544 207.164 163.525 205.958 162.463 205.377C157.714 202.837 153.074 205.011 146.288 207.487Z" fill="#747974"/>
</g>
</g>
<defs>
<clipPath id="clip0_14_2">
<rect width="206" height="250" fill="white"/>
</clipPath>
</defs>
</svg>
