<svg width="60" height="60" viewBox="0 0 60 60" fill="none" xmlns="http://www.w3.org/2000/svg">
<g clip-path="url(#clip0_34_632)">
<path d="M52.0263 50.3686C57.1774 44.8088 60.0001 37.6216 60.0001 30.0001C60.0001 21.9868 56.8795 14.4531 51.2133 8.78693C45.547 3.12062 38.0133 0 30.0001 0C23.8928 0 18.0157 1.82415 13.0043 5.2753C12.4712 5.64252 12.3367 6.37227 12.7038 6.90546C13.071 7.43865 13.8007 7.57298 14.3339 7.20599C18.9525 4.02536 24.3697 2.34421 30.0001 2.34421C37.3871 2.34421 44.3321 5.22091 49.5557 10.4443C54.7792 15.6678 57.6559 22.6127 57.6559 29.9999C57.6559 37.3871 54.7792 44.332 49.5557 49.5555C49.098 50.0132 49.098 50.7554 49.5557 51.2132L50.6561 52.3136H42.9753V47.5882C42.9753 47.5867 42.9753 47.5853 42.9753 47.5838V44.6145L44.1637 45.792C44.6228 46.2467 45.3631 46.2443 45.819 45.7866C50.0297 41.5596 52.3486 35.9531 52.3486 29.9999C52.3486 24.0304 50.024 18.4181 45.803 14.1971C41.582 9.97615 35.9695 7.65151 30.0001 7.65151C17.6771 7.65151 7.65163 17.677 7.65163 30.0001C7.65163 35.9696 9.97626 41.5819 14.1974 45.8029C18.4185 50.024 24.0306 52.3486 30.0002 52.3485C33.7441 52.3485 37.3793 51.425 40.6311 49.6625V53.4857C40.6311 54.1329 41.1558 54.6578 41.8032 54.6578H42.5389C38.6788 56.6275 34.4113 57.6558 30.0001 57.6558C22.613 57.6558 15.6679 54.7791 10.4444 49.5556C5.22091 44.3321 2.34421 37.3871 2.34421 30.0001C2.34421 24.3696 4.02548 18.9523 7.20623 14.3338C7.57333 13.8006 7.43889 13.0709 6.9057 12.7038C6.37251 12.3365 5.64287 12.471 5.27553 13.0042C1.82427 18.0155 0 23.8926 0 30.0001C0 38.0133 3.12062 45.547 8.78681 51.2132C14.4531 56.8795 21.9867 60 30.0001 60C36.1575 60 42.0579 58.1533 47.0904 54.6578H53.4857C53.9597 54.6578 54.3871 54.3721 54.5686 53.9342C54.75 53.4962 54.6497 52.9921 54.3146 52.6569L52.0263 50.3686ZM30.0001 50.0043C24.6568 50.0043 19.6332 47.9236 15.8548 44.1453C12.0766 40.3669 9.99572 35.3435 9.99572 30.0001C9.99572 18.9697 18.9696 9.99572 29.9999 9.99572C35.3432 9.99572 40.3668 12.0766 44.145 15.8548C47.9233 19.6331 50.0042 24.6567 50.0042 30.0001C50.0042 34.9381 48.221 39.6104 44.9594 43.2806L42.628 40.9705C42.2919 40.6375 41.7889 40.5392 41.3519 40.7213C40.9152 40.9033 40.6308 41.33 40.6308 41.803V46.9481C37.4487 48.949 33.7869 50.0043 30.0001 50.0043Z" fill="#98D431"/>
<path d="M23.5943 24.118C23.5902 24.1072 23.5859 24.0965 23.5816 24.0859C23.3605 23.5487 22.8427 23.2019 22.2619 23.2019C22.2615 23.2019 22.261 23.2019 22.2605 23.2019C21.6792 23.2025 21.1612 23.5506 20.941 24.0886C20.9373 24.0975 20.9338 24.1063 20.9304 24.1153L16.7053 35.209C16.4749 35.8139 16.7786 36.4911 17.3835 36.7214C17.9885 36.9519 18.6655 36.6483 18.896 36.0434L19.6608 34.0353H24.8314L25.5879 36.04C25.765 36.5094 26.211 36.7987 26.6846 36.7987C26.8221 36.7987 26.9621 36.7743 27.0983 36.7229C27.7039 36.4944 28.0096 35.8181 27.781 35.2124L23.5943 24.118ZM20.5536 31.6911L22.2579 27.2161L23.9467 31.6911H20.5536Z" fill="#98D431"/>
<path d="M34.4234 34.4445C34.4202 34.4445 34.4169 34.4445 34.4137 34.4445C33.8586 34.449 33.2702 34.4522 32.7822 34.4535V24.374C32.7822 23.7268 32.2574 23.2019 31.6101 23.2019C30.9627 23.2019 30.438 23.7268 30.438 24.374V35.6166C30.438 36.1565 30.8067 36.6265 31.3311 36.7551C31.4483 36.7838 31.5128 36.7996 32.441 36.7996C32.8797 36.7996 33.5112 36.7961 34.4324 36.7887C35.0797 36.7836 35.6003 36.2545 35.5951 35.6072C35.5901 34.9631 35.0663 34.4445 34.4234 34.4445Z" fill="#98D431"/>
<path d="M43.3714 35.6072C43.3664 34.9632 42.8426 34.4445 42.1996 34.4445C42.1964 34.4445 42.1932 34.4445 42.1901 34.4445C41.635 34.449 41.0466 34.4522 40.5585 34.4535V24.374C40.5585 23.7268 40.0338 23.2019 39.3864 23.2019C38.739 23.2019 38.2143 23.7268 38.2143 24.374V35.6166C38.2143 36.1565 38.5832 36.6266 39.1077 36.7551C39.2249 36.7838 39.2891 36.7996 40.2171 36.7996C40.6557 36.7996 41.2875 36.7961 42.2088 36.7887C42.8561 36.7836 43.3767 36.2545 43.3714 35.6072Z" fill="#98D431"/>
<path d="M9.61583 10.7877C10.2632 10.7877 10.7879 10.2629 10.7879 9.61559C10.7879 8.96825 10.2632 8.44348 9.61583 8.44348C8.9685 8.44348 8.44373 8.96825 8.44373 9.61559C8.44373 10.2629 8.9685 10.7877 9.61583 10.7877Z" fill="#98D431"/>
</g>
<defs>
<clipPath id="clip0_34_632">
<rect width="60" height="60" fill="white"/>
</clipPath>
</defs>
</svg>
