<svg width="60" height="60" viewBox="0 0 60 60" fill="none" xmlns="http://www.w3.org/2000/svg">
<g clip-path="url(#clip0_37_772)">
<path d="M51.1876 31.5586C51.0915 30.9137 50.49 30.4692 49.8459 30.5653C49.2014 30.6614 48.7564 31.262 48.8526 31.9065C49.7443 37.8881 50.5385 52.2468 38.6797 56.3749C32.6212 58.4833 24.2121 57.9134 18.6851 55.0194C10.0196 50.4803 8.28426 40.1152 14.156 27.9689C15.9527 24.2541 17.087 21.3624 16.5029 15.2554C16.3496 13.6404 15.5558 12.1683 14.9177 10.9854C14.7108 10.6014 14.4302 10.0813 14.2773 9.70781C14.7506 9.68995 15.5673 9.7957 16.5661 10.2805C18.0346 10.9937 20.6713 12.9565 21.834 18.0917C21.9302 18.517 22.2533 18.8548 22.6745 18.9697C23.0956 19.0846 23.5451 18.9578 23.8445 18.6401C25.9338 16.4218 26.9784 13.3562 26.9495 9.52882C26.9308 7.06606 26.4716 4.62252 25.9887 2.64727C27.0186 2.97091 28.3594 3.6539 29.6627 5.08532C32.2472 7.9239 33.7711 12.5794 34.1927 18.9221C34.2147 19.2508 34.3726 19.5552 34.6285 19.7621C34.8056 19.9049 35.4529 20.3297 36.3474 19.785C37.8241 18.885 40.0342 15.2829 39.5856 10.22C39.9706 10.6604 40.4306 11.2175 40.9699 11.9142C42.9355 14.4589 44.7391 17.8358 46.1856 21.6806C46.4154 22.2908 47.0961 22.5993 47.7063 22.3695C48.3165 22.1402 48.6246 21.4595 48.3952 20.8493C46.8668 16.788 44.9451 13.1992 42.8376 10.4704C41.9481 9.32145 41.1383 8.37389 40.4947 7.72981C39.9216 7.15624 38.8541 6.08873 37.7596 6.59182C37.0162 6.93376 36.7621 7.70143 37.0043 8.87422C37.6873 12.1806 37.0272 14.6242 36.298 16.1078C35.6081 10.5419 33.9679 6.30755 31.4086 3.49642C28.5924 0.40378 25.5707 0.0210907 24.4025 3.35163e-05C24.0322 -0.00271306 23.6756 0.163455 23.4472 0.458712C23.2192 0.753511 23.1441 1.13895 23.2449 1.49829C24.3856 5.57192 25.5268 11.1397 23.4348 15.1712C21.2751 9.26744 17.0147 7.45332 14.6092 7.35308C13.1951 7.29494 12.1839 7.79207 11.902 8.68379C11.566 9.74305 12.1565 10.8376 12.8399 12.1056C13.4048 13.1525 14.0447 14.3394 14.1528 15.4797C14.6801 20.9889 13.7028 23.4851 12.0306 26.9417C8.68571 33.8612 7.57289 40.3788 8.81297 45.7896C9.95829 50.7879 12.9933 54.7027 17.5897 57.1105C20.6265 58.7003 24.3774 59.6772 28.4382 59.9349C29.1225 59.9784 29.8064 60.0004 30.4862 59.9999C33.7043 59.9999 36.8294 59.5183 39.4556 58.6042C44.6077 56.8111 48.1989 53.1719 50.1297 47.7891C51.7369 43.3094 52.1027 37.6968 51.1876 31.5586Z" fill="#98D431"/>
<path d="M31.1499 49.0388C30.5013 49.1015 30.0266 49.6783 30.0893 50.3274C30.1488 50.9372 30.6624 51.3936 31.2625 51.3936C31.301 51.3936 31.3394 51.3917 31.3783 51.3881C34.3511 51.0992 36.9237 49.9768 38.8179 48.1421C41.1878 45.8478 42.3166 42.5999 42.0836 38.7497C41.8653 35.1384 40.4627 31.2332 38.0283 27.4562C36.1789 24.5901 35.2593 24.2532 34.5415 24.3178C34.0119 24.3649 33.5692 24.6959 33.3609 25.1953C33.225 25.5134 33.2479 25.762 33.2987 26.3058C33.3934 27.3271 33.6164 29.7185 32.8125 31.5628C32.6409 31.956 32.3392 32.2288 32.1158 32.3616C31.0771 25.1024 27.7611 23.4077 24.8337 21.9118C24.5723 21.7781 24.3118 21.6449 24.0546 21.508C23.6403 21.2878 23.1345 21.3336 22.7669 21.6257C22.3989 21.9173 22.2391 22.3993 22.3595 22.8529C23.6092 27.5583 21.9832 30.4939 20.2625 33.6017C19.9773 34.1162 19.6825 34.6486 19.4065 35.1823C17.4335 38.9992 17.97 43.7095 20.7733 47.1821C21.1826 47.6893 21.926 47.7685 22.4332 47.3593C22.9404 46.9501 23.0196 46.2066 22.6099 45.6994C20.3943 42.9552 19.9599 39.2523 21.503 36.2668C21.7635 35.7632 22.0372 35.2688 22.3274 34.7452C23.8353 32.0219 25.5135 28.992 25.096 24.7243C27.2255 25.9488 29.0767 27.6947 29.7881 32.7598C29.9282 33.8887 30.5942 34.6481 31.572 34.7919C32.84 34.9777 34.336 33.9747 34.9764 32.5062C35.5834 31.1142 35.75 29.583 35.7614 28.3076C35.8521 28.4408 35.9464 28.5832 36.0443 28.7356C38.2599 32.1725 39.5339 35.6845 39.728 38.8925C39.9179 42.0337 39.0354 44.6461 37.1764 46.4465C35.6474 47.9269 33.6205 48.799 31.1499 49.0388Z" fill="#98D431"/>
<path d="M47.9036 27.0794L47.9136 27.0995C48.1205 27.5129 48.5376 27.7523 48.9702 27.7523C49.1478 27.7523 49.3277 27.712 49.497 27.6273C50.0802 27.3357 50.3164 26.6267 50.0253 26.0439L50.0152 26.0238C49.7236 25.4411 49.0146 25.2049 48.4318 25.496C47.8486 25.7876 47.6124 26.4967 47.9036 27.0794Z" fill="#98D431"/>
<path d="M26.201 48.3736C25.6009 48.1181 24.9078 48.3969 24.6524 48.9961C24.3965 49.5958 24.6753 50.2893 25.2749 50.5447L25.2983 50.5548C25.4494 50.6194 25.6064 50.6496 25.7606 50.6496C26.2193 50.6496 26.6556 50.3809 26.8469 49.9323C27.1023 49.3326 26.8236 48.6395 26.2243 48.3836L26.201 48.3736Z" fill="#98D431"/>
</g>
<defs>
<clipPath id="clip0_37_772">
<rect width="60" height="60" fill="white"/>
</clipPath>
</defs>
</svg>
